<?xml version="1.0" encoding="utf-8"?>
<!-- Generator: Adobe Illustrator 25.1.0, SVG Export Plug-In . SVG Version: 6.00 Build 0)  -->
<svg version="1.1" xmlns="http://www.w3.org/2000/svg" xmlns:xlink="http://www.w3.org/1999/xlink" x="0px" y="0px"
	 viewBox="0 0 500 500" style="enable-background:new 0 0 500 500;" xml:space="preserve">
<style type="text/css">
	.st0{fill:#53A9E2;}
	.st1{opacity:0.7;fill:#FFFFFF;}
	.st2{fill:#263238;stroke:#263238;stroke-width:1.1599;stroke-linecap:round;stroke-linejoin:round;stroke-miterlimit:10;}
	.st3{fill:#FFFFFF;stroke:#263238;stroke-width:1.1599;stroke-linecap:round;stroke-linejoin:round;stroke-miterlimit:10;}
	.st4{fill:none;stroke:#FFFFFF;stroke-width:1.1599;stroke-linecap:round;stroke-linejoin:round;stroke-miterlimit:10;}
	.st5{fill:none;stroke:#263238;stroke-width:1.1599;stroke-linecap:round;stroke-linejoin:round;stroke-miterlimit:10;}
	.st6{fill:#263238;}
	.st7{fill:#53A9E2;stroke:#263238;stroke-width:1.1599;stroke-linecap:round;stroke-linejoin:round;stroke-miterlimit:10;}
	.st8{fill:#757575;stroke:#263238;stroke-width:1.1599;stroke-linecap:round;stroke-linejoin:round;stroke-miterlimit:10;}
	.st9{fill:none;stroke:#263238;stroke-width:1.1599;stroke-miterlimit:10;}
	.st10{opacity:0.18;clip-path:url(#XMLID_8_);}
	.st11{clip-path:url(#XMLID_9_);fill:#53A9E2;}
	.st12{opacity:0.5;clip-path:url(#XMLID_9_);fill:#FFFFFF;}
	.st13{opacity:0.3;clip-path:url(#XMLID_10_);}
	.st14{opacity:0.3;clip-path:url(#XMLID_11_);}
	.st15{opacity:0.3;clip-path:url(#XMLID_12_);}
</style>
<g id="Background_Simple">
	<g>
		<path class="st0" d="M49,258c0,0,2.3,70.9,61.5,118.2c59.2,47.3,141.3,50.7,207.7,55.2c66.4,4.5,117.5-33.1,125.2-90
			c7.7-56.9-43.1-73.5-70.6-138.3c-27.5-64.7-25.1-86-83.4-125.8C231.1,37.5,140,62,92.2,130.2C44.4,198.4,49,258,49,258z"/>
		<path class="st1" d="M49,258c0,0,2.3,70.9,61.5,118.2c59.2,47.3,141.3,50.7,207.7,55.2c66.4,4.5,117.5-33.1,125.2-90
			c7.7-56.9-43.1-73.5-70.6-138.3c-27.5-64.7-25.1-86-83.4-125.8C231.1,37.5,140,62,92.2,130.2C44.4,198.4,49,258,49,258z"/>
	</g>
</g>
<g id="Hole">
	<g>
		<g>
			<ellipse class="st2" cx="337.9" cy="382.1" rx="70.2" ry="20.8"/>
			<path class="st3" d="M337.9,370.8c33.2,0,61,6.8,68.3,16c1.2-1.5,1.9-3.1,1.9-4.8c0-11.5-31.4-20.8-70.2-20.8
				s-70.2,9.3-70.2,20.8c0,1.6,0.7,3.3,1.9,4.8C276.9,377.7,304.7,370.8,337.9,370.8z"/>
		</g>
		<g>
			<path class="st4" d="M328.4,400.3c-23.4-1.1-41.1-5.9-41.1-11.6c0-0.6,0.2-1.2,0.6-1.8"/>
			<path class="st4" d="M382.8,382.9c4,1.7,6.3,3.6,6.3,5.7c0,6.5-22.8,11.8-50.9,11.8c-0.4,0-0.8,0-1.2,0"/>
			<path class="st4" d="M294.1,382.7c8.8-3.5,25.3-5.9,44.1-5.9c12.1,0,23.2,1,31.9,2.6"/>
			<path class="st4" d="M327.7,392.7c-5.9-0.8-9.9-2.3-9.9-4.1c0-2.6,9.1-4.7,20.4-4.7c11.3,0,20.4,2.1,20.4,4.7
				c0,2.2-6.7,4.1-15.7,4.6"/>
		</g>
	</g>
</g>
<g id="Landscape">
	<g>
		<path class="st5" d="M56,298.3c30.6-8.7,95-25.9,130.6-27.2c47.8-1.7,128.5,33,178.9,39.1s84.2,4.3,84.2,4.3"/>
		<path class="st5" d="M39,303.3c0,0,2.6-0.8,7.3-2.2"/>
		<path class="st5" d="M436.1,249.2c-12.3-2.7-31.8-5.8-53.8-5.1c-37.4,1.3-77.7,6.2-127.8,12.6c-50,6.4-121.2-29.2-169.6-16
			C36.6,254,40.3,258,40.3,258"/>
		<path class="st5" d="M449.9,252.8c0,0-1.9-0.6-5.3-1.5"/>
	</g>
</g>
<g id="Clouds">
	<g>
		<g>
			<path class="st5" d="M360.3,160.9c-1.1-4.4-5-7.7-9.8-7.7c-4.7,0-8.7,3.3-9.8,7.7H360.3z"/>
			<path class="st5" d="M459,160.9c-1.2-5-5.4-8.9-10.7-9.5c0.3-1.7,0.5-3.5,0.5-5.4c0-16.2-13.1-29.3-29.3-29.3
				c-14.4,0-26.4,10.4-28.8,24.1c-3.2-2.5-7.2-4-11.5-4c-10.3,0-18.7,8.4-18.7,18.7c0,1.8,0.3,3.6,0.8,5.3H459z"/>
		</g>
		<g>
			<path class="st5" d="M186.3,184.4c-0.5-2.2-2.6-3.9-5-3.9c-2.4,0-4.4,1.7-5,3.9H186.3z"/>
			<path class="st5" d="M236.5,184.4c-0.6-2.6-2.8-4.5-5.4-4.8c0.2-0.9,0.3-1.8,0.3-2.7c0-8.2-6.6-14.8-14.8-14.8
				c-7.3,0-13.4,5.3-14.6,12.2c-1.6-1.3-3.6-2-5.8-2c-5.2,0-9.5,4.3-9.5,9.5c0,0.9,0.1,1.8,0.4,2.7H236.5z"/>
		</g>
		<g>
			<path class="st5" d="M231.4,200.1c-0.3-1.4-1.6-2.5-3.1-2.5c-1.5,0-2.8,1-3.1,2.5H231.4z"/>
			<path class="st5" d="M263.1,200.1c-0.4-1.6-1.7-2.9-3.4-3c0.1-0.6,0.2-1.1,0.2-1.7c0-5.2-4.2-9.4-9.4-9.4c-4.6,0-8.4,3.3-9.2,7.7
				c-1-0.8-2.3-1.3-3.7-1.3c-3.3,0-6,2.7-6,6c0,0.6,0.1,1.2,0.2,1.7H263.1z"/>
		</g>
	</g>
</g>
<g id="Character">
	<g>
		<g>
			<path class="st6" d="M164.1,312.1c-0.3,0-0.6-0.1-0.9-0.3c-0.9-0.5-1.2-1.7-0.7-2.6c0.5-0.8,120.7-131.9,175.7-180
				c0.4-0.3,1-0.3,1.3,0.1c0.3,0.4,0.3,1-0.1,1.3c-54.8,47.9-173.2,179.6-173.7,180.5C165.3,311.8,164.7,312.1,164.1,312.1z"/>
			<g>
				<path class="st7" d="M170.7,286c0,0,6-6.4,9.5-6.4c3.6,0,10.3,6,9.9,9.1c-0.4,3.2-6.4,0.4-6.4,0.4s-5.6,7.6-11.1,6.4
					C167.1,294.3,170.7,286,170.7,286z"/>
				<path class="st7" d="M183.8,289.2c0,0,3.6,2.5,4,4.3c0.3,1.8-4,6.8-8.9,7.9c-4.9,1.1-7.4-1.6-6-4.2
					C174.4,294.6,180.2,289.4,183.8,289.2z"/>
			</g>
		</g>
		<path class="st5" d="M333.6,266.1V134.6c0,0-2.7,9.5-2.7,10.2"/>
		<g>
			<rect x="287.6" y="273.1" class="st7" width="100.9" height="80.8"/>
		</g>
		<g>
			<path class="st6" d="M335,272.7v-4.6c0-0.6-0.5-1.2-1.2-1.2c-0.6,0-1.2,0.5-1.2,1.2v4.6H335z"/>
			<path class="st6" d="M344.3,261.5l0,0.2c-0.2-0.3-0.6-0.6-1-0.6c-0.6,0-1.2,0.5-1.2,1.2v12.4c0,2-1.6,3.6-3.6,3.6
				c-0.5,0-1-0.1-1.4-0.3c-0.3,0.4-0.6,1.3,0.3,2.5c0.4,0.1,0.7,0.1,1.1,0.1c3.2,0,5.9-2.6,5.9-5.9v-5.7h2.7L344.3,261.5z"/>
		</g>
		<path class="st5" d="M333.7,133.4c0,0,2.1-7.3,0.2-6.6C332.1,127.4,333.7,133.4,333.7,133.4z"/>
		<path class="st5" d="M333.7,133.4c0,0-7.8-2.7-7.1-0.2C327.3,135.7,333.7,133.4,333.7,133.4z"/>
	</g>
	<g>
		<g>
			<path class="st2" d="M165.9,197.2c0,0-9.6-5.4-28.4-2.7c-18.8,2.7-22.4,18.2-19.3,34.3c3.1,16.1,20.9,29.8,23.6,28.6
				c2.7-1.2-0.8-37.3,5.4-44.2c6.1-6.9,26.1-5.8,27.3-11.1C175.5,196.8,165.9,197.2,165.9,197.2z"/>
			<path class="st8" d="M132.5,206.8l2,12.7c0,0-12.1,32.9-10.1,37.5c2,4.6,20.2,6.2,20.2,6.2s29.7,3.6,38.4,0
				c8.8-3.6,4.2-14,3.3-16.9c-1-2.9-6.5-26.4-6.5-26.4s2-5.5,2-8.5c0-2.9-0.3-11.1-1.6-13c-1.3-2-24.1-4.2-34.2-2.6
				C135.8,197.3,131.2,199.9,132.5,206.8z"/>
			<g>
				<path class="st3" d="M137.7,221.4c0,0-0.3,28.3,1.3,33.9c1.6,5.5,8.1,12.1,21.8,10.4c13.7-1.6,15-14.7,15-14.7l-1-30.3
					L137.7,221.4z"/>
				<circle class="st9" cx="158.7" cy="241.8" r="2.4"/>
				<path class="st6" d="M160.8,252.1c0,0.9-0.7,1.6-1.6,1.6c-0.9,0-1.6-0.7-1.6-1.6c0-0.9,0.7-1.6,1.6-1.6
					C160.1,250.4,160.8,251.2,160.8,252.1z"/>
				<path class="st6" d="M151,231.3c1,1.1,1.4,2.5,0.8,3c-0.6,0.6-1.9,0.1-3-1c-1-1.1-1.4-2.5-0.8-3
					C148.6,229.8,150,230.2,151,231.3z"/>
				<path class="st6" d="M164.2,231.3c-1,1.1-1.4,2.5-0.8,3c0.6,0.6,1.9,0.1,3-1c1-1.1,1.4-2.5,0.8-3S165.3,230.2,164.2,231.3z"/>
				<path class="st5" d="M144,227.5c0,0,2.1-3.6,6.8-2.5"/>
				<path class="st5" d="M163.7,225.3c0,0,4.7-1.4,6.1,2.5"/>
			</g>
		</g>
		<g>
			<path class="st2" d="M179.4,407.2c0,0,5.1-3.1,8-4.3c0.3-0.1,0.6-0.2,0.8-0.3c2.5-0.8,9.6-0.4,16.3-4.6c6.7-4.2,3.3-9.2-1.7-10.4
				c-5-1.3-10.4-2.9-10.4-2.9l-1.3-19.6c0,0-15,4.2-20.1,6.3c-5,2.1-2.1,31.8-1.7,34.3C169.8,408,169.8,409.7,179.4,407.2z"/>
			<path class="st3" d="M196.1,398c-8.8,1.7-8.8,3.3-18.4,5c-4.1,0.7-6.8,0.8-8.6,0.7c0.1,0.9,0.2,1.5,0.2,1.8
				c0.4,2.5,0.4,4.2,10,1.7c0,0,5.1-3.1,8-4.3c0.3-0.1,0.6-0.2,0.8-0.3c2.5-0.8,9.6-0.4,16.3-4.6c2.1-1.3,3.2-2.8,3.6-4.1
				C205,395.4,200.7,397.1,196.1,398z"/>
		</g>
		<g>
			<g>
				<path class="st2" d="M199.6,387.3c0,0-0.3,22.8-1,27.7c-0.7,4.9,0.3,11.1,7.8,11.1c7.5,0,22.2-4.9,27.4-5.9
					c5.2-1,13.7-3.3,17.3-11.4c3.6-8.1-18.2-7.2-18.2-7.2l1.3-16.6C234.2,385,211.7,389.6,199.6,387.3z"/>
				<path class="st3" d="M251.1,408.8c0.4-1,0.5-1.8,0.3-2.6c-1.6,2.2-4.4,5-8.7,6.8c-7.8,3.3-22.5,6.8-33.6,8.5
					c-5.1,0.7-8.3-0.1-10.3-1.2c0.7,3.2,2.8,5.8,7.7,5.8c7.5,0,22.2-4.9,27.4-5.9C239,419.2,247.5,416.9,251.1,408.8z"/>
				<path class="st4" d="M232.9,401.6c0,0,1.6,5.5-2.9,9.1"/>
			</g>
			<path class="st8" d="M197.3,375.2c0,0-0.5,9.9,0,11.9c2.1,7.5,2.8,5.8,18.4,5.4c15.6-0.3,22-6.6,23.6-10.5
				c1.6-3.9,0-12.4-0.7-15.3c-0.7-2.9-5.9-3.9-7.8-3.6C228.9,363.5,198.3,372,197.3,375.2z"/>
		</g>
		<g>
			<g>
				<defs>
					<path id="XMLID_1_" d="M89.8,400v21.9c0,1.8,1,3.4,2.5,4.2l35.2,18.2c1.3,0.7,2.8,0.7,4.1,0.1l51.9-19.8
						c1.7-0.8,2.8-2.4,2.8-4.3v-26.5L127,411.7L89.8,400z"/>
				</defs>
				<use xlink:href="#XMLID_1_"  style="overflow:visible;fill:#53A9E2;"/>
				<clipPath id="XMLID_8_">
					<use xlink:href="#XMLID_1_"  style="overflow:visible;"/>
				</clipPath>
				<path id="XMLID_2_" class="st10" d="M129.6,410.9l-2.6,0.8L89.8,400v21.9c0,1.8,1,3.4,2.5,4.2l35.2,18.2c0.6,0.3,1.3,0.5,2,0.5
					V410.9z"/>
				
					<use xlink:href="#XMLID_1_"  style="overflow:visible;fill:none;stroke:#263238;stroke-width:1.1599;stroke-linecap:round;stroke-linejoin:round;stroke-miterlimit:10;"/>
			</g>
			<g>
				<defs>
					<path id="XMLID_3_" d="M144,363l-56.9,18.2c-0.9,0.3-1.5,1.1-1.5,2.1v16.2c0,0.9,0.5,1.6,1.3,2l39.6,18.9
						c0.5,0.3,1.2,0.3,1.7,0.1l59.6-22.3c0.9-0.3,1.4-1.1,1.4-2.1l0.1-15.2c0-1-0.7-1.9-1.7-2.2L145.1,363
						C144.8,362.9,144.4,362.9,144,363z"/>
				</defs>
				<use xlink:href="#XMLID_3_"  style="overflow:visible;fill:#FFFFFF;"/>
				<clipPath id="XMLID_9_">
					<use xlink:href="#XMLID_3_"  style="overflow:visible;"/>
				</clipPath>
				<path class="st11" d="M126.4,420.4L126.4,420.4c0.6,0.3,1.2,0.3,1.7,0.1l59.6-22.3c0.9-0.3,1.4-1.1,1.4-2.1l0.1-15.2
					c0-0.5-0.2-1-0.5-1.4l-61.5,22.7L126.4,420.4z"/>
				<path class="st12" d="M126.4,420.4L126.4,420.4c0.6,0.3,1.2,0.3,1.7,0.1l59.6-22.3c0.9-0.3,1.4-1.1,1.4-2.1l0.1-15.2
					c0-0.5-0.2-1-0.5-1.4l-61.5,22.7L126.4,420.4z"/>
				<path class="st11" d="M85.6,383.3v16.2c0,0.9,0.5,1.6,1.3,2l39.6,18.9c0.3,0.1,0.6,0.2,0.8,0.2v-18.4L85.6,383
					C85.6,383.1,85.6,383.2,85.6,383.3z"/>
				
					<use xlink:href="#XMLID_3_"  style="overflow:visible;fill:none;stroke:#263238;stroke-width:1.1599;stroke-linecap:round;stroke-linejoin:round;stroke-miterlimit:10;"/>
			</g>
		</g>
		<g>
			<path class="st2" d="M222.1,333.2c0,0,7.5,3.6,11.4,10.8c3.9,7.2,1,20.9-1.3,25.1c-2.3,4.2-17.6,6.2-22.8,6.2
				c-5.2,0-6.2-0.7-6.2-0.7s-16.6,3.3-27,5.2c-10.4,2-7.8-22.5-4.6-33.6c3.3-11.1,21.5-16.6,29-16.6
				C208.1,329.6,222.1,333.2,222.1,333.2z"/>
			<path class="st4" d="M203.2,374.6c0,0,14-4.9,19.9-17.3"/>
			<path class="st4" d="M216.6,367.4c0,0,6.2-2.3,12.1-8.1"/>
		</g>
		<path class="st8" d="M183.7,343.9c0,0,3.9,20.5,2,29c-2,8.5-13.4,9.8-16,8.8c-2.6-1-1.3-21.2-1.3-31.3
			C168.3,340.4,178.4,341,183.7,343.9z"/>
		<g>
			<g>
				<defs>
					<path id="XMLID_6_" d="M100.6,289.2c0,0-2.3,13.4-0.7,19.9c1.6,6.5,4.6,10.1,4.6,10.1s-8.1,12.1-6.5,22.2
						c1.6,10.1,5.9,11.4,5.9,11.4s-3.6,18.6,2.9,25.1c6.5,6.5,20.9,13.7,36.8,10.8s26.7-3.6,30-9.1c3.3-5.5,1.3-30,1.3-30
						s-0.7-27-1.3-43.7c-0.7-16.6-2.9-30-10.8-36.5c-7.8-6.5-42.4,3.6-52.8,10.4C99.6,286.6,100.6,289.2,100.6,289.2z"/>
				</defs>
				<use xlink:href="#XMLID_6_"  style="overflow:visible;fill:#53A9E2;"/>
				<clipPath id="XMLID_10_">
					<use xlink:href="#XMLID_6_"  style="overflow:visible;"/>
				</clipPath>
				<path class="st13" d="M102.9,289.2c0,0-2.3,13.4-0.7,19.9c1.6,6.5,4.6,10.1,4.6,10.1s-8.1,12.1-6.5,22.2
					c1.6,10.1,5.9,11.4,5.9,11.4s-3.6,18.6,2.9,25.1c6.5,6.5,20.9,13.7,36.8,10.8c16-2.9,26.7-3.6,30-9.1c3.3-5.5,1.3-30,1.3-30
					s-0.7-27-1.3-43.7c-0.7-16.6-2.9-30-10.8-36.5c-7.8-6.5-42.4,3.6-52.8,10.4C101.9,286.6,102.9,289.2,102.9,289.2z"/>
				
					<use xlink:href="#XMLID_6_"  style="overflow:visible;fill:none;stroke:#263238;stroke-width:1.1599;stroke-linecap:round;stroke-linejoin:round;stroke-miterlimit:10;"/>
			</g>
			<path class="st5" d="M104.5,319.2c0,0,14.7,11.4,34.9,4.9"/>
			<path class="st5" d="M103.8,352.7c0,0,16.6,16.3,44,0.7"/>
		</g>
		<g>
			<defs>
				<path id="XMLID_4_" d="M168.7,273.2c0,0-6.2-9.4-14.7-14.7c-8.5-5.2-30.3-9.1-39.1-10.8c-8.8-1.6-18.2-1-20.9,8.8
					c-2.6,9.8-2.3,26.1,0.3,33.2c2.6,7.2,13.4,11.4,21.8,6.5c8.5-4.9,31.9-23.8,40.1-24.8C164.4,270.6,168,276.8,168.7,273.2z"/>
			</defs>
			<use xlink:href="#XMLID_4_"  style="overflow:visible;fill:#757575;"/>
			<clipPath id="XMLID_11_">
				<use xlink:href="#XMLID_4_"  style="overflow:visible;"/>
			</clipPath>
			<path class="st14" d="M150.6,271.4c5-2.1-7.5,1.7-8.3,0.4c-0.8-1.2,8.7-7.5,10.8-8.3c2.1-0.8-12,2.1-11.6,0
				c0.4-2.1,13.7-2.5,4.6-4.6c-9.1-2.1-38.9-7.5-44.7-9.5c-0.6-0.2-1-0.4-1.3-0.6c-2.8,1.4-5,3.9-6,7.8c-2.6,9.8-2.3,26.1,0.3,33.2
				c2.3,6.2,10.7,10.2,18.4,8c3.6-2.9,6.9-6.7,12.5-10.3C136.5,280.5,145.6,273.5,150.6,271.4z"/>
			
				<use xlink:href="#XMLID_4_"  style="overflow:visible;fill:none;stroke:#263238;stroke-width:1.1599;stroke-linecap:round;stroke-linejoin:round;stroke-miterlimit:10;"/>
		</g>
		<g>
			<g>
				<path class="st7" d="M203.9,317.5c0,0,7.5,1,12.4,2.9c4.9,2,8.1,14,6.2,15.6c-2,1.6-5.9-0.3-5.9-0.3s-5.5,2-9.4,2.3
					C203.2,338.4,199,319.8,203.9,317.5z"/>
				<path class="st8" d="M179.1,316.6c0,0,1.3,0,8.5-3.3c7.2-3.3,13-3.3,17.6,3.9c4.6,7.2,6.5,16,3.9,21.2
					c-2.6,5.2-12.4,8.8-17.6,8.8c-5.2,0-5.9-6.8-5.9-6.8s-0.7-10.8-3.9-14.7C178.4,321.8,177.8,317.5,179.1,316.6z"/>
				<g>
					<defs>
						<path id="XMLID_5_" d="M155,273.2c7.2-2.6,16.3-1,19.6,8.1c3.3,9.1,6.2,35.8,6.2,35.8s8.1,1,11.4,4.6
							c3.3,3.6,4.9,12.7,4.2,17.3c-0.7,4.6-12.1,13-25.1,13.4c-13,0.3-22.5-5.9-27-22.5c-4.6-16.6-2.8-42-2.8-42s1.7-7.5,4.1-9.1"/>
					</defs>
					<use xlink:href="#XMLID_5_"  style="overflow:visible;fill:#53A9E2;"/>
					<clipPath id="XMLID_12_">
						<use xlink:href="#XMLID_5_"  style="overflow:visible;"/>
					</clipPath>
					<path class="st15" d="M196.4,339.1c0.7-4.6-1-13.7-4.2-17.3c-0.1-0.1-0.3-0.3-0.4-0.4c0.3,1.9,0.6,4.7,0.7,8.8
						c0.6,19.1-26.1,15.9-31.5,2.1c-2.9-7.5-3.7-40.2-12.4-42.7c-5-1.4-6.7,2.5-7.3,6.1c-0.2,9.4,0.1,23.8,3,34.2
						c4.6,16.6,14,22.8,27,22.5C184.3,352.1,195.7,343.6,196.4,339.1z"/>
					
						<use xlink:href="#XMLID_5_"  style="overflow:visible;fill:none;stroke:#263238;stroke-width:1.1599;stroke-linecap:round;stroke-linejoin:round;stroke-miterlimit:10;"/>
				</g>
			</g>
			<path class="st5" d="M180.7,317.2c0,0,2.5,11.9-10.5,18.4"/>
		</g>
	</g>
</g>
<g id="Text">
	<g>
		<g>
			<path class="st6" d="M115.9,110.3c0-2.7,1.2-4.7,4.1-4.7c2.9,0,4.1,2,4.1,4.7v9.5c0,2.7-1.2,4.7-4.1,4.7c-2.8,0-4.1-2-4.1-4.7
				V110.3z M117.1,119.8c0,2,0.8,3.5,2.8,3.5c2.1,0,2.9-1.5,2.9-3.5v-9.7c0-2-0.8-3.5-2.9-3.5c-2,0-2.8,1.5-2.8,3.5V119.8z"/>
			<path class="st6" d="M126,110.3c0-2.7,1.2-4.7,4.1-4.7c2.9,0,4.1,2,4.1,4.7v9.5c0,2.7-1.2,4.7-4.1,4.7c-2.8,0-4.1-2-4.1-4.7
				V110.3z M127.2,119.8c0,2,0.8,3.5,2.8,3.5c2.1,0,2.9-1.5,2.9-3.5v-9.7c0-2-0.8-3.5-2.9-3.5c-2,0-2.8,1.5-2.8,3.5V119.8z"/>
			<path class="st6" d="M140,105.7c2.9,0,4,1.8,4,4.5v2c0,2.9-1.4,4.4-4.3,4.4h-2.3v7.6h-1.2v-18.6H140z M139.7,115.6
				c2.1,0,3.1-1,3.1-3.2v-2.2c0-2-0.7-3.3-2.8-3.3h-2.6v8.7H139.7z"/>
			<path class="st6" d="M153.6,110.2v0.4h-1.2v-0.5c0-2-0.7-3.4-2.8-3.4c-2,0-2.8,1.5-2.8,3.4c0,4.5,6.7,4.6,6.7,9.7
				c0,2.7-1.2,4.6-4,4.6c-2.8,0-4-2-4-4.6v-1h1.2v1c0,2,0.8,3.4,2.8,3.4c2,0,2.8-1.4,2.8-3.4c0-4.5-6.7-4.5-6.7-9.7
				c0-2.8,1.2-4.6,4-4.6C152.5,105.6,153.6,107.5,153.6,110.2z"/>
			<path class="st6" d="M156.7,122v2.3h-1.2V122H156.7z"/>
			<path class="st6" d="M160,122v2.3h-1.2V122H160z"/>
			<path class="st6" d="M163.3,122v2.3h-1.2V122H163.3z"/>
		</g>
		<g>
			<path class="st6" d="M119.8,132.7c2.9,0,4,1.8,4,4.5v2c0,2.9-1.4,4.4-4.3,4.4h-2.3v7.6H116v-18.6H119.8z M119.5,142.6
				c2.1,0,3.1-1,3.1-3.2v-2.2c0-2-0.7-3.3-2.8-3.3h-2.6v8.7H119.5z"/>
			<path class="st6" d="M127,147.2l-0.9,4.1H125l4.1-18.6h1.8l4.1,18.6h-1.2l-0.9-4.1H127z M127.2,146.1h5.4l-2.7-12L127.2,146.1z"
				/>
			<path class="st6" d="M144.7,137.3v1.4h-1.2v-1.5c0-2-0.8-3.5-2.8-3.5s-2.8,1.5-2.8,3.5v9.7c0,2,0.8,3.5,2.8,3.5s2.8-1.5,2.8-3.5
				v-4h-2.5v-1.1h3.6v5c0,2.7-1.2,4.7-4,4.7c-2.8,0-4-2-4-4.7v-9.5c0-2.7,1.2-4.7,4-4.7C143.6,132.6,144.7,134.6,144.7,137.3z"/>
			<path class="st6" d="M153.1,141.3v1.1H148v7.7h6.1v1.1h-7.3v-18.6h7.3v1.1H148v7.5H153.1z"/>
			<path class="st6" d="M161.3,151.3h-1.1v-18.6h1.6l5.6,15.7v-15.7h1.1v18.6h-1.4l-5.8-16.5V151.3z"/>
			<path class="st6" d="M170.5,137.3c0-2.7,1.2-4.7,4.1-4.7c2.9,0,4.1,2,4.1,4.7v9.5c0,2.7-1.2,4.7-4.1,4.7c-2.8,0-4.1-2-4.1-4.7
				V137.3z M171.7,146.9c0,2,0.8,3.5,2.8,3.5c2.1,0,2.9-1.5,2.9-3.5v-9.7c0-2-0.8-3.5-2.9-3.5c-2,0-2.8,1.5-2.8,3.5V146.9z"/>
			<path class="st6" d="M183.8,151.3v-17.4H180v-1.1h8.8v1.1H185v17.4H183.8z"/>
			<path class="st6" d="M200.4,141.8v1.1h-4.8v8.4h-1.2v-18.6h7.1v1.1h-5.8v7.9H200.4z"/>
			<path class="st6" d="M203.3,137.3c0-2.7,1.2-4.7,4.1-4.7c2.9,0,4.1,2,4.1,4.7v9.5c0,2.7-1.2,4.7-4.1,4.7c-2.8,0-4.1-2-4.1-4.7
				V137.3z M204.5,146.9c0,2,0.8,3.5,2.8,3.5c2.1,0,2.9-1.5,2.9-3.5v-9.7c0-2-0.8-3.5-2.9-3.5c-2,0-2.8,1.5-2.8,3.5V146.9z"/>
			<path class="st6" d="M214.6,146.8c0,2,0.7,3.5,2.8,3.5c2,0,2.8-1.5,2.8-3.5v-14.1h1.1v14c0,2.7-1.1,4.7-4,4.7c-2.8,0-4-2-4-4.7
				v-14h1.2V146.8z"/>
			<path class="st6" d="M224.5,151.3h-1.1v-18.6h1.6l5.6,15.7v-15.7h1.1v18.6h-1.4l-5.8-16.5V151.3z"/>
			<path class="st6" d="M237.9,132.7c2.9,0,4.1,1.9,4.1,4.6v9.3c0,2.7-1.2,4.6-4.1,4.6h-4.1v-18.6H237.9z M237.8,150.2
				c2.1,0,2.9-1.4,2.9-3.4v-9.4c0-2-0.9-3.4-2.9-3.4H235v16.3H237.8z"/>
		</g>
	</g>
	<g>
		<path class="st6" d="M299.6,323.1l13.2-31.2h7.9v31.2h3.4v6.6h-3.4v8.4h-7.1v-8.4h-14V323.1z M313.6,323.1v-17.4l-7.3,17.4H313.6z
			"/>
		<path class="st6" d="M326.8,302.9c0-7.4,3.9-11.6,11-11.6c7.1,0,11,4.2,11,11.6v24c0,7.4-3.9,11.6-11,11.6c-7.1,0-11-4.2-11-11.6
			V302.9z M334.1,327.4c0,3.3,1.5,4.6,3.8,4.6c2.3,0,3.8-1.3,3.8-4.6v-25c0-3.3-1.5-4.6-3.8-4.6c-2.3,0-3.8,1.3-3.8,4.6V327.4z"/>
		<path class="st6" d="M351.9,323.1l13.2-31.2h7.9v31.2h3.4v6.6H373v8.4h-7.1v-8.4h-14V323.1z M365.9,323.1v-17.4l-7.3,17.4H365.9z"
			/>
	</g>
</g>
</svg>
