<?xml version="1.0" encoding="utf-8"?>
<!-- Generator: Adobe Illustrator 25.1.0, SVG Export Plug-In . SVG Version: 6.00 Build 0)  -->
<svg version="1.1" xmlns="http://www.w3.org/2000/svg" xmlns:xlink="http://www.w3.org/1999/xlink" x="0px" y="0px"
	 viewBox="0 0 750 500" style="enable-background:new 0 0 750 500;" xml:space="preserve">
<style type="text/css">
	.st0{display:none;clip-path:url(#SVGID_2_);fill:#F2F2F2;}
	.st1{clip-path:url(#SVGID_2_);}
	.st2{fill:none;stroke:#FF61D6;stroke-width:0.1719;stroke-miterlimit:10;}
	.st3{fill:none;stroke:#61CAFF;stroke-width:0.3702;stroke-miterlimit:10;}
	.st4{fill:#F2F2F2;}
	.st5{fill:#61CAFF;}
	.st6{fill:#FF61D6;}
	.st7{opacity:0.74;clip-path:url(#SVGID_2_);}
	.st8{fill:#444444;}
	.st9{opacity:0.79;clip-path:url(#SVGID_2_);fill:#444444;}
	.st10{opacity:0.79;clip-path:url(#SVGID_2_);}
	.st11{fill:none;stroke:#444444;stroke-width:0.2097;stroke-miterlimit:10;}
	.st12{clip-path:url(#SVGID_2_);fill:#61CAFF;}
	.st13{clip-path:url(#SVGID_2_);fill:#FF61D6;}
</style>
<g id="BACKGROUND">
</g>
<g id="OBJECTS">
	<g>
		<defs>
			<rect id="SVGID_1_" x="0.7" y="0.5" width="750" height="500"/>
		</defs>
		<clipPath id="SVGID_2_">
			<use xlink:href="#SVGID_1_"  style="overflow:visible;"/>
		</clipPath>
		<rect x="0.7" y="0.5" class="st0" width="750" height="500"/>
		<g class="st1">
			<path class="st2" d="M-99.6,199.3c0,0-34.7-157.6,94.1-127.7s-8.9-58.6,105.7-50.3S260-53.3,265.9-96.3"/>
			<path class="st2" d="M-99.3,199.9c0,0-7.9-36-1.6-69.4c6.7-35.7,28.4-69.8,90.9-58.1c2,0.4,4.1,0.8,6.2,1.3
				c128.2,28.7-9-60.1,105.2-51.7c3.2,0.2,6.3,0.4,9.4,0.5C218.5,26,261.7-53.2,266.1-96.4"/>
			<path class="st2" d="M-99,200.5c0,0-7.9-36.4-0.9-69c7.4-34.9,29.3-68.2,91.7-57.1c2,0.4,4.1,0.7,6.2,1.2
				C125.5,103-11.2,14,102.7,22.4c3.2,0.2,6.4,0.4,9.5,0.5c107.6,3.9,151.1-74.9,154.1-119.5"/>
			<path class="st2" d="M-98.8,201c0,0-7.8-36.8-0.2-68.6c8.2-34.1,30.3-66.6,92.4-56c2,0.3,4.1,0.7,6.2,1.1
				c126.9,26.2-9.3-63,104.2-54.5c3.2,0.2,6.4,0.5,9.5,0.6C221,28.1,264.7-50.6,266.4-96.6"/>
			<path class="st2" d="M-98.5,201.6c0,0-7.8-37.2,0.5-68.2c8.9-33.3,31.3-65,93.2-55c2,0.3,4.1,0.6,6.3,1
				C127.7,104.4-8,14.9,105.2,23.5c3.2,0.3,6.4,0.5,9.5,0.6c107.5,5,151.5-73.4,151.8-120.8"/>
			<path class="st2" d="M-98.2,202.2c0,0-7.8-37.6,1.2-67.9c9.6-32.5,32.3-63.4,94-53.9c2.1,0.3,4.2,0.6,6.3,1
				c125.5,23.7-9.6-66,103.2-57.3c3.2,0.3,6.4,0.5,9.6,0.7C223.4,30.2,267.7-48,266.7-96.8"/>
			<path class="st2" d="M-98,202.7c0,0-7.8-38,1.9-67.5c10.3-31.6,33.3-61.8,94.7-52.8c2.1,0.3,4.2,0.5,6.3,0.9
				c124.8,22.5-9.8-67.8,102.7-58.7c3.2,0.3,6.4,0.5,9.6,0.7c107.4,5.9,152-71.9,149.6-122.2"/>
			<path class="st2" d="M-97.7,203.3c0,0-7.7-38.3,2.6-67.1c11-30.8,34.4-60.2,95.5-51.8c2.1,0.3,4.2,0.5,6.3,0.8
				c124.1,21.2-9.9-69.3,102.2-60.1c3.2,0.3,6.5,0.5,9.7,0.7C225.9,32.2,270.7-45.4,267-97"/>
			<path class="st2" d="M-97.4,203.9c0,0-7.7-38.7,3.2-66.7c11.8-30,35.4-58.6,96.3-50.7c2.1,0.3,4.2,0.4,6.3,0.8
				c123.4,20-10.1-70.9,101.7-61.5c3.2,0.3,6.5,0.6,9.7,0.8c107.4,6.8,152.5-70.5,147.3-123.5"/>
			<path class="st2" d="M-97.2,204.4c0,0-7.7-39.1,3.9-66.3c12.5-29.2,36.4-57,97-49.7c2.1,0.3,4.2,0.4,6.3,0.7
				c122.7,18.8-10.2-72.4,101.2-62.9c3.3,0.3,6.5,0.6,9.7,0.8c107.3,7.3,152.7-69.7,146.2-124.2"/>
			<path class="st2" d="M-96.9,205c0,0-7.7-39.5,4.6-65.9c13.2-28.3,37.4-55.5,97.8-48.6c2.1,0.2,4.2,0.3,6.3,0.6
				c122,17.6-10.4-73.9,100.7-64.3c3.3,0.3,6.5,0.6,9.8,0.8c107.3,7.7,152.9-69,145.1-124.8"/>
			<path class="st2" d="M-96.6,205.6c0,0-7.7-39.9,5.3-65.6c13.9-27.5,38.4-53.9,98.6-47.5c2.1,0.2,4.2,0.3,6.3,0.5
				c121.2,16.4-10.5-75.5,100.2-65.7c3.3,0.3,6.5,0.6,9.8,0.9c107.3,8.1,153.2-68.3,144-125.5"/>
			<path class="st2" d="M-96.3,206.1c0,0-7.7-40.2,6-65.2C-75.7,114.3-50.9,88.6,9,94.5c2.1,0.2,4.2,0.2,6.3,0.5
				c120.5,15.2-10.7-77,99.7-67.1c3.3,0.3,6.6,0.6,9.8,0.9c107.2,8.6,153.4-67.6,142.9-126.2"/>
			<path class="st2" d="M-96.1,206.7c0,0-7.7-40.6,6.7-64.8C-74,116-48.9,91.1,10.7,96.5c2.1,0.2,4.2,0.1,6.3,0.4
				c119.8,14-10.8-78.5,99.2-68.5c3.3,0.3,6.6,0.7,9.9,0.9c107.2,9,153.6-66.8,141.7-126.8"/>
			<path class="st2" d="M-95.8,207.2c0,0-7.7-41,7.4-64.4c16.1-25,41.5-49.2,100.9-44.4c2.1,0.2,4.2,0.1,6.4,0.3
				c119,12.9-11-80.1,98.7-70c3.3,0.3,6.6,0.7,9.9,1C234.5,39.2,281.2-36.3,268-97.7"/>
			<path class="st2" d="M-95.5,207.8c0,0-7.7-41.3,8.1-64c16.8-24.2,42.5-47.7,101.6-43.3c2.1,0.2,4.2,0,6.4,0.3
				c118.3,11.7-11.1-81.6,98.2-71.4c3.3,0.3,6.6,0.7,10,1C235.8,40.2,282.7-35,268.2-97.8"/>
			<path class="st2" d="M-95.3,208.4c0,0-7.7-41.7,8.7-63.6c17.5-23.4,43.5-46.1,102.4-42.2c2.1,0.1,4.3,0,6.4,0.2
				c117.5,10.5-11.2-83.1,97.7-72.8c3.3,0.3,6.6,0.7,10,1C237,41.2,284.3-33.7,268.3-97.9"/>
			<path class="st2" d="M-95,208.9c0,0-7.7-42.1,9.4-63.2c18.2-22.5,44.6-44.6,103.2-41.2c2.1,0.1,4.3-0.1,6.4,0.1
				C140.7,114,12.6,20,121.2,30.5c3.3,0.3,6.7,0.7,10,1.1C238.2,42.2,285.8-32.4,268.5-98"/>
			<path class="st2" d="M-94.7,209.5c0,0-7.7-42.4,10.1-62.9C-65.7,125-39,103.6,19.3,106.5c2.1,0.1,4.3-0.1,6.4,0
				c115.9,8.3-11.5-86.2,96.7-75.6c3.3,0.3,6.7,0.8,10.1,1.1c107,11.1,154.8-63.2,136.1-130.2"/>
			<path class="st2" d="M-94.5,210.1c0,0-7.7-42.8,10.8-62.5C-64.1,126.7-37,106.1,21,108.5c2.1,0.1,4.3-0.2,6.4,0
				c115.2,7.2-11.7-87.7,96.2-77c3.3,0.3,6.7,0.8,10.1,1.1c106.9,11.5,155-62.4,135-130.8"/>
			<path class="st2" d="M-94.2,210.6c0,0-7.7-43.2,11.5-62.1c20.3-20,47.7-40,105.5-38c2.2,0.1,4.3-0.2,6.4-0.1
				c114.4,6-11.8-89.2,95.7-78.4c3.3,0.3,6.7,0.8,10.1,1.2C241.9,45.1,290.3-28.5,268.9-98.3"/>
			<path class="st2" d="M-93.9,211.2c0,0-7.7-43.5,12.2-61.7c21-19.2,48.7-38.5,106.2-36.9c2.2,0.1,4.3-0.3,6.4-0.2
				c113.6,4.9-12-90.7,95.2-79.8c3.4,0.3,6.7,0.8,10.2,1.2c106.9,12.3,155.5-61,132.8-132.2"/>
			<path class="st2" d="M-93.7,211.8c0,0-7.7-43.9,12.9-61.3c21.7-18.3,49.8-37,107-35.9c2.2,0,4.3-0.3,6.4-0.2
				c112.8,3.9-12.1-92.2,94.7-81.2c3.4,0.3,6.8,0.8,10.2,1.2C244.4,47.1,293.3-25.9,269.2-98.5"/>
			<path class="st2" d="M-93.4,212.3c0,0-7.7-44.3,13.5-60.9c22.4-17.5,50.8-35.4,107.8-34.8c2.2,0,4.3-0.4,6.5-0.3
				c112,2.8-12.3-93.8,94.2-82.6c3.4,0.4,6.8,0.9,10.3,1.3c106.8,13.1,156-59.5,130.6-133.5"/>
			<path class="st2" d="M-93.1,212.9c0,0-7.8-44.7,14.2-60.6c23-16.7,51.8-33.9,108.5-33.8c2.2,0,4.3-0.4,6.5-0.4
				c111.2,1.7-12.4-95.3,93.7-84c3.4,0.4,6.8,0.9,10.3,1.3C246.8,49,296.3-23.2,269.5-98.7"/>
			<path class="st2" d="M-92.9,213.5c0,0-7.8-45,14.9-60.2c23.7-15.8,52.9-32.4,109.3-32.7c2.2,0,4.3-0.5,6.5-0.5
				c110.3,0.7-12.6-96.8,93.2-85.4c3.4,0.4,6.8,0.9,10.3,1.4C248.1,50,297.8-21.9,269.7-98.8"/>
			<path class="st2" d="M-92.6,214c0,0-7.8-45.4,15.6-59.8c24.4-15,53.9-30.9,110.1-31.6c2.2,0,4.3-0.5,6.5-0.5
				c109.5-0.4-12.7-98.3,92.7-86.8c3.4,0.4,6.8,0.9,10.4,1.4C249.3,50.9,299.3-20.6,269.8-98.9"/>
			<path class="st2" d="M-92.3,214.6c0,0-7.8-45.8,16.3-59.4c25.1-14.2,55-29.4,110.8-30.6c2.2,0,4.3-0.6,6.5-0.6
				c108.7-1.4-12.9-99.8,92.2-88.2c3.4,0.4,6.9,0.9,10.4,1.4C250.5,51.9,300.8-19.3,270-99"/>
			<path class="st2" d="M-92.1,215.2c0,0-7.9-46.1,17-59c25.8-13.4,56-27.9,111.6-29.5c2.2-0.1,4.4-0.6,6.5-0.7
				c107.9-2.4-13-101.3,91.7-89.6c3.4,0.4,6.9,1,10.4,1.5C251.7,52.9,302.3-18,270.1-99.1"/>
			<path class="st2" d="M-91.8,215.7c0,0-7.9-46.5,17.7-58.6c26.4-12.5,57.1-26.5,112.4-28.4c2.2-0.1,4.4-0.7,6.5-0.7
				c107-3.4-13.2-102.9,91.2-91c3.4,0.4,6.9,1,10.5,1.5C253,53.8,303.8-16.7,270.3-99.1"/>
			<path class="st2" d="M-91.5,216.3c0,0-7.9-46.9,18.3-58.3c27.1-11.7,58.1-25,113.1-27.4c2.2-0.1,4.4-0.7,6.5-0.8
				c106.2-4.4-13.3-104.4,90.7-92.4c3.4,0.4,6.9,1,10.5,1.5C254.2,54.8,305.3-15.4,270.4-99.2"/>
			<path class="st2" d="M-91.3,216.9c0,0-8-47.3,19-57.9c27.8-10.9,59.2-23.5,113.9-26.3c2.2-0.1,4.4-0.8,6.5-0.9
				c105.3-5.4-13.5-105.9,90.2-93.8c3.4,0.4,6.9,1,10.6,1.6C255.4,55.7,306.8-14.1,270.6-99.3"/>
			<path class="st2" d="M-91,217.4c0,0-8-47.7,19.7-57.5c28.4-10.1,60.2-22,114.7-25.3c2.2-0.1,4.4-0.8,6.5-1
				c104.5-6.4-13.6-107.4,89.7-95.2c3.4,0.4,7,1,10.6,1.6C256.7,56.7,308.3-12.8,270.7-99.4"/>
			<path class="st2" d="M-90.7,218c0,0-8-48.1,20.4-57.1c29.1-9.3,61.3-20.6,115.4-24.2c2.3-0.2,4.4-0.9,6.6-1
				c103.6-7.3-13.8-108.9,89.2-96.6c3.5,0.4,7,1.1,10.6,1.6c106.4,17,158.3-52.2,119.4-140.2"/>
			<path class="st2" d="M-90.5,218.6c0,0-8.1-48.5,21.1-56.7c29.8-8.5,62.3-19.1,116.2-23.1c2.3-0.2,4.4-0.9,6.6-1.1
				c102.8-8.3-13.9-110.4,88.7-98c3.5,0.4,7,1.1,10.7,1.7C259.1,58.6,311.3-10.2,271-99.6"/>
			<path class="st2" d="M-90.2,219.1c0,0-8.1-48.9,21.8-56.3c30.5-7.6,63.4-17.6,117-22.1c2.3-0.2,4.4-1,6.6-1.2
				c101.9-9.2-14.1-111.9,88.2-99.4c3.5,0.4,7,1.1,10.7,1.7C260.4,59.5,312.8-8.9,271.2-99.7"/>
			<path class="st2" d="M-89.9,219.7c0,0-8.1-49.2,22.5-56c31.1-6.8,64.4-16.2,117.7-21c2.3-0.2,4.4-1,6.6-1.2
				C157.9,131.4,42.6,28,144.6,40.6c3.5,0.4,7,1.1,10.7,1.7c106.3,18.1,159-50,116-142.2"/>
			<path class="st2" d="M-89.7,220.3c0,0-8.1-49.6,23.1-55.6c31.8-6,65.5-14.7,118.5-20c2.3-0.2,4.4-1.1,6.6-1.3
				c100.2-11-14.4-114.9,87.2-102.2c3.5,0.4,7.1,1.1,10.8,1.8C262.8,61.4,315.8-6.3,271.5-99.9"/>
			<path class="st2" d="M-89.4,220.8c0,0-8.2-50,23.8-55.2c32.5-5.2,66.6-13.3,119.3-18.9c2.3-0.2,4.4-1.1,6.6-1.4
				C159.7,133.4,45.8,28.9,147,41.7c3.5,0.4,7.1,1.1,10.8,1.8C264,62.3,317.3-5,271.6-100"/>
			<path class="st2" d="M-89.1,221.4c0,0-8.2-50.4,24.5-54.8c33.2-4.4,67.6-11.8,120-17.8c2.3-0.3,4.4-1.2,6.6-1.5
				c98.5-12.8-14.7-117.9,86.2-105.1c3.5,0.4,7.1,1.2,10.9,1.8C265.3,63.3,318.8-3.7,271.8-100.1"/>
			<path class="st2" d="M-88.9,221.9c0,0-8.2-50.8,25.2-54.4c33.8-3.6,68.7-10.4,120.8-16.8c2.3-0.3,4.4-1.2,6.6-1.5
				C161.4,135.6,49,29.8,149.5,42.8c3.5,0.5,7.1,1.2,10.9,1.9C266.5,64.2,320.3-2.4,271.9-100.2"/>
			<path class="st2" d="M-88.6,222.5c0,0-8.3-51.2,25.9-54c34.5-2.8,69.7-9,121.6-15.7c2.3-0.3,4.4-1.3,6.6-1.6
				c96.8-14.5-15-120.9,85.2-107.9c3.5,0.5,7.1,1.2,10.9,1.9C267.7,65.1,321.8-1.1,272.1-100.3"/>
			<path class="st2" d="M-88.3,223.1c0,0-8.3-51.6,26.6-53.7c35.2-2,70.8-7.5,122.3-14.7c2.3-0.3,4.4-1.3,6.6-1.7
				C163.1,137.7,52.1,30.6,152,43.8c3.5,0.5,7.2,1.2,11,1.9C269,66.1,323.3,0.2,272.2-100.4"/>
			<path class="st2" d="M-88.1,223.6c0,0-8.3-52.1,27.3-53.3c35.9-1.2,71.8-6.1,123.1-13.6c2.3-0.3,4.5-1.4,6.7-1.7
				c95-16.2-15.3-123.9,84.2-110.7c3.5,0.5,7.2,1.2,11,2C270.2,67,324.8,1.5,272.4-100.5"/>
			<path class="st2" d="M-87.8,224.2c0,0-8.4-52.5,27.9-52.9c36.5-0.4,72.9-4.7,123.9-12.5c2.3-0.4,4.5-1.4,6.7-1.8
				c94.2-17-15.4-125.4,83.7-112.1c3.5,0.5,7.2,1.3,11,2c106,21,160.9-44.1,107.1-147.5"/>
			<path class="st2" d="M-87.5,224.8c0,0-8.4-52.9,28.6-52.5c37.2,0.4,73.9-3.3,124.6-11.5c2.3-0.4,4.5-1.5,6.7-1.9
				C165.7,141.1,56.9,32,155.7,45.4c3.5,0.5,7.2,1.3,11.1,2.1C272.7,68.8,327.8,4.1,272.7-100.7"/>
			<path class="st2" d="M-87.3,225.3c0,0-8.4-53.3,29.3-52.1c37.9,1.2,75-1.9,125.4-10.4c2.4-0.4,4.5-1.5,6.7-2
				C166.6,142.3,58.4,32.4,156.9,46c3.6,0.5,7.2,1.3,11.1,2.1C273.9,69.8,329.3,5.4,272.8-100.8"/>
			<path class="st2" d="M-87,225.9c0,0-8.4-53.7,30-51.7c38.6,2,76.1-0.4,126.2-9.4c2.4-0.4,4.5-1.6,6.7-2
				C167.4,143.4,60,32.8,158.1,46.5c3.6,0.5,7.3,1.3,11.2,2.1C275.1,70.7,330.8,6.7,273-100.9"/>
			<path class="st2" d="M-86.7,226.5c0,0-8.4-54.1,30.7-51.4c39.3,2.7,77.1,1,126.9-8.3c2.4-0.4,4.5-1.6,6.7-2.1
				c90.7-20.1-16-131.4,81.7-117.7c3.6,0.5,7.3,1.3,11.2,2.2C276.4,71.6,332.3,8,273.1-101"/>
			<path class="st2" d="M-86.4,227c0,0-8.5-54.5,31.4-51c39.9,3.5,78.2,2.4,127.7-7.2c2.4-0.5,4.5-1.7,6.7-2.2
				c89.8-20.9-16.2-132.9,81.2-119.1c3.6,0.5,7.3,1.3,11.2,2.2c105.8,22.8,162-40.5,101.5-150.9"/>
			<path class="st2" d="M-86.2,227.6c0,0-8.5-54.9,32.1-50.6c40.6,4.3,79.2,3.8,128.5-6.2c2.4-0.5,4.5-1.7,6.7-2.2
				c89-21.7-16.3-134.4,80.7-120.5c3.6,0.5,7.3,1.4,11.3,2.2c105.8,23.1,162.3-39.7,100.3-151.5"/>
			<path class="st2" d="M-85.9,228.2c0,0-8.5-55.3,32.7-50.2c41.3,5.1,80.3,5.2,129.2-5.1c2.4-0.5,4.5-1.7,6.7-2.3
				C170.9,148.1,66.3,34.6,163,48.6c3.6,0.5,7.3,1.4,11.3,2.3c105.7,23.4,162.5-39,99.2-152.2"/>
			<path class="st2" d="M-85.6,228.7c0,0-8.5-55.7,33.4-49.8c42,5.9,81.3,6.6,130-4c2.4-0.5,4.5-1.8,6.8-2.4
				c87.3-23.1-16.6-137.4,79.8-123.3c3.6,0.5,7.4,1.4,11.3,2.3c105.7,23.8,162.7-38.3,98.1-152.9"/>
			<path class="st2" d="M-85.4,229.3c0,0-8.6-56.1,34.1-49.4c42.7,6.7,82.4,7.9,130.8-3c2.4-0.5,4.5-1.8,6.8-2.5
				c86.4-23.8-16.8-138.9,79.3-124.7c3.6,0.5,7.4,1.4,11.4,2.3c105.7,24.1,163-37.6,97-153.5"/>
			<path class="st2" d="M-85.1,229.9c0,0-8.6-56.6,34.8-49.1c43.4,7.5,83.4,9.3,131.5-1.9c2.4-0.6,4.5-1.9,6.8-2.5
				C173.5,151.8,71.1,36,166.7,50.2c3.6,0.5,7.4,1.4,11.4,2.4C283.8,77.1,341.4,15.8,274-101.6"/>
			<path class="st2" d="M-84.8,230.4c0,0-8.6-57,35.5-48.7c44.1,8.3,84.5,10.7,132.3-0.9c2.4-0.6,4.5-1.9,6.8-2.6
				C174.4,153.1,72.7,36.4,168,50.8c3.6,0.5,7.4,1.5,11.5,2.4C285,78,342.9,17.1,274.2-101.7"/>
			<path class="st2" d="M-84.6,231c0,0-8.6-57.4,36.2-48.3c44.7,9.1,85.5,12.1,133.1,0.2c2.4-0.6,4.5-2,6.8-2.7
				c83.9-25.9-17.2-143.4,77.8-128.9c3.6,0.6,7.4,1.5,11.5,2.4c105.6,25.1,163.7-35.4,93.6-155.6"/>
			<path class="st2" d="M-84.3,231.6c0,0-8.6-57.8,36.9-47.9c45.4,9.9,86.6,13.5,133.8,1.3c2.4-0.6,4.5-2,6.8-2.7
				c83-26.6-17.4-144.9,77.3-130.3c3.6,0.6,7.5,1.5,11.5,2.5c105.5,25.5,163.9-34.6,92.5-156.2"/>
			<path class="st2" d="M-84,232.1c0,0-8.6-58.2,37.5-47.5c46.1,10.7,87.6,14.8,134.6,2.3c2.5-0.7,4.5-2.1,6.8-2.8
				c82.2-27.3-17.5-146.4,76.8-131.7c3.7,0.6,7.5,1.5,11.6,2.5C288.8,80.7,347.4,21,274.6-102"/>
			<path class="st2" d="M-83.8,232.7c0,0-8.6-58.6,38.2-47.1c46.8,11.5,88.7,16.2,135.4,3.4c2.5-0.7,4.6-2.1,6.8-2.9
				C178,158.1,79,38.2,172.9,52.9c3.7,0.6,7.5,1.5,11.6,2.5C290,81.6,348.9,22.3,274.8-102.1"/>
			<path class="st2" d="M-83.5,233.3c0,0-8.7-59,38.9-46.8c47.5,12.2,89.7,17.6,136.1,4.4c2.5-0.7,4.6-2.2,6.8-3
				c80.5-28.6-17.8-149.3,75.8-134.5c3.7,0.6,7.5,1.5,11.6,2.6c105.5,26.5,164.6-32.4,89.2-158.2"/>
			<path class="st2" d="M-83.2,233.8c0,0-8.7-59.4,39.6-46.4c48.2,13,90.7,19,136.9,5.5c2.5-0.7,4.6-2.2,6.8-3
				c79.7-29.2-18-150.8,75.3-135.9c3.7,0.6,7.5,1.6,11.7,2.6c105.4,26.8,164.8-31.7,88-158.9"/>
			<path class="st2" d="M-83,234.4c0,0-8.7-59.8,40.3-46C6.2,202.2,49.1,208.7,95,195c2.5-0.7,4.6-2.2,6.9-3.1
				C180.7,162,83.7,39.6,176.6,54.5c3.7,0.6,7.6,1.6,11.7,2.6c105.4,27.1,165.1-31,86.9-159.6"/>
			<path class="st2" d="M-82.7,235c0,0-8.7-60.3,41-45.6C7.8,204,51.1,211,96.7,197c2.5-0.8,4.6-2.3,6.9-3.2
				C181.6,163.3,85.3,40,177.8,55c3.7,0.6,7.6,1.6,11.8,2.7C295,85.2,354.9,27.5,275.4-102.5"/>
			<path class="st2" d="M-82.4,235.5c0,0-8.7-60.7,41.7-45.2c50.3,15.4,93.9,23,139.2,8.7c2.5-0.8,4.6-2.3,6.9-3.2
				c77.2-31.1-18.4-155.3,73.8-140.2c3.7,0.6,7.6,1.6,11.8,2.7c105.3,27.8,165.5-29.5,84.7-160.9"/>
			<path class="st2" d="M-82.2,236.1c0,0-8.7-61.1,42.4-44.8c51,16.2,94.9,24.4,139.9,9.7c2.5-0.8,4.6-2.4,6.9-3.3
				C183.4,166,88.4,40.9,180.3,56.1c3.7,0.6,7.6,1.6,11.8,2.8C297.4,87,357.9,30.1,275.7-102.7"/>
			<path class="st2" d="M-81.9,236.6c0,0-8.7-61.5,43-44.4c51.7,17,95.9,25.7,140.7,10.8c2.5-0.8,4.6-2.4,6.9-3.4
				c75.6-32.3-18.7-158.2,72.8-143c3.7,0.6,7.6,1.6,11.9,2.8c105.3,28.5,166-28,82.4-162.2"/>
			<path class="st2" d="M-81.6,237.2c0,0-8.8-61.9,43.7-44.1c52.3,17.8,97,27.1,141.5,11.9c2.5-0.9,4.6-2.5,6.9-3.5
				c74.8-32.9-18.9-159.7,72.3-144.4c3.7,0.6,7.7,1.7,11.9,2.8C299.9,88.8,360.9,32.7,276-102.9"/>
			<path class="st2" d="M-81.4,237.8c0,0-8.8-62.3,44.4-43.7c53,18.6,98,28.4,142.2,12.9c2.5-0.9,4.6-2.5,6.9-3.5
				c74-33.5-19-161.2,71.8-145.8c3.7,0.6,7.7,1.7,11.9,2.9C301.2,89.7,362.4,34,276.1-103"/>
			<path class="st2" d="M-81.1,238.3c0,0-8.8-62.7,45.1-43.3c53.7,19.4,99,29.8,143,14c2.5-0.9,4.6-2.5,6.9-3.6
				c73.3-34.1-19.2-162.7,71.3-147.2c3.7,0.6,7.7,1.7,12,2.9c105.2,29.4,166.7-25.8,79.1-164.2"/>
			<path class="st2" d="M-80.8,238.9c0,0-8.8-63.1,45.8-42.9c54.4,20.2,100,31.1,143.8,15c2.5-0.9,4.6-2.6,6.9-3.7
				c72.5-34.6-19.3-164.2,70.8-148.6c3.7,0.6,7.7,1.7,12,2.9c105.2,29.7,166.9-25.1,78-164.9"/>
			<path class="st2" d="M-80.6,239.5c0,0-8.8-63.5,46.5-42.5c55.1,21,101.1,32.5,144.5,16.1c2.5-1,4.7-2.6,7-3.7
				c71.7-35.2-19.5-165.6,70.3-150c3.8,0.7,7.7,1.7,12.1,3c105.2,30.1,167.2-24.4,76.8-165.6"/>
			<path class="st2" d="M-80.3,240c0,0-8.8-63.9,47.2-42.1c55.8,21.8,102.1,33.8,145.3,17.2c2.5-1,4.7-2.7,7-3.8
				c71-35.8-19.7-167.1,69.8-151.4c3.8,0.7,7.8,1.7,12.1,3c105.1,30.4,167.4-23.6,75.7-166.2"/>
			<path class="st2" d="M-80,240.6c0,0-8.8-64.4,47.8-41.8c56.5,22.5,103.1,35.2,146.1,18.2c2.6-1,4.7-2.7,7-3.9
				c70.2-36.3-19.8-168.6,69.3-152.8c3.8,0.7,7.8,1.8,12.1,3c105.1,30.7,167.6-22.9,74.6-166.9"/>
			<path class="st2" d="M-79.8,241.2c0,0-8.8-64.8,48.5-41.4c57.2,23.3,104.1,36.5,146.8,19.3c2.6-1,4.7-2.7,7-4
				c69.5-36.9-20-170.1,68.8-154.2c3.8,0.7,7.8,1.8,12.2,3.1C308.7,95,371.4,41.8,277-103.6"/>
			<path class="st2" d="M-79.5,241.7c0,0-8.8-65.2,49.2-41c57.9,24.1,105.1,37.8,147.6,20.3c2.6-1.1,4.7-2.8,7-4
				c68.7-37.5-20.1-171.5,68.3-155.6c3.8,0.7,7.8,1.8,12.2,3.1c105.1,31.3,168.1-21.5,72.4-168.2"/>
			<path class="st2" d="M-79.2,242.3c0,0-8.8-65.6,49.9-40.6c58.6,24.9,106.2,39.2,148.4,21.4c2.6-1.1,4.7-2.8,7-4.1
				c68-38-20.3-173,67.8-157c3.8,0.7,7.8,1.8,12.2,3.1c105.1,31.7,168.3-20.7,71.2-168.9"/>
			<path class="st2" d="M-79,242.9c0,0-8.8-66,50.6-40.2c59.3,25.7,107.2,40.5,149.1,22.5c2.6-1.1,4.7-2.9,7-4.2
				c67.3-38.5-20.4-174.5,67.3-158.4c3.8,0.7,7.9,1.8,12.3,3.2c105,32,168.6-20,70.1-169.6"/>
			<path class="st2" d="M-78.7,243.4c0,0-8.9-66.4,51.3-39.8c60,26.5,108.2,41.8,149.9,23.5c2.6-1.1,4.7-2.9,7-4.2
				c66.5-39.1-20.6-176,66.8-159.8c3.8,0.7,7.9,1.8,12.3,3.2c105,32.3,168.8-19.3,69-170.2"/>
			<path class="st2" d="M-78.4,244c0,0-8.9-66.8,52-39.5c60.7,27.3,109.2,43.2,150.7,24.6c2.6-1.2,4.7-2.9,7-4.3
				c65.8-39.6-20.7-177.4,66.3-161.2c3.8,0.7,7.9,1.9,12.4,3.2c105,32.6,169-18.5,67.9-170.9"/>
			<path class="st2" d="M-78.2,244.6c0,0-8.9-67.2,52.6-39.1c61.4,28.1,110.2,44.5,151.4,25.7c2.6-1.2,4.7-3,7-4.4
				c65.1-40.2-20.9-178.9,65.8-162.6c3.8,0.7,7.9,1.9,12.4,3.3c105,32.9,169.3-17.8,66.8-171.6"/>
			<path class="st2" d="M-77.9,245.1c0,0-8.9-67.6,53.3-38.7c62.1,28.9,111.2,45.8,152.2,26.7c2.6-1.2,4.8-3,7.1-4.5
				c64.4-40.7-21-180.4,65.3-164c3.8,0.7,7.9,1.9,12.4,3.3c105,33.2,169.5-17.1,65.7-172.2"/>
			<path class="st2" d="M-77.6,245.7c0,0-8.9-68,54-38.3c62.8,29.7,112.2,47.1,153,27.8c2.6-1.2,4.8-3,7.1-4.5
				c63.8-41.2-21.2-181.9,64.8-165.4c3.8,0.7,8,1.9,12.5,3.3c104.9,33.5,169.7-16.3,64.5-172.9"/>
			<path class="st2" d="M-77.4,246.3c0,0-8.9-68.5,54.7-37.9c63.5,30.5,113.2,48.5,153.7,28.8c2.6-1.3,4.8-3.1,7.1-4.6
				c63.1-41.8-21.4-183.3,64.3-166.8c3.9,0.7,8,1.9,12.5,3.4c104.9,33.8,170-15.6,63.4-173.6"/>
			<path class="st2" d="M-77.1,246.8c0,0-8.9-68.9,55.4-37.5c64.2,31.3,114.2,49.8,154.5,29.9c2.6-1.3,4.8-3.1,7.1-4.7
				c62.4-42.3-21.5-184.8,63.8-168.2c3.9,0.7,8,1.9,12.5,3.4c104.9,34.1,170.2-14.9,62.3-174.2"/>
			<path class="st2" d="M-76.8,247.4c0,0-8.9-69.3,56.1-37.2c64.9,32.1,115.2,51.1,155.3,31c2.6-1.3,4.8-3.2,7.1-4.7
				c61.8-42.8-21.7-186.3,63.3-169.6c3.9,0.8,8,2,12.6,3.5c104.9,34.4,170.4-14.1,61.2-174.9"/>
			<path class="st2" d="M-76.6,248c0,0-8.9-69.7,56.8-36.8c65.6,32.9,116.2,52.4,156,32c2.6-1.3,4.8-3.2,7.1-4.8
				c61.1-43.4-21.8-187.7,62.8-171c3.9,0.8,8.1,2,12.6,3.5c104.9,34.8,170.7-13.4,60.1-175.6"/>
			<path class="st2" d="M-76.3,248.5c0,0-8.9-70.1,57.4-36.4c66.3,33.7,117.2,53.8,156.8,33.1c2.6-1.4,4.8-3.2,7.1-4.9
				c60.5-43.9-22-189.2,62.3-172.4c3.9,0.8,8.1,2,12.7,3.5c104.9,35.1,170.9-12.7,58.9-176.3"/>
			<path class="st2" d="M-76,249.1c0,0-8.9-70.6,58.1-36c67,34.3,118.2,55.1,157.6,34.1c2.6-1.4,4.9-3.3,7.1-5
				c59.8-44.4-22.1-190.7,61.8-173.8c3.9,0.8,8.1,2,12.7,3.6C326.2,107.3,392.5,60,279.1-105"/>
			<path class="st2" d="M-75.7,249.7c0,0-8.9-71,58.8-35.6c67.7,35.1,119.2,56.4,158.3,35.2c2.6-1.4,4.9-3.3,7.1-5
				c59.2-45-22.3-192.1,61.3-175.3c3.9,0.8,8.1,2,12.7,3.6c104.8,35.7,171.4-11.2,56.7-177.6"/>
			<path class="st2" d="M-75.5,250.2c0,0-8.9-71.4,59.5-35.2c68.4,35.9,120.1,57.7,159.1,36.3c2.6-1.5,4.9-3.3,7.2-5.1
				c58.6-45.5-22.4-193.6,60.8-176.7c3.9,0.8,8.1,2,12.8,3.6c104.8,36,171.6-10.5,55.6-178.3"/>
			<path class="st2" d="M-75.2,250.8c0,0-8.9-71.8,60.2-34.9c69.1,36.7,121.1,59.1,159.9,37.3c2.6-1.5,4.9-3.4,7.2-5.2
				C210,202,129.4,53,212.3,70c3.9,0.8,8.2,2.1,12.8,3.7c104.8,36.3,171.8-9.7,54.5-178.9"/>
			<path class="st2" d="M-74.9,251.3c0,0-8.9-72.2,60.9-34.5c69.8,37.5,122.1,60.4,160.6,38.4c2.6-1.5,4.9-3.4,7.2-5.2
				c57.4-46.6-22.8-196.5,59.8-179.5c3.9,0.8,8.2,2.1,12.8,3.7c104.8,36.6,172.1-9,53.3-179.6"/>
			<path class="st2" d="M-74.7,251.9c0,0-8.9-72.6,61.6-34.1c70.5,38.3,123.1,61.7,161.4,39.4c2.6-1.5,4.9-3.4,7.2-5.3
				c56.8-47.1-22.9-198,59.3-180.9c3.9,0.8,8.2,2.1,12.9,3.7c104.8,36.9,172.3-8.3,52.2-180.3"/>
			<path class="st2" d="M-74.4,252.5c0,0-8.9-73,62.2-33.7c71.2,39.1,124.1,63,162.2,40.5c2.6-1.6,5-3.5,7.2-5.4
				c56.2-47.7-23.1-199.5,58.8-182.3c3.9,0.8,8.2,2.1,12.9,3.8c104.8,37.2,172.5-7.5,51.1-180.9"/>
			<path class="st2" d="M-74.1,253c0,0-8.9-73.4,62.9-33.3c71.9,40,125,64.3,162.9,41.6c2.7-1.6,5-3.5,7.2-5.5
				c55.6-48.2-23.2-200.9,58.3-183.7c3.9,0.8,8.2,2.1,13,3.8c104.8,37.5,172.8-6.8,50-181.6"/>
			<path class="st2" d="M-73.9,253.6c0,0-9-73.8,63.6-32.9c72.6,40.8,126,65.6,163.7,42.6c2.7-1.6,5-3.6,7.2-5.5
				c55.1-48.8-23.4-202.4,57.8-185.1c4,0.8,8.3,2.1,13,3.8c104.8,37.8,173-6.1,48.9-182.3"/>
			<path class="st2" d="M-73.6,254.2c0,0-9-74.2,64.3-32.6c73.3,41.6,127,67,164.5,43.7c2.7-1.6,5-3.6,7.2-5.6
				c54.5-49.3-23.6-203.7,57.3-186.5c4,0.9,8.3,2.1,13,3.9c104.8,38.1,173.2-5.4,47.8-182.9"/>
			<path class="st2" d="M-73.3,254.7c0,0-9-74.6,65-32.2c74,42.4,127.9,68.3,165.2,44.7c2.7-1.7,5-3.6,7.2-5.7
				c54-49.9-23.7-205.2,56.8-187.9c4,0.9,8.3,2.2,13.1,3.9c104.8,38.2,173.5-4.6,46.6-183.6"/>
			<path class="st2" d="M-73.1,255.3c0,0-9-75,65.7-31.8c74.7,43.2,128.9,69.6,166,45.8c2.7-1.7,5-3.7,7.2-5.7
				c53.4-50.4-23.9-206.7,56.3-189.3c4,0.9,8.3,2.2,13.1,3.9C340.1,116.8,409,74.3,280.8-106"/>
			<path class="st2" d="M-72.8,255.9c0,0-9-75.4,66.4-31.4c75.4,44,129.8,70.9,166.8,46.9c2.7-1.7,5.1-3.7,7.3-5.8
				c52.9-51-24-208.2,55.8-190.7c4,0.9,8.4,2.2,13.1,4c104.8,38.9,173.9-3.2,44.4-184.9"/>
			<path class="st2" d="M-72.5,256.4c0,0-9-75.8,67-31s130.8,72.2,167.5,47.9c69.5-46-28.9-233.2,75.8-194s174.2-2.4,43.3-185.6"/>
		</g>
		<g class="st1">
			<path class="st3" d="M406.5,587.2c0,0-64.5-201.5,94.3-182.6c158.8,18.9,54.4-140.3,207.7-181.8c166.2-45,228.8,95.8,228.8,95.8"
				/>
			<path class="st3" d="M408.5,586.9c0,0-64.2-199.4,93.6-181c14.1,1.7,26.1,1.9,36.4,1c104.7-9.4,32.9-142.8,170.4-180.2
				c163.6-44.5,225.8,93.4,227.1,94.6"/>
			<path class="st3" d="M410.6,586.6c0,0-63.9-197.4,92.8-179.4c13.9,1.6,25.8,1.9,36.1,1c104-9.1,34.3-140.6,169.8-177.7
				c161.1-44,222.7,91.1,225.4,93.3"/>
			<path class="st3" d="M412.6,586.3c0,0-63.7-195.4,92.1-177.8c13.8,1.6,25.6,1.8,35.8,1c103.3-8.8,35.7-138.4,169.2-175.1
				c158.5-43.5,219.6,88.7,223.7,92.1"/>
			<path class="st3" d="M414.7,585.9c0,0-63.4-193.4,91.3-176.3c13.6,1.5,25.3,1.8,35.5,1c102.6-8.5,37.1-136.2,168.7-172.6
				c155.9-43,216.5,86.3,221.9,90.9"/>
			<path class="st3" d="M416.7,585.6c0,0-63.1-191.4,90.6-174.7c13.5,1.5,25.1,1.8,35.2,1c101.9-8.2,38.6-134,168.1-170
				c153.3-42.5,213.4,84,220.2,89.7"/>
			<path class="st3" d="M418.8,585.3c0,0-62.9-189.4,89.8-173.1c13.3,1.5,24.8,1.7,34.9,0.9c101.2-8,40-131.7,167.5-167.5
				c150.8-42,210.4,81.6,218.5,88.4"/>
			<path class="st3" d="M420.8,585c0,0-62.6-187.7,89.1-171.5c13.2,1.4,24.6,1.7,34.6,0.9c100.5-7.7,41.4-129.5,166.9-165
				c148.2-41.5,207.3,79.3,216.8,87.2"/>
			<path class="st3" d="M422.9,584.7c0,0-62.3-185.8,88.3-169.9c13,1.4,24.3,1.6,34.3,0.9c99.8-7.4,42.9-127.3,166.4-162.4
				c145.6-41,204.2,76.9,215.1,86"/>
			<path class="st3" d="M424.9,584.4c0,0-62-183.8,87.6-168.4c12.9,1.3,24.1,1.6,34,0.9c99.1-7.1,44.3-125.1,165.8-159.9
				c143-40.5,201.1,74.6,213.3,84.8"/>
			<path class="st3" d="M427,584.1c0,0-61.8-181.8,86.8-166.8c12.7,1.3,23.8,1.6,33.7,0.9c98.4-6.8,45.7-122.9,165.2-157.3
				c140.5-40,198.1,72.2,211.6,83.5"/>
			<path class="st3" d="M429,583.8c0,0-61.5-179.9,86.1-165.2c12.6,1.2,23.6,1.5,33.4,0.9c97.7-6.5,47.2-120.7,164.6-154.8
				c137.9-39.5,195,69.8,209.9,82.3"/>
			<path class="st3" d="M431.1,583.5c0,0-61.2-177.9,85.3-163.6c12.4,1.2,23.3,1.5,33.1,0.9c97-6.2,48.5-118.7,164.1-152.2
				c135.2-39.2,191.9,67.5,208.2,81.1"/>
			<path class="st3" d="M433.1,583.2c0,0-61-175.9,84.6-162c12.3,1.2,23.1,1.5,32.8,0.9c96.3-5.9,49.9-116.5,163.5-149.7
				c132.7-38.8,188.8,65.1,206.4,79.9"/>
			<path class="st3" d="M435.1,582.9c0,0-60.7-173.9,83.8-160.5c12.1,1.1,22.8,1.4,32.5,0.9c95.5-5.6,51.4-114.3,162.9-147.1
				c130.1-38.3,185.7,62.8,204.7,78.6"/>
			<path class="st3" d="M437.2,582.6c0,0-60.4-172,83-158.9c12,1.1,22.6,1.4,32.2,0.9c94.8-5.3,52.8-112.1,162.3-144.6
				c127.5-37.8,182.7,60.4,203,77.4"/>
			<path class="st3" d="M439.2,582.3c0,0-60.1-170,82.3-157.3c11.8,1.1,22.3,1.3,31.9,0.9c94.1-5,54.2-109.9,161.8-142
				c124.9-37.3,179.6,58.1,201.3,76.2"/>
			<path class="st3" d="M441.3,582c0,0-59.9-168,81.5-155.7c11.7,1,22.1,1.3,31.6,0.9c93.4-4.7,55.6-107.7,161.2-139.5
				c122.3-36.8,176.5,55.7,199.6,75"/>
			<path class="st3" d="M443.3,581.7c0,0-59.6-166,80.8-154.2c11.5,1,21.8,1.3,31.3,0.8c92.7-4.5,57.1-105.5,160.6-136.9
				c119.7-36.4,173.4,53.3,197.8,73.8"/>
			<path class="st3" d="M445.4,581.4c0,0-59.3-164.1,80-152.6c11.3,0.9,21.6,1.2,31,0.8c92-4,58.5-103.3,160-134.4
				c117.2-35.9,170.4,51,196.1,72.5"/>
			<path class="st3" d="M447.4,581.1c0,0-59.1-162.1,79.3-151c11.2,0.9,21.3,1.2,30.7,0.8c91.3-3.7,59.9-101.1,159.5-131.9
				c114.6-35.4,167.3,48.6,194.4,71.3"/>
			<path class="st3" d="M449.5,580.8c0,0-58.8-160.1,78.5-149.4c11,0.9,21.1,1.2,30.3,0.8c90.6-3.4,61.3-98.9,158.9-129.3
				c112-34.9,164.2,46.3,192.7,70.1"/>
			<path class="st3" d="M451.5,580.5c0,0-58.5-158.1,77.8-147.8c10.9,0.8,20.8,1.1,30,0.8c89.9-3.1,62.8-96.7,158.3-126.8
				c109.4-34.4,161.1,43.9,190.9,68.9"/>
			<path class="st3" d="M453.6,580.2c0,0-58.3-156.1,77-146.3c10.7,0.8,20.6,1.1,29.7,0.8c89.2-2.8,64.2-94.5,157.8-124.2
				c106.8-33.9,158,41.5,189.2,67.6"/>
			<path class="st3" d="M455.6,579.9c0,0-58-154.1,76.3-144.7c10.6,0.7,20.3,1.1,29.4,0.8c88.5-2.5,65.6-92.3,157.2-121.7
				c104.3-33.4,155,39.2,187.5,66.4"/>
			<path class="st3" d="M457.7,579.5c0,0-57.7-152.1,75.5-143.1c10.4,0.7,20.1,1,29.1,0.8c87.8-2.2,67-90.1,156.6-119.1
				c101.7-32.9,151.9,36.8,185.8,65.2"/>
			<path class="st3" d="M459.7,579.2c0,0-57.5-150.1,74.8-141.5c10.3,0.7,19.8,1,28.8,0.8c87.1-1.9,68.5-87.9,156-116.6
				c99.1-32.5,148.8,34.5,184,64"/>
			<path class="st3" d="M461.8,578.9c0,0-57.2-148.1,74-139.9c10.1,0.6,19.6,0.9,28.5,0.8c86.4-1.6,69.9-85.7,155.5-114
				c96.5-32,145.7,32.1,182.3,62.7"/>
			<path class="st3" d="M463.8,578.6c0,0-56.9-146.1,73.3-138.4c10,0.6,19.3,0.9,28.2,0.8c85.7-1.3,71.3-83.5,154.9-111.5
				c94-31.5,142.7,29.8,180.6,61.5"/>
			<path class="st3" d="M465.9,578.3c0,0-56.7-144.1,72.5-136.8c9.8,0.6,19.1,0.9,27.9,0.8c85-1,72.8-81.3,154.3-108.9
				c91.4-31,139.6,27.4,178.9,60.3"/>
			<path class="st3" d="M467.9,578c0,0-56.4-142.1,71.8-135.2c9.7,0.5,18.8,0.8,27.6,0.7c84.2-0.8,74.2-79.1,153.7-106.4
				c88.8-30.5,136.5,25,177.2,59.1"/>
			<path class="st3" d="M469.9,577.7c0,0-56.1-140.1,71-133.6c9.5,0.5,18.6,0.8,27.3,0.7c83.5-0.5,75.6-76.9,153.2-103.9
				c86.2-30,133.4,22.7,175.4,57.8"/>
			<path class="st3" d="M472,577.4c0,0-55.9-138.1,70.3-132.1c9.4,0.5,18.3,0.8,27,0.7c82.8-0.6,77-74.7,152.6-101.3
				c83.6-29.5,130.3,20.3,173.7,56.6"/>
			<path class="st3" d="M474,577.1c0,0-55.6-136.1,69.5-130.5c9.2,0.4,18.1,0.7,26.7,0.7c82.1-0.3,78.5-72.5,152-98.8
				c81.1-29,127.3,18,172,55.4"/>
			<path class="st3" d="M476.1,576.8c0,0-55.4-134.1,68.8-128.9c9.1,0.4,17.8,0.7,26.4,0.7c81.4,0.4,79.9-70.2,151.4-96.2
				c78.5-28.5,124.2,15.6,170.3,54.2"/>
			<path class="st3" d="M478.1,576.5c0,0-55.1-132.1,68-127.3c8.9,0.3,17.6,0.6,26.1,0.7c80.7,0.7,81.3-68,150.9-93.7
				c75.9-28,121.1,13.2,168.5,53"/>
			<path class="st3" d="M480.2,576.2c0,0-54.8-130.1,67.2-125.7c8.8,0.3,17.3,0.6,25.8,0.7c80,1,82.7-65.8,150.3-91.1
				c73.3-27.5,118,10.9,166.8,51.7"/>
			<path class="st3" d="M482.2,575.9c0,0-54.6-128,66.5-124.2c8.6,0.3,17.1,0.6,25.5,0.7c79.3,1.3,84.2-63.6,149.7-88.6
				c70.8-27,114.9,8.5,165.1,50.5"/>
			<path class="st3" d="M484.3,575.6c0,0-54.3-126,65.7-122.6c8.5,0.2,16.8,0.5,25.2,0.7c78.6,1.5,85.6-61.4,149.1-86
				c68.2-26.5,111.9,6.2,163.4,49.3"/>
			<path class="st3" d="M486.3,575.3c0,0-54-124,65-121c8.3,0.2,16.6,0.5,24.9,0.7c77.9,1.8,87-59.1,148.6-83.5
				c65.6-26,108.8,3.8,161.7,48.1"/>
			<path class="st3" d="M488.4,575c0,0-53.8-121.9,64.2-119.4c8.2,0.2,16.3,0.4,24.6,0.7c77.2,2,88.5-56.9,148-80.9
				c63-25.4,105.7,1.5,159.9,46.8"/>
			<path class="st3" d="M490.4,574.7c0,0-53.5-119.9,63.5-117.8c8,0.1,16.1,0.4,24.3,0.7c76.5,2.2,89.9-54.7,147.4-78.4
				c60.5-24.9,102.6-0.9,158.2,45.6"/>
			<path class="st3" d="M492.5,574.4c0,0-53.2-117.8,62.7-116.3c7.8,0.1,15.8,0.3,24,0.6c75.8,2.5,91.3-52.5,146.8-75.8
				c57.9-24.4,99.6-3.3,156.5,44.4"/>
			<path class="st3" d="M494.5,574.1c0,0-53-115.8,62-114.7c7.7,0.1,15.5,0.3,23.7,0.6c75.1,2.8,92.8-50.2,146.3-73.3
				c55.3-23.9,96.5-5.6,154.8,43.2"/>
			<path class="st3" d="M496.6,573.8c0,0-52.7-113.7,61.2-113.1c7.5,0,15.3,0.3,23.4,0.6c74.3,3.1,94.2-48,145.7-70.8
				c52.8-23.3,93.4-8,153,41.9"/>
			<path class="st3" d="M498.6,573.4c0,0-52.4-112.7,60.5-111.5c7.4,0.1,15,0.2,23.1,0.6c73.6,3.4,95.6-45.7,145.1-68.2
				c50.2-22.8,90.3-10.3,151.3,40.7"/>
			<path class="st3" d="M500.7,573.1c0,0-52.2-110.5,59.7-110c7.2,0,14.8,0.2,22.7,0.6c72.9,3.7,97.1-43.5,144.5-65.7
				c47.7-22.3,87.2-12.7,149.6,39.5"/>
			<path class="st3" d="M502.7,572.8c0,0-51.9-107.5,59-108.4c7.1-0.1,14.5,0.1,22.4,0.6c72.2,4,98.5-41.2,144-63.1
				c45.1-21.7,84.2-15,147.9,38.3"/>
			<path class="st3" d="M504.7,572.5c0,0-51.6-105.4,58.2-106.8c6.9-0.1,14.3,0.1,22.1,0.6c71.5,4.3,100-39,143.4-60.6
				c42.5-21.2,81.1-17.4,146.1,37"/>
			<path class="st3" d="M506.8,572.2c0,0-51.4-103.1,57.5-105.2c6.8-0.1,14,0.1,21.8,0.6c70.8,4.6,101.4-36.7,142.8-58
				c40-20.6,78-19.8,144.4,35.8"/>
			<path class="st3" d="M508.8,571.9c0,0-51.1-101.1,56.7-103.6c6.6-0.1,13.8,0,21.5,0.6c70.1,4.9,102.9-34.3,142.2-55.5
				c37.5-20,74.9-22.1,142.7,34.6"/>
			<path class="st3" d="M510.9,571.6c0,0-57.2-111.5,77.2-101.5c134.4,10,139.7-139.2,282.6-19.6"/>
		</g>
		<g class="st1">
			
				<image style="overflow:visible;opacity:0.15;" width="756" height="756" xlink:href="36361505.png"  transform="matrix(0.24 0 0 0.24 -75.9776 427.1574)">
			</image>
			<g>
				
					<ellipse transform="matrix(0.1764 -0.9843 0.9843 0.1764 -497.426 441.0196)" class="st4" cx="14.8" cy="517.8" rx="61.3" ry="61.3"/>
			</g>
		</g>
		<g class="st1">
			
				<image style="overflow:visible;opacity:0.15;" width="756" height="756" xlink:href="3636150B.png"  transform="matrix(0.24 0 0 0.24 669.2224 -105.1626)">
			</image>
			<g>
				<circle class="st4" cx="759.9" cy="-14.5" r="61.3"/>
			</g>
		</g>
		<g class="st1">
			<g>
				<path class="st5" d="M689.8,21.3c0,0.7-0.6,1.3-1.3,1.3s-1.3-0.6-1.3-1.3c0-0.7,0.6-1.3,1.3-1.3S689.8,20.6,689.8,21.3z"/>
				<path class="st5" d="M697.9,21.3c0,0.7-0.6,1.3-1.3,1.3s-1.3-0.6-1.3-1.3c0-0.7,0.6-1.3,1.3-1.3S697.9,20.6,697.9,21.3z"/>
				<path class="st5" d="M706.1,21.3c0,0.7-0.6,1.3-1.3,1.3s-1.3-0.6-1.3-1.3c0-0.7,0.6-1.3,1.3-1.3S706.1,20.6,706.1,21.3z"/>
				<path class="st5" d="M714.2,21.3c0,0.7-0.6,1.3-1.3,1.3s-1.3-0.6-1.3-1.3c0-0.7,0.6-1.3,1.3-1.3S714.2,20.6,714.2,21.3z"/>
				<path class="st5" d="M722.3,21.3c0,0.7-0.6,1.3-1.3,1.3s-1.3-0.6-1.3-1.3c0-0.7,0.6-1.3,1.3-1.3S722.3,20.6,722.3,21.3z"/>
				<path class="st5" d="M730.4,21.3c0,0.7-0.6,1.3-1.3,1.3s-1.3-0.6-1.3-1.3c0-0.7,0.6-1.3,1.3-1.3S730.4,20.6,730.4,21.3z"/>
			</g>
			<g>
				<path class="st5" d="M689.8,29.1c0,0.7-0.6,1.3-1.3,1.3s-1.3-0.6-1.3-1.3s0.6-1.3,1.3-1.3S689.8,28.3,689.8,29.1z"/>
				<path class="st5" d="M697.9,29.1c0,0.7-0.6,1.3-1.3,1.3s-1.3-0.6-1.3-1.3s0.6-1.3,1.3-1.3S697.9,28.3,697.9,29.1z"/>
				<path class="st5" d="M706.1,29.1c0,0.7-0.6,1.3-1.3,1.3s-1.3-0.6-1.3-1.3s0.6-1.3,1.3-1.3S706.1,28.3,706.1,29.1z"/>
				<path class="st5" d="M714.2,29.1c0,0.7-0.6,1.3-1.3,1.3s-1.3-0.6-1.3-1.3s0.6-1.3,1.3-1.3S714.2,28.3,714.2,29.1z"/>
				<path class="st5" d="M722.3,29.1c0,0.7-0.6,1.3-1.3,1.3s-1.3-0.6-1.3-1.3s0.6-1.3,1.3-1.3S722.3,28.3,722.3,29.1z"/>
				<path class="st5" d="M730.4,29.1c0,0.7-0.6,1.3-1.3,1.3s-1.3-0.6-1.3-1.3s0.6-1.3,1.3-1.3S730.4,28.3,730.4,29.1z"/>
			</g>
			<g>
				<path class="st5" d="M689.8,36.8c0,0.7-0.6,1.3-1.3,1.3s-1.3-0.6-1.3-1.3c0-0.7,0.6-1.3,1.3-1.3S689.8,36,689.8,36.8z"/>
				<path class="st5" d="M697.9,36.8c0,0.7-0.6,1.3-1.3,1.3s-1.3-0.6-1.3-1.3c0-0.7,0.6-1.3,1.3-1.3S697.9,36,697.9,36.8z"/>
				<path class="st5" d="M706.1,36.8c0,0.7-0.6,1.3-1.3,1.3s-1.3-0.6-1.3-1.3c0-0.7,0.6-1.3,1.3-1.3S706.1,36,706.1,36.8z"/>
				<path class="st5" d="M714.2,36.8c0,0.7-0.6,1.3-1.3,1.3s-1.3-0.6-1.3-1.3c0-0.7,0.6-1.3,1.3-1.3S714.2,36,714.2,36.8z"/>
				<path class="st5" d="M722.3,36.8c0,0.7-0.6,1.3-1.3,1.3s-1.3-0.6-1.3-1.3c0-0.7,0.6-1.3,1.3-1.3S722.3,36,722.3,36.8z"/>
				<path class="st5" d="M730.4,36.8c0,0.7-0.6,1.3-1.3,1.3s-1.3-0.6-1.3-1.3c0-0.7,0.6-1.3,1.3-1.3S730.4,36,730.4,36.8z"/>
			</g>
		</g>
		<g class="st1">
			<g>
				<path class="st5" d="M196.2,425.6c0,0.7-0.6,1.3-1.3,1.3c-0.7,0-1.3-0.6-1.3-1.3c0-0.7,0.6-1.3,1.3-1.3
					C195.6,424.2,196.2,424.8,196.2,425.6z"/>
				<path class="st5" d="M204.3,425.6c0,0.7-0.6,1.3-1.3,1.3c-0.7,0-1.3-0.6-1.3-1.3c0-0.7,0.6-1.3,1.3-1.3
					C203.7,424.2,204.3,424.8,204.3,425.6z"/>
				<path class="st5" d="M212.4,425.6c0,0.7-0.6,1.3-1.3,1.3c-0.7,0-1.3-0.6-1.3-1.3c0-0.7,0.6-1.3,1.3-1.3
					C211.8,424.2,212.4,424.8,212.4,425.6z"/>
				<path class="st5" d="M220.5,425.6c0,0.7-0.6,1.3-1.3,1.3c-0.7,0-1.3-0.6-1.3-1.3c0-0.7,0.6-1.3,1.3-1.3
					C220,424.2,220.5,424.8,220.5,425.6z"/>
				<path class="st5" d="M228.7,425.6c0,0.7-0.6,1.3-1.3,1.3c-0.7,0-1.3-0.6-1.3-1.3c0-0.7,0.6-1.3,1.3-1.3
					C228.1,424.2,228.7,424.8,228.7,425.6z"/>
				<path class="st5" d="M236.8,425.6c0,0.7-0.6,1.3-1.3,1.3c-0.7,0-1.3-0.6-1.3-1.3c0-0.7,0.6-1.3,1.3-1.3
					C236.2,424.2,236.8,424.8,236.8,425.6z"/>
			</g>
			<g>
				<path class="st5" d="M196.2,433.3c0,0.7-0.6,1.3-1.3,1.3c-0.7,0-1.3-0.6-1.3-1.3c0-0.7,0.6-1.3,1.3-1.3
					C195.6,431.9,196.2,432.5,196.2,433.3z"/>
				<path class="st5" d="M204.3,433.3c0,0.7-0.6,1.3-1.3,1.3c-0.7,0-1.3-0.6-1.3-1.3c0-0.7,0.6-1.3,1.3-1.3
					C203.7,431.9,204.3,432.5,204.3,433.3z"/>
				<path class="st5" d="M212.4,433.3c0,0.7-0.6,1.3-1.3,1.3c-0.7,0-1.3-0.6-1.3-1.3c0-0.7,0.6-1.3,1.3-1.3
					C211.8,431.9,212.4,432.5,212.4,433.3z"/>
				<path class="st5" d="M220.5,433.3c0,0.7-0.6,1.3-1.3,1.3c-0.7,0-1.3-0.6-1.3-1.3c0-0.7,0.6-1.3,1.3-1.3
					C220,431.9,220.5,432.5,220.5,433.3z"/>
				<path class="st5" d="M228.7,433.3c0,0.7-0.6,1.3-1.3,1.3c-0.7,0-1.3-0.6-1.3-1.3c0-0.7,0.6-1.3,1.3-1.3
					C228.1,431.9,228.7,432.5,228.7,433.3z"/>
				<path class="st5" d="M236.8,433.3c0,0.7-0.6,1.3-1.3,1.3c-0.7,0-1.3-0.6-1.3-1.3c0-0.7,0.6-1.3,1.3-1.3
					C236.2,431.9,236.8,432.5,236.8,433.3z"/>
			</g>
			<g>
				<path class="st5" d="M196.2,441c0,0.7-0.6,1.3-1.3,1.3c-0.7,0-1.3-0.6-1.3-1.3c0-0.7,0.6-1.3,1.3-1.3
					C195.6,439.6,196.2,440.2,196.2,441z"/>
				<path class="st5" d="M204.3,441c0,0.7-0.6,1.3-1.3,1.3c-0.7,0-1.3-0.6-1.3-1.3c0-0.7,0.6-1.3,1.3-1.3
					C203.7,439.6,204.3,440.2,204.3,441z"/>
				<path class="st5" d="M212.4,441c0,0.7-0.6,1.3-1.3,1.3c-0.7,0-1.3-0.6-1.3-1.3c0-0.7,0.6-1.3,1.3-1.3
					C211.8,439.6,212.4,440.2,212.4,441z"/>
				<path class="st5" d="M220.5,441c0,0.7-0.6,1.3-1.3,1.3c-0.7,0-1.3-0.6-1.3-1.3c0-0.7,0.6-1.3,1.3-1.3
					C220,439.6,220.5,440.2,220.5,441z"/>
				<path class="st5" d="M228.7,441c0,0.7-0.6,1.3-1.3,1.3c-0.7,0-1.3-0.6-1.3-1.3c0-0.7,0.6-1.3,1.3-1.3
					C228.1,439.6,228.7,440.2,228.7,441z"/>
				<path class="st5" d="M236.8,441c0,0.7-0.6,1.3-1.3,1.3c-0.7,0-1.3-0.6-1.3-1.3c0-0.7,0.6-1.3,1.3-1.3
					C236.2,439.6,236.8,440.2,236.8,441z"/>
			</g>
		</g>
		<g class="st1">
			<g>
				<path class="st5" d="M-19,20c0,0.7-0.6,1.3-1.3,1.3s-1.3-0.6-1.3-1.3c0-0.7,0.6-1.3,1.3-1.3S-19,19.3-19,20z"/>
				<path class="st5" d="M-10.9,20c0,0.7-0.6,1.3-1.3,1.3s-1.3-0.6-1.3-1.3c0-0.7,0.6-1.3,1.3-1.3S-10.9,19.3-10.9,20z"/>
				<path class="st5" d="M-2.7,20c0,0.7-0.6,1.3-1.3,1.3s-1.3-0.6-1.3-1.3c0-0.7,0.6-1.3,1.3-1.3S-2.7,19.3-2.7,20z"/>
				<path class="st5" d="M5.4,20c0,0.7-0.6,1.3-1.3,1.3S2.7,20.7,2.7,20c0-0.7,0.6-1.3,1.3-1.3S5.4,19.3,5.4,20z"/>
				<path class="st5" d="M13.5,20c0,0.7-0.6,1.3-1.3,1.3s-1.3-0.6-1.3-1.3c0-0.7,0.6-1.3,1.3-1.3S13.5,19.3,13.5,20z"/>
				<path class="st5" d="M21.6,20c0,0.7-0.6,1.3-1.3,1.3S19,20.7,19,20c0-0.7,0.6-1.3,1.3-1.3S21.6,19.3,21.6,20z"/>
			</g>
			<g>
				<path class="st5" d="M-19,27.7c0,0.7-0.6,1.3-1.3,1.3s-1.3-0.6-1.3-1.3c0-0.7,0.6-1.3,1.3-1.3S-19,27-19,27.7z"/>
				<path class="st5" d="M-10.9,27.7c0,0.7-0.6,1.3-1.3,1.3s-1.3-0.6-1.3-1.3c0-0.7,0.6-1.3,1.3-1.3S-10.9,27-10.9,27.7z"/>
				<path class="st5" d="M-2.7,27.7c0,0.7-0.6,1.3-1.3,1.3s-1.3-0.6-1.3-1.3c0-0.7,0.6-1.3,1.3-1.3S-2.7,27-2.7,27.7z"/>
				<path class="st5" d="M5.4,27.7c0,0.7-0.6,1.3-1.3,1.3s-1.3-0.6-1.3-1.3c0-0.7,0.6-1.3,1.3-1.3S5.4,27,5.4,27.7z"/>
				<path class="st5" d="M13.5,27.7c0,0.7-0.6,1.3-1.3,1.3s-1.3-0.6-1.3-1.3c0-0.7,0.6-1.3,1.3-1.3S13.5,27,13.5,27.7z"/>
				<path class="st5" d="M21.6,27.7c0,0.7-0.6,1.3-1.3,1.3S19,28.5,19,27.7c0-0.7,0.6-1.3,1.3-1.3S21.6,27,21.6,27.7z"/>
			</g>
			<g>
				<circle class="st5" cx="-20.3" cy="35.4" r="1.3"/>
				<circle class="st5" cx="-12.2" cy="35.4" r="1.3"/>
				<circle class="st5" cx="-4.1" cy="35.4" r="1.3"/>
				<circle class="st5" cx="4.1" cy="35.4" r="1.3"/>
				<circle class="st5" cx="12.2" cy="35.4" r="1.3"/>
				<circle class="st5" cx="20.3" cy="35.4" r="1.3"/>
			</g>
		</g>
		<g class="st1">
			<g>
				<path class="st6" d="M680.2,465.8c0.7,0,1.3,0.6,1.3,1.3c0,0.7-0.6,1.3-1.3,1.3c-0.7,0-1.3-0.6-1.3-1.3
					C678.8,466.4,679.4,465.8,680.2,465.8z"/>
				<path class="st6" d="M680.2,457.6c0.7,0,1.3,0.6,1.3,1.3c0,0.7-0.6,1.3-1.3,1.3c-0.7,0-1.3-0.6-1.3-1.3
					C678.8,458.2,679.4,457.6,680.2,457.6z"/>
				<path class="st6" d="M680.2,449.5c0.7,0,1.3,0.6,1.3,1.3c0,0.7-0.6,1.3-1.3,1.3c-0.7,0-1.3-0.6-1.3-1.3
					C678.8,450.1,679.4,449.5,680.2,449.5z"/>
				<path class="st6" d="M680.2,441.4c0.7,0,1.3,0.6,1.3,1.3c0,0.7-0.6,1.3-1.3,1.3c-0.7,0-1.3-0.6-1.3-1.3
					C678.8,442,679.4,441.4,680.2,441.4z"/>
				<path class="st6" d="M680.2,433.3c0.7,0,1.3,0.6,1.3,1.3c0,0.7-0.6,1.3-1.3,1.3c-0.7,0-1.3-0.6-1.3-1.3
					C678.8,433.9,679.4,433.3,680.2,433.3z"/>
				<path class="st6" d="M680.2,425.1c0.7,0,1.3,0.6,1.3,1.3c0,0.7-0.6,1.3-1.3,1.3c-0.7,0-1.3-0.6-1.3-1.3
					C678.8,425.7,679.4,425.1,680.2,425.1z"/>
			</g>
			<g>
				<path class="st6" d="M687.9,465.8c0.7,0,1.3,0.6,1.3,1.3c0,0.7-0.6,1.3-1.3,1.3s-1.3-0.6-1.3-1.3
					C686.5,466.4,687.1,465.8,687.9,465.8z"/>
				<path class="st6" d="M687.9,457.6c0.7,0,1.3,0.6,1.3,1.3c0,0.7-0.6,1.3-1.3,1.3s-1.3-0.6-1.3-1.3
					C686.5,458.2,687.1,457.6,687.9,457.6z"/>
				<path class="st6" d="M687.9,449.5c0.7,0,1.3,0.6,1.3,1.3c0,0.7-0.6,1.3-1.3,1.3s-1.3-0.6-1.3-1.3
					C686.5,450.1,687.1,449.5,687.9,449.5z"/>
				<path class="st6" d="M687.9,441.4c0.7,0,1.3,0.6,1.3,1.3c0,0.7-0.6,1.3-1.3,1.3s-1.3-0.6-1.3-1.3
					C686.5,442,687.1,441.4,687.9,441.4z"/>
				<path class="st6" d="M687.9,433.3c0.7,0,1.3,0.6,1.3,1.3c0,0.7-0.6,1.3-1.3,1.3s-1.3-0.6-1.3-1.3
					C686.5,433.9,687.1,433.3,687.9,433.3z"/>
				<path class="st6" d="M687.9,425.1c0.7,0,1.3,0.6,1.3,1.3c0,0.7-0.6,1.3-1.3,1.3s-1.3-0.6-1.3-1.3
					C686.5,425.7,687.1,425.1,687.9,425.1z"/>
			</g>
			<g>
				<path class="st6" d="M695.6,465.8c0.7,0,1.3,0.6,1.3,1.3c0,0.7-0.6,1.3-1.3,1.3c-0.7,0-1.3-0.6-1.3-1.3
					C694.2,466.4,694.8,465.8,695.6,465.8z"/>
				<path class="st6" d="M695.6,457.6c0.7,0,1.3,0.6,1.3,1.3c0,0.7-0.6,1.3-1.3,1.3c-0.7,0-1.3-0.6-1.3-1.3
					C694.2,458.2,694.8,457.6,695.6,457.6z"/>
				<path class="st6" d="M695.6,449.5c0.7,0,1.3,0.6,1.3,1.3c0,0.7-0.6,1.3-1.3,1.3c-0.7,0-1.3-0.6-1.3-1.3
					C694.2,450.1,694.8,449.5,695.6,449.5z"/>
				<path class="st6" d="M695.6,441.4c0.7,0,1.3,0.6,1.3,1.3c0,0.7-0.6,1.3-1.3,1.3c-0.7,0-1.3-0.6-1.3-1.3
					C694.2,442,694.8,441.4,695.6,441.4z"/>
				<path class="st6" d="M695.6,433.3c0.7,0,1.3,0.6,1.3,1.3c0,0.7-0.6,1.3-1.3,1.3c-0.7,0-1.3-0.6-1.3-1.3
					C694.2,433.9,694.8,433.3,695.6,433.3z"/>
				<path class="st6" d="M695.6,425.1c0.7,0,1.3,0.6,1.3,1.3c0,0.7-0.6,1.3-1.3,1.3c-0.7,0-1.3-0.6-1.3-1.3
					C694.2,425.7,694.8,425.1,695.6,425.1z"/>
			</g>
		</g>
		<g class="st1">
			<g>
				<path class="st6" d="M23,479.3c0.7,0,1.3,0.6,1.3,1.3c0,0.7-0.6,1.3-1.3,1.3c-0.7,0-1.3-0.6-1.3-1.3
					C21.6,479.9,22.2,479.3,23,479.3z"/>
				<path class="st6" d="M23,471.2c0.7,0,1.3,0.6,1.3,1.3c0,0.7-0.6,1.3-1.3,1.3c-0.7,0-1.3-0.6-1.3-1.3
					C21.6,471.8,22.2,471.2,23,471.2z"/>
				<path class="st6" d="M23,463c0.7,0,1.3,0.6,1.3,1.3c0,0.7-0.6,1.3-1.3,1.3c-0.7,0-1.3-0.6-1.3-1.3C21.6,463.6,22.2,463,23,463z"
					/>
				<path class="st6" d="M23,454.9c0.7,0,1.3,0.6,1.3,1.3c0,0.7-0.6,1.3-1.3,1.3c-0.7,0-1.3-0.6-1.3-1.3
					C21.6,455.5,22.2,454.9,23,454.9z"/>
				<path class="st6" d="M23,446.8c0.7,0,1.3,0.6,1.3,1.3c0,0.7-0.6,1.3-1.3,1.3c-0.7,0-1.3-0.6-1.3-1.3
					C21.6,447.4,22.2,446.8,23,446.8z"/>
				<path class="st6" d="M23,438.7c0.7,0,1.3,0.6,1.3,1.3c0,0.7-0.6,1.3-1.3,1.3c-0.7,0-1.3-0.6-1.3-1.3
					C21.6,439.3,22.2,438.7,23,438.7z"/>
			</g>
			<g>
				<circle class="st6" cx="30.7" cy="480.6" r="1.3"/>
				<circle class="st6" cx="30.7" cy="472.5" r="1.3"/>
				<circle class="st6" cx="30.7" cy="464.4" r="1.3"/>
				<circle class="st6" cx="30.7" cy="456.2" r="1.3"/>
				<circle class="st6" cx="30.7" cy="448.1" r="1.3"/>
				<circle class="st6" cx="30.7" cy="440" r="1.3"/>
			</g>
			<g>
				<path class="st6" d="M38.4,479.3c0.7,0,1.3,0.6,1.3,1.3c0,0.7-0.6,1.3-1.3,1.3c-0.7,0-1.3-0.6-1.3-1.3
					C37.1,479.9,37.7,479.3,38.4,479.3z"/>
				<path class="st6" d="M38.4,471.2c0.7,0,1.3,0.6,1.3,1.3c0,0.7-0.6,1.3-1.3,1.3c-0.7,0-1.3-0.6-1.3-1.3
					C37.1,471.8,37.7,471.2,38.4,471.2z"/>
				<path class="st6" d="M38.4,463c0.7,0,1.3,0.6,1.3,1.3c0,0.7-0.6,1.3-1.3,1.3c-0.7,0-1.3-0.6-1.3-1.3
					C37.1,463.6,37.7,463,38.4,463z"/>
				<path class="st6" d="M38.4,454.9c0.7,0,1.3,0.6,1.3,1.3c0,0.7-0.6,1.3-1.3,1.3c-0.7,0-1.3-0.6-1.3-1.3
					C37.1,455.5,37.7,454.9,38.4,454.9z"/>
				<path class="st6" d="M38.4,446.8c0.7,0,1.3,0.6,1.3,1.3c0,0.7-0.6,1.3-1.3,1.3c-0.7,0-1.3-0.6-1.3-1.3
					C37.1,447.4,37.7,446.8,38.4,446.8z"/>
				<path class="st6" d="M38.4,438.7c0.7,0,1.3,0.6,1.3,1.3c0,0.7-0.6,1.3-1.3,1.3c-0.7,0-1.3-0.6-1.3-1.3
					C37.1,439.3,37.7,438.7,38.4,438.7z"/>
			</g>
		</g>
		<g class="st1">
			<g>
				<path class="st6" d="M549.3,30.1c0.7,0,1.3,0.6,1.3,1.3s-0.6,1.3-1.3,1.3s-1.3-0.6-1.3-1.3S548.6,30.1,549.3,30.1z"/>
				<path class="st6" d="M549.3,22c0.7,0,1.3,0.6,1.3,1.3s-0.6,1.3-1.3,1.3S548,24,548,23.3S548.6,22,549.3,22z"/>
				<path class="st6" d="M549.3,13.8c0.7,0,1.3,0.6,1.3,1.3c0,0.7-0.6,1.3-1.3,1.3s-1.3-0.6-1.3-1.3C548,14.4,548.6,13.8,549.3,13.8
					z"/>
				<path class="st6" d="M549.3,5.7c0.7,0,1.3,0.6,1.3,1.3s-0.6,1.3-1.3,1.3S548,7.8,548,7.1S548.6,5.7,549.3,5.7z"/>
				<path class="st6" d="M549.3-2.4c0.7,0,1.3,0.6,1.3,1.3s-0.6,1.3-1.3,1.3S548-0.3,548-1.1S548.6-2.4,549.3-2.4z"/>
				<path class="st6" d="M549.3-10.5c0.7,0,1.3,0.6,1.3,1.3c0,0.7-0.6,1.3-1.3,1.3S548-8.5,548-9.2C548-9.9,548.6-10.5,549.3-10.5z"
					/>
			</g>
			<g>
				<circle class="st6" cx="557" cy="31.4" r="1.3"/>
				<circle class="st6" cx="557" cy="23.3" r="1.3"/>
				<circle class="st6" cx="557" cy="15.2" r="1.3"/>
				<circle class="st6" cx="557" cy="7.1" r="1.3"/>
				<circle class="st6" cx="557" cy="-1.1" r="1.3"/>
				<circle class="st6" cx="557" cy="-9.2" r="1.3"/>
			</g>
			<g>
				<path class="st6" d="M564.7,30.1c0.7,0,1.3,0.6,1.3,1.3s-0.6,1.3-1.3,1.3c-0.7,0-1.3-0.6-1.3-1.3S564,30.1,564.7,30.1z"/>
				<path class="st6" d="M564.7,22c0.7,0,1.3,0.6,1.3,1.3s-0.6,1.3-1.3,1.3c-0.7,0-1.3-0.6-1.3-1.3S564,22,564.7,22z"/>
				<path class="st6" d="M564.7,13.8c0.7,0,1.3,0.6,1.3,1.3c0,0.7-0.6,1.3-1.3,1.3c-0.7,0-1.3-0.6-1.3-1.3
					C563.4,14.4,564,13.8,564.7,13.8z"/>
				<path class="st6" d="M564.7,5.7c0.7,0,1.3,0.6,1.3,1.3s-0.6,1.3-1.3,1.3c-0.7,0-1.3-0.6-1.3-1.3S564,5.7,564.7,5.7z"/>
				<path class="st6" d="M564.7-2.4c0.7,0,1.3,0.6,1.3,1.3s-0.6,1.3-1.3,1.3c-0.7,0-1.3-0.6-1.3-1.3S564-2.4,564.7-2.4z"/>
				<path class="st6" d="M564.7-10.5c0.7,0,1.3,0.6,1.3,1.3c0,0.7-0.6,1.3-1.3,1.3c-0.7,0-1.3-0.6-1.3-1.3
					C563.4-9.9,564-10.5,564.7-10.5z"/>
			</g>
		</g>
		<g class="st1">
			<g>
				<path class="st6" d="M775,179.2c0-0.7,0.6-1.3,1.3-1.3s1.3,0.6,1.3,1.3c0,0.7-0.6,1.3-1.3,1.3S775,179.9,775,179.2z"/>
				<path class="st6" d="M766.9,179.2c0-0.7,0.6-1.3,1.3-1.3s1.3,0.6,1.3,1.3c0,0.7-0.6,1.3-1.3,1.3S766.9,179.9,766.9,179.2z"/>
				<path class="st6" d="M758.8,179.2c0-0.7,0.6-1.3,1.3-1.3s1.3,0.6,1.3,1.3c0,0.7-0.6,1.3-1.3,1.3S758.8,179.9,758.8,179.2z"/>
				<path class="st6" d="M750.7,179.2c0-0.7,0.6-1.3,1.3-1.3s1.3,0.6,1.3,1.3c0,0.7-0.6,1.3-1.3,1.3S750.7,179.9,750.7,179.2z"/>
				<path class="st6" d="M742.5,179.2c0-0.7,0.6-1.3,1.3-1.3s1.3,0.6,1.3,1.3c0,0.7-0.6,1.3-1.3,1.3S742.5,179.9,742.5,179.2z"/>
				<path class="st6" d="M734.4,179.2c0-0.7,0.6-1.3,1.3-1.3s1.3,0.6,1.3,1.3c0,0.7-0.6,1.3-1.3,1.3S734.4,179.9,734.4,179.2z"/>
			</g>
			<g>
				<path class="st6" d="M775,171.5c0-0.7,0.6-1.3,1.3-1.3s1.3,0.6,1.3,1.3c0,0.7-0.6,1.3-1.3,1.3S775,172.2,775,171.5z"/>
				<path class="st6" d="M766.9,171.5c0-0.7,0.6-1.3,1.3-1.3s1.3,0.6,1.3,1.3c0,0.7-0.6,1.3-1.3,1.3S766.9,172.2,766.9,171.5z"/>
				<path class="st6" d="M758.8,171.5c0-0.7,0.6-1.3,1.3-1.3s1.3,0.6,1.3,1.3c0,0.7-0.6,1.3-1.3,1.3S758.8,172.2,758.8,171.5z"/>
				<path class="st6" d="M750.7,171.5c0-0.7,0.6-1.3,1.3-1.3s1.3,0.6,1.3,1.3c0,0.7-0.6,1.3-1.3,1.3S750.7,172.2,750.7,171.5z"/>
				<path class="st6" d="M742.5,171.5c0-0.7,0.6-1.3,1.3-1.3s1.3,0.6,1.3,1.3c0,0.7-0.6,1.3-1.3,1.3S742.5,172.2,742.5,171.5z"/>
				<path class="st6" d="M734.4,171.5c0-0.7,0.6-1.3,1.3-1.3s1.3,0.6,1.3,1.3c0,0.7-0.6,1.3-1.3,1.3S734.4,172.2,734.4,171.5z"/>
			</g>
			<g>
				<path class="st6" d="M775,163.8c0-0.7,0.6-1.3,1.3-1.3s1.3,0.6,1.3,1.3c0,0.7-0.6,1.3-1.3,1.3S775,164.5,775,163.8z"/>
				<path class="st6" d="M766.9,163.8c0-0.7,0.6-1.3,1.3-1.3s1.3,0.6,1.3,1.3c0,0.7-0.6,1.3-1.3,1.3S766.9,164.5,766.9,163.8z"/>
				<path class="st6" d="M758.8,163.8c0-0.7,0.6-1.3,1.3-1.3s1.3,0.6,1.3,1.3c0,0.7-0.6,1.3-1.3,1.3S758.8,164.5,758.8,163.8z"/>
				<path class="st6" d="M750.7,163.8c0-0.7,0.6-1.3,1.3-1.3s1.3,0.6,1.3,1.3c0,0.7-0.6,1.3-1.3,1.3S750.7,164.5,750.7,163.8z"/>
				<path class="st6" d="M742.5,163.8c0-0.7,0.6-1.3,1.3-1.3s1.3,0.6,1.3,1.3c0,0.7-0.6,1.3-1.3,1.3S742.5,164.5,742.5,163.8z"/>
				<path class="st6" d="M734.4,163.8c0-0.7,0.6-1.3,1.3-1.3s1.3,0.6,1.3,1.3c0,0.7-0.6,1.3-1.3,1.3S734.4,164.5,734.4,163.8z"/>
			</g>
		</g>
		<g class="st7">
			<rect x="639.2" y="67.6" class="st8" width="2.2" height="2.2"/>
			<rect x="639.2" y="83" class="st8" width="2.2" height="2.2"/>
			<rect x="639.2" y="98.5" class="st8" width="2.2" height="2.2"/>
			<rect x="639.2" y="113.9" class="st8" width="2.2" height="2.2"/>
			<rect x="639.2" y="129.3" class="st8" width="2.2" height="2.2"/>
		</g>
		<g class="st7">
			<rect x="105.2" y="375.7" class="st8" width="2.2" height="2.2"/>
			<rect x="105.2" y="391.2" class="st8" width="2.2" height="2.2"/>
			<rect x="105.2" y="406.6" class="st8" width="2.2" height="2.2"/>
			<rect x="105.2" y="422" class="st8" width="2.2" height="2.2"/>
			<rect x="105.2" y="437.5" class="st8" width="2.2" height="2.2"/>
		</g>
		<g class="st7">
			<rect x="37.3" y="-13.3" class="st8" width="2.2" height="2.2"/>
			<rect x="37.3" y="2.2" class="st8" width="2.2" height="2.2"/>
			<rect x="37.3" y="17.6" class="st8" width="2.2" height="2.2"/>
			<rect x="37.3" y="33" class="st8" width="2.2" height="2.2"/>
			<rect x="37.3" y="48.5" class="st8" width="2.2" height="2.2"/>
		</g>
		<g class="st7">
			<rect x="726.7" y="360.3" class="st8" width="2.2" height="2.2"/>
			<rect x="726.7" y="375.7" class="st8" width="2.2" height="2.2"/>
			<rect x="726.7" y="391.2" class="st8" width="2.2" height="2.2"/>
			<rect x="726.7" y="406.6" class="st8" width="2.2" height="2.2"/>
			<rect x="726.7" y="422" class="st8" width="2.2" height="2.2"/>
		</g>
		<g class="st1">
			<rect x="635.9" y="202.9" class="st6" width="11" height="3.8"/>
			
				<rect x="635.9" y="202.9" transform="matrix(6.123234e-17 -1 1 6.123234e-17 436.5309 846.189)" class="st6" width="11" height="3.8"/>
		</g>
		<g class="st1">
			<rect x="302.1" y="472" class="st6" width="11" height="3.8"/>
			
				<rect x="302.1" y="472" transform="matrix(6.123234e-17 -1 1 6.123234e-17 -166.3126 781.5397)" class="st6" width="11" height="3.8"/>
		</g>
		<g class="st1">
			<rect x="223.7" y="114.2" class="st5" width="11" height="3.8"/>
			
				<rect x="223.7" y="114.2" transform="matrix(6.123234e-17 -1 1 6.123234e-17 113.1036 345.3019)" class="st5" width="11" height="3.8"/>
		</g>
		<polygon class="st9" points="54.4,125.2 50.8,125.2 50.8,121.6 47,121.6 47,125.2 43.4,125.2 43.4,129 47,129 47,132.6 
			50.8,132.6 50.8,129 54.4,129 		"/>
		<polygon class="st9" points="10.1,412.4 6.5,412.4 6.5,408.8 2.7,408.8 2.7,412.4 -0.9,412.4 -0.9,416.2 2.7,416.2 2.7,419.8 
			6.5,419.8 6.5,416.2 10.1,416.2 		"/>
		<polygon class="st9" points="364.8,442.2 361.2,442.2 361.2,438.6 357.4,438.6 357.4,442.2 353.8,442.2 353.8,445.9 357.4,445.9 
			357.4,449.6 361.2,449.6 361.2,445.9 364.8,445.9 		"/>
		<polygon class="st9" points="132.3,351.7 128.7,351.7 128.7,348.1 124.9,348.1 124.9,351.7 121.3,351.7 121.3,355.5 124.9,355.5 
			124.9,359.1 128.7,359.1 128.7,355.5 132.3,355.5 		"/>
		<polygon class="st9" points="652.4,373.8 648.7,373.8 648.7,370.2 645,370.2 645,373.8 641.4,373.8 641.4,377.6 645,377.6 
			645,381.2 648.7,381.2 648.7,377.6 652.4,377.6 		"/>
		<g class="st10">
			<g>
				<rect x="741.6" y="59.9" class="st8" width="11" height="3.8"/>
				<rect x="745.2" y="56.3" class="st8" width="3.8" height="11"/>
			</g>
		</g>
		<polygon class="st9" points="509.1,70.9 505.5,70.9 505.5,67.3 501.8,67.3 501.8,70.9 498.1,70.9 498.1,74.6 501.8,74.6 
			501.8,78.2 505.5,78.2 505.5,74.6 509.1,74.6 		"/>
		<polygon class="st9" points="249.1,11.7 245.5,11.7 245.5,8.1 241.8,8.1 241.8,11.7 238.2,11.7 238.2,15.5 241.8,15.5 241.8,19.1 
			245.5,19.1 245.5,15.5 249.1,15.5 		"/>
		<g class="st1">
			<rect x="111.3" y="169.6" class="st4" width="11" height="3.8"/>
			
				<rect x="111.3" y="169.6" transform="matrix(6.123234e-17 -1 1 6.123234e-17 -54.7006 288.2845)" class="st4" width="11" height="3.8"/>
		</g>
		<g class="st1">
			<rect x="689.8" y="296.4" class="st4" width="11" height="3.8"/>
			
				<rect x="689.8" y="296.4" transform="matrix(6.123234e-17 -1 1 6.123234e-17 397.0085 993.5448)" class="st4" width="11" height="3.8"/>
		</g>
		<g class="st1">
			<rect x="498.1" y="450.2" class="st4" width="11" height="3.8"/>
			
				<rect x="498.1" y="450.2" transform="matrix(6.123234e-17 -1 1 6.123234e-17 51.5646 955.7241)" class="st4" width="11" height="3.8"/>
		</g>
		<g class="st1">
			<rect x="728.9" y="477.4" class="st5" width="11" height="3.8"/>
			
				<rect x="728.9" y="477.4" transform="matrix(6.123234e-17 -1 1 6.123234e-17 255.1325 1213.7008)" class="st5" width="11" height="3.8"/>
		</g>
		<g class="st1">
			<rect x="81" y="1.4" class="st5" width="11" height="3.8"/>
			<rect x="81" y="1.4" transform="matrix(6.123234e-17 -1 1 6.123234e-17 83.2953 89.784)" class="st5" width="11" height="3.8"/>
		</g>
		<g class="st1">
			<line class="st11" x1="679.2" y1="144.7" x2="733.1" y2="88.2"/>
			<line class="st11" x1="695.4" y1="142.1" x2="749.2" y2="85.7"/>
			<line class="st11" x1="711.6" y1="139.6" x2="765.4" y2="83.2"/>
		</g>
		<g class="st1">
			<line class="st11" x1="483.1" y1="421.9" x2="537" y2="365.5"/>
			<line class="st11" x1="499.3" y1="419.4" x2="553.2" y2="362.9"/>
			<line class="st11" x1="515.5" y1="416.9" x2="569.3" y2="360.4"/>
		</g>
		<g class="st1">
			<line class="st11" x1="205.5" y1="518.5" x2="259.4" y2="462"/>
			<line class="st11" x1="221.7" y1="516" x2="275.5" y2="459.5"/>
			<line class="st11" x1="237.9" y1="513.4" x2="291.7" y2="457"/>
		</g>
		<g class="st1">
			<line class="st11" x1="89.9" y1="46.9" x2="143.7" y2="-9.5"/>
			<line class="st11" x1="106.1" y1="44.4" x2="159.9" y2="-12.1"/>
			<line class="st11" x1="122.2" y1="41.8" x2="176.1" y2="-14.6"/>
		</g>
		<g class="st1">
			<line class="st11" x1="444.4" y1="49.4" x2="498.2" y2="-7"/>
			<line class="st11" x1="460.5" y1="46.9" x2="514.4" y2="-9.5"/>
			<line class="st11" x1="476.7" y1="44.4" x2="530.6" y2="-12.1"/>
		</g>
		<g class="st1">
			<line class="st11" x1="-37.7" y1="367.1" x2="16.1" y2="310.7"/>
			<line class="st11" x1="-21.5" y1="364.6" x2="32.3" y2="308.1"/>
			<line class="st11" x1="-5.3" y1="362.1" x2="48.5" y2="305.6"/>
		</g>
		
			<ellipse transform="matrix(0.7071 -0.7071 0.7071 0.7071 180.7946 442.9652)" class="st12" cx="625.1" cy="3.2" rx="14.6" ry="14.6"/>
		
			<ellipse transform="matrix(0.8507 -0.5257 0.5257 0.8507 -106.4696 60.3556)" class="st12" cx="53" cy="217.6" rx="14.6" ry="14.6"/>
		<circle class="st13" cx="571.6" cy="500.5" r="14.6"/>
		<circle class="st13" cx="139.9" cy="506.5" r="14.6"/>
	</g>
</g>
</svg>
