<?xml version="1.0" encoding="utf-8"?>
<!-- Generator: Adobe Illustrator 25.1.0, SVG Export Plug-In . SVG Version: 6.00 Build 0)  -->
<svg version="1.1" xmlns="http://www.w3.org/2000/svg" xmlns:xlink="http://www.w3.org/1999/xlink" x="0px" y="0px"
	 viewBox="0 0 500 500" style="enable-background:new 0 0 500 500;" xml:space="preserve">
<style type="text/css">
	.st0{fill:#E0E0E0;}
	.st1{fill:#FAFAFA;}
	.st2{fill:#EBEBEB;}
	.st3{fill:#F5F5F5;}
	.st4{fill:#FFFFFF;}
	.st5{fill:none;stroke:#FBFBFB;stroke-width:0.25;stroke-miterlimit:10;}
	.st6{fill:#263238;}
	.st7{fill:#FF725E;}
	.st8{opacity:0.3;}
	.st9{display:none;}
	.st10{display:inline;fill:#FFFFFF;}
	.st11{fill:#455A64;}
	.st12{opacity:0.6;}
	.st13{fill:#9D6054;}
	.st14{fill:#724A44;}
</style>
<g id="Background_Complete">
	<g>
		<g>
			<g>
				<g>
					<g>
						<g>
							<g>
								<g>
									<g>
										<g>
											<g>
												<rect x="403.37" y="156.63" class="st0" width="77.56" height="80.85"/>
											</g>
										</g>
									</g>
								</g>
							</g>
						</g>
					</g>
				</g>
			</g>
		</g>
		<g>
			<g>
				<g>
					<g>
						<g>
							<g>
								<g>
									<g>
										<g>
											<g>
												<rect x="398.12" y="156.63" class="st1" width="77.56" height="80.85"/>
											</g>
										</g>
									</g>
								</g>
							</g>
						</g>
					</g>
				</g>
			</g>
			<g>
				<g>
					<g>
						<g>
							<g>
								<g>
									<g>
										<g>
											<g>
												<path class="st0" d="M475.7,237.5H398.1v-80.9h77.61V237.5z M398.14,237.45h77.51v-80.8h-77.51V237.45z"/>
											</g>
										</g>
									</g>
								</g>
							</g>
						</g>
					</g>
				</g>
			</g>
		</g>
		<g>
			<g>
				<g>
					<g>
						<g>
							<g>
								<g>
									<g>
										<g>
											<g>
												<rect x="408.55" y="167.5" class="st1" width="56.71" height="59.11"/>
											</g>
										</g>
									</g>
								</g>
							</g>
						</g>
					</g>
				</g>
			</g>
		</g>
		<g>
			<g>
				<g>
					<g>
						<g>
							<g>
								<g>
									<g>
										<g>
											<g>
												<g>
													<path class="st0" d="M408.55,227c0.04,0.05-0.49,0.67-1.4,1.63c-0.91,0.96-2.18,2.25-3.6,3.65
														c-1.43,1.41-2.74,2.66-3.7,3.55c-0.97,0.89-1.59,1.41-1.64,1.37c-0.05-0.05,0.49-0.66,1.39-1.62
														c0.91-0.96,2.18-2.25,3.61-3.66c1.43-1.41,2.74-2.66,3.71-3.55C407.88,227.47,408.5,226.95,408.55,227z"/>
												</g>
											</g>
										</g>
									</g>
								</g>
							</g>
						</g>
					</g>
				</g>
			</g>
		</g>
		<g>
			<g>
				<g>
					<g>
						<g>
							<g>
								<g>
									<g>
										<g>
											<g>
												<g>
													<path class="st0" d="M465.25,226.86c0.05-0.04,0.67,0.49,1.63,1.4c0.96,0.91,2.25,2.18,3.65,3.6
														c1.41,1.43,2.66,2.74,3.55,3.7c0.89,0.97,1.41,1.59,1.37,1.64c-0.05,0.05-0.66-0.49-1.62-1.39
														c-0.96-0.91-2.25-2.18-3.66-3.61c-1.41-1.43-2.66-2.74-3.55-3.71C465.72,227.52,465.2,226.9,465.25,226.86z"/>
												</g>
											</g>
										</g>
									</g>
								</g>
							</g>
						</g>
					</g>
				</g>
			</g>
		</g>
		<g>
			<g>
				<g>
					<g>
						<g>
							<g>
								<g>
									<g>
										<g>
											<g>
												<g>
													<path class="st0" d="M465.1,167.66c-0.04-0.05,0.49-0.67,1.4-1.63c0.91-0.96,2.18-2.25,3.6-3.65
														c1.43-1.41,2.74-2.66,3.7-3.55c0.97-0.89,1.59-1.41,1.64-1.36c0.05,0.05-0.49,0.66-1.39,1.62
														c-0.91,0.96-2.18,2.25-3.61,3.66c-1.43,1.41-2.74,2.66-3.71,3.55C465.76,167.19,465.14,167.71,465.1,167.66z"/>
												</g>
											</g>
										</g>
									</g>
								</g>
							</g>
						</g>
					</g>
				</g>
			</g>
		</g>
		<g>
			<g>
				<g>
					<g>
						<g>
							<g>
								<g>
									<g>
										<g>
											<g>
												<g>
													<path class="st0" d="M408.39,167.8c-0.05,0.04-0.67-0.49-1.63-1.4c-0.96-0.91-2.25-2.18-3.65-3.6
														c-1.41-1.43-2.66-2.74-3.55-3.7c-0.89-0.97-1.41-1.59-1.36-1.64c0.05-0.05,0.66,0.49,1.62,1.39
														c0.96,0.91,2.25,2.18,3.66,3.61c1.41,1.43,2.66,2.74,3.55,3.71C407.92,167.14,408.44,167.76,408.39,167.8z"/>
												</g>
											</g>
										</g>
									</g>
								</g>
							</g>
						</g>
					</g>
				</g>
			</g>
		</g>
		<g>
			<g>
				<g>
					<g>
						<g>
							<g>
								<g>
									<g>
										<g>
											<g>
												<g>
													<path class="st0" d="M465.1,226.61c0,0-0.01-0.1-0.01-0.29c0-0.2-0.01-0.47-0.01-0.82c-0.01-0.74-0.01-1.81-0.03-3.19
														c-0.01-2.8-0.03-6.87-0.06-12.05c-0.03-10.35-0.07-25.1-0.11-42.76l0.22,0.22c-16.51,0.01-35.89,0.02-56.55,0.03h-0.01
														l0.25-0.25c-0.01,21.7-0.03,41.99-0.04,59.11l-0.22-0.22c16.95,0.05,31.05,0.08,40.95,0.11
														c4.94,0.02,8.83,0.04,11.5,0.06c1.32,0.01,2.34,0.02,3.04,0.02c0.33,0.01,0.59,0.01,0.79,0.01
														C465,226.6,465.09,226.6,465.1,226.61c0,0-0.08,0.01-0.25,0.01c-0.19,0-0.44,0.01-0.76,0.01c-0.7,0.01-1.7,0.01-3,0.02
														c-2.66,0.01-6.53,0.03-11.45,0.06c-9.93,0.03-24.08,0.06-41.08,0.11l-0.22,0l0-0.22c-0.01-17.12-0.02-37.41-0.04-59.11
														l0-0.25h0.25h0.01c20.65,0.01,40.04,0.02,56.55,0.03h0.22l0,0.22c-0.05,17.72-0.08,32.51-0.11,42.9
														c-0.02,5.15-0.04,9.21-0.06,12c-0.01,1.37-0.02,2.42-0.03,3.15c-0.01,0.34-0.01,0.61-0.01,0.8
														C465.11,226.52,465.1,226.61,465.1,226.61z"/>
												</g>
											</g>
										</g>
									</g>
								</g>
							</g>
						</g>
					</g>
				</g>
			</g>
		</g>
		<g>
			<g>
				<g>
					<g>
						<g>
							<g>
								<g>
									<g>
										<g>
											<g>
												<rect x="427.44" y="187.59" class="st2" width="18.92" height="18.92"/>
											</g>
										</g>
									</g>
								</g>
							</g>
						</g>
					</g>
				</g>
			</g>
		</g>
	</g>
	<g>
		
			<rect x="152.57" y="41.69" transform="matrix(0.9996 -0.0279 0.0279 0.9996 -6.3273 7.9374)" class="st0" width="257.59" height="378.18"/>
	</g>
	<g>
		
			<rect x="122.61" y="42.31" transform="matrix(0.9985 0.0548 -0.0548 0.9985 13.0623 -13.4331)" class="st3" width="257.59" height="378.18"/>
	</g>
	<g>
		
			<rect x="162.17" y="62.42" transform="matrix(0.9964 0.0849 -0.0849 0.9964 22.3901 -23.7816)" class="st2" width="257.59" height="378.18"/>
	</g>
	<g>
		<g>
			<g>
				<g>
					<path class="st0" d="M42.13,373.58c-3.89-2.44-8.35-3.98-12.91-4.44c-2.11-0.22-4.42-0.16-6.11,1.12
						c-0.36,0.27-0.71,0.67-0.63,1.12c0.06,0.33,0.33,0.56,0.6,0.76C28.33,376.14,36.28,376.65,42.13,373.58"/>
				</g>
			</g>
			<g>
				<g>
					<path class="st0" d="M41.8,373.21c-2.92-2.28-5.86-4.58-8.34-7.34c-2.48-2.76-4.49-6.04-5.23-9.67
						c-0.22-1.1-0.29-2.36,0.41-3.24C35.29,358.16,40.51,364.88,41.8,373.21"/>
				</g>
			</g>
			<g>
				<g>
					<path class="st0" d="M42.06,373.53c-0.5-3.64-0.68-7.38,0.15-10.95c0.84-3.58,2.78-7,5.83-9.04c1.15,2.69,0.66,5.78-0.15,8.59
						c-1.25,4.34-3.21,8.47-5.78,12.18"/>
				</g>
			</g>
			<g>
				<g>
					<path class="st0" d="M48.58,385.21c-3.96,0.48-7.4,2.57-10.36,5.24c-2.95,2.68-5.05,6.28-5.92,10.17
						c3.88-0.24,7.17-2.98,9.56-6.05c2.39-3.07,4.04-6.44,6.67-9.31"/>
				</g>
			</g>
			<g>
				<g>
					<path class="st0" d="M49.99,387.07c-3.19-7.85-2.03-17.31,2.95-24.16C55.2,370.93,54.37,379.99,49.99,387.07"/>
				</g>
			</g>
			<g>
				<g>
					<path class="st0" d="M58.6,397.33c-3.59-0.22-7.24,0.63-10.36,2.43c-3.12,1.79-5.69,4.52-7.3,7.74
						c-0.22,0.44-0.41,0.99-0.12,1.38c0.25,0.34,0.75,0.37,1.17,0.34c3.48-0.23,6.57-2.32,9.11-4.7c2.55-2.38,4.76-5.14,7.58-7.2"/>
				</g>
			</g>
			<g>
				<g>
					<path class="st0" d="M58.33,396.77c-1.85-5.93-1.97-12.38-0.33-18.37c0.65-2.37,1.73-4.85,3.92-5.96
						c0.19-0.09,0.4-0.18,0.6-0.11c0.19,0.07,0.29,0.26,0.38,0.44c0.78,1.63,1,3.47,0.92,5.27c-0.08,1.8-0.45,3.57-0.83,5.34
						c-0.69,3.26-1.06,6.77-2.84,9.58c-0.42,0.67-0.8,1.39-1.14,2.1c-0.34,0.71-0.34,0.97-0.65,1.54"/>
				</g>
			</g>
			<g>
				<g>
					<path class="st0" d="M81.12,400.17c-1.69-6.42,0.1-14.21,4.15-19.48c0.3-0.39,0.69-0.8,1.18-0.76
						c0.75,0.07,0.94,1.06,0.91,1.81C87.07,388.3,84.88,394.77,81.12,400.17"/>
				</g>
			</g>
			<g>
				<g>
					<path class="st0" d="M83.18,401.57c7.8,2.03,16.76,0.06,23.25-4.73c-3.85-1.95-8.38-2.51-12.59-1.54
						C89.64,396.26,85.8,398.14,83.18,401.57"/>
				</g>
			</g>
			<g>
				<g>
					<path class="st0" d="M84.91,397.29c4.37-7.13,12.75-11.78,21.1-12.2c-0.96,3.4-3.75,6.04-6.9,7.63
						c-3.15,1.59-6.66,2.29-10.13,2.96C87.64,395.95,85.79,396.23,84.91,397.29"/>
				</g>
			</g>
			<g>
				<g>
					<path class="st0" d="M81.56,376.54c1.18-4.06,2.37-8.15,2.7-12.36c0.32-4.21-0.28-8.61-2.46-12.22
						c-4.08,7.9-4.5,17.13-0.36,25.01"/>
				</g>
			</g>
			<g>
				<g>
					<path class="st0" d="M95.31,369.59c4.78-8.68,14.52-15.61,24.37-16.58C115.88,362.48,105.51,369.79,95.31,369.59"/>
				</g>
			</g>
			<g>
				<g>
					<path class="st0" d="M92.3,371.29c7.12,1.08,13.19,5.63,19.84,8.39c1.42,0.59,2.96,1.06,4.49,0.86
						c1.53-0.2,3.03-1.22,3.38-2.73c0.28-1.25-0.28-2.57-1.18-3.49c-0.9-0.91-2.08-1.48-3.26-1.98c-7.25-3.02-15.02-3.09-22.66-1.26
						"/>
				</g>
			</g>
			<g>
				<g>
					<path class="st0" d="M88.18,376.29c1.61,0.46,2.16,1.3,3.44,2.38c4.33,3.69,9.53,6.36,15.05,7.73c0.57,0.14,1.33,0.2,1.61-0.32
						c0.25-0.45-0.07-1-0.39-1.41c-2.31-2.89-5.61-4.87-9.09-6.17c-3.47-1.29-6.48-2.85-10.63-2.52"/>
				</g>
			</g>
			<g>
				<g>
					<path class="st0" d="M83.53,346.12c5.79,5.4,13.95,8.18,21.83,7.43c0.36-0.03,0.75-0.09,0.99-0.36
						c0.55-0.6-0.11-1.52-0.75-2.02C99.19,346.17,91.41,344.09,83.53,346.12"/>
				</g>
			</g>
			<g>
				<g>
					<path class="st0" d="M89.04,344.1c7.65-5.74,18.15-7.47,27.24-4.49c-3.43,3.38-8.19,5.2-12.98,5.7
						C98.51,345.81,93.72,345.27,89.04,344.1"/>
				</g>
			</g>
			<g>
				<g>
					<path class="st0" d="M86.85,330.24c-0.63-6.41-0.22-11.46-0.67-17.9c-0.04-0.51-0.15-1.13-0.63-1.32
						c-0.67-0.26-1.23,0.57-1.45,1.25c-1.91,5.93-0.86,12.74,2.73,17.83"/>
				</g>
			</g>
			<g>
				<g>
					<path class="st0" d="M86.39,330.95c4.34-2.69,7.6-6.19,10.61-10.31c2.1-2.87,3.86-6.3,3.39-9.82c-2.94-0.06-5.74,1.56-7.66,3.8
						c-1.91,2.24-3.05,5.03-3.9,7.85C87.98,325.28,87.39,328.18,86.39,330.95"/>
				</g>
			</g>
			<g>
				<g>
					<path class="st0" d="M96.82,328.05c9.53-3.52,18.42-8.77,26.12-15.4c-3.12-1.26-6.69-0.5-9.81,0.75
						c-7.13,2.88-12.95,7.73-16.44,14.58"/>
				</g>
			</g>
			<g>
				<g>
					<path class="st0" d="M89.32,334.45c4.82,0.53,9.72,0.87,14.5,0.07c4.7-0.79,9.14-2.65,13.54-4.5c0.36-0.15,0.76-0.34,0.92-0.7
						c0.17-0.39-0.01-0.87-0.33-1.16c-0.32-0.29-0.74-0.43-1.15-0.54c-4.78-1.34-9.93-0.71-14.63,0.87
						C97.47,330.09,93.62,331.97,89.32,334.45"/>
				</g>
			</g>
			<g>
				<g>
					<path class="st0" d="M61.79,346.34c-3.29-6.64-3.08-14.39-0.23-21.23c2,3.05,2.24,6.93,1.88,10.56
						c-0.37,3.63-1.47,7.36-1.54,11"/>
				</g>
			</g>
			<g>
				<g>
					<path class="st0" d="M48.65,339.71c-8.21-0.16-16.43,3.34-22,9.37c4.1,0.64,8.32-0.41,12.05-2.23
						c3.73-1.82,7.04-4.37,10.33-6.91"/>
				</g>
			</g>
			<g>
				<g>
					<path class="st0" d="M39.82,336.76c-4.02-0.33-7.88-0.82-11.75,0.36c-3.86,1.18-7.38,3.87-8.95,7.59
						c3.76,0.42,7.57-0.52,11.01-2.08C33.58,341.07,36.71,338.91,39.82,336.76"/>
				</g>
			</g>
			<g>
				<g>
					<path class="st0" d="M52.9,336.89c-3.61-2.37-7.33-4.78-11.53-5.76c-4.21-0.98-9.09-0.26-12.02,2.92
						c3.41,2,7.54,2.24,11.49,2.23c3.95,0,8.79-0.05,12.52,1.27"/>
				</g>
			</g>
			<g>
				<g>
					<path class="st0" d="M52.92,337.08c-6.18-6.07-8.52-16.97-6.04-25.26C51.74,319.2,53.92,328.3,52.92,337.08"/>
				</g>
			</g>
			<g>
				<g>
					<path class="st0" d="M69.91,319.89c1.17-2.71,1.99-5.55,3.03-8.31c1.05-2.76,2.35-5.47,4.32-7.66
						c1.98-2.19,4.71-3.82,7.65-3.97c-1.84,8.35-7.39,15.81-14.85,19.98"/>
				</g>
			</g>
			<g>
				<g>
					<path class="st0" d="M66.84,323.47c-1.93-2.65-4.16-6.26-6.77-8.24c-2.62-1.98-6.02-3.18-9.21-2.42
						C54.1,318.62,60.23,322.71,66.84,323.47"/>
				</g>
			</g>
			<g>
				<g>
					<path class="st0" d="M67.45,320.11c-1.26-3.21-2.54-6.46-3.05-9.87c-0.51-3.41-0.2-7.06,1.55-10.04
						c3.39,6.41,4.48,13.29,1.68,19.98"/>
				</g>
			</g>
			<g>
				<g>
					<path class="st0" d="M69.94,300.2c1.92-6.36,7.74-11.04,14.02-13.18c0.79-0.27,1.63-0.5,2.46-0.37
						c0.83,0.13,1.64,0.69,1.81,1.51c0.23,1.08-0.66,2.05-1.5,2.77C81.84,295.12,76.09,298.29,69.94,300.2"/>
				</g>
			</g>
			<g>
				<g>
					<path class="st0" d="M70.01,295.01c0.24-4.1,0.5-8.26,1.83-12.14c1.33-3.88,3.9-7.53,7.64-9.22c0.64,4.14-1.19,8.26-3.39,11.82
						c-2.2,3.56-4.86,6.92-6.18,10.9"/>
				</g>
			</g>
			<g>
				<g>
					<path class="st0" d="M69.91,297.83c-1.59-4.63-1.75-10.52-4.53-14.55c-1.94-2.82-5.04-4.74-6.71-7.73
						c-1.11,2.79-0.77,6.01,0.39,8.78c1.16,2.77,3.08,5.15,5.13,7.35C66.25,293.86,68,295.51,69.91,297.83"/>
				</g>
			</g>
			<g>
				<g>
					<g>
						<path class="st0" d="M69.94,434.24c-0.12,0-0.23-30.9-0.24-69.01c-0.01-38.12,0.08-69.02,0.21-69.02
							c0.12,0,0.23,30.89,0.24,69.02C70.16,403.34,70.07,434.24,69.94,434.24z"/>
					</g>
				</g>
			</g>
			<g>
				<g>
					<g>
						<path class="st0" d="M96.95,341.68c0.01,0.03-0.41,0.18-1.16,0.44c-0.83,0.28-1.91,0.64-3.2,1.08
							c-2.7,0.92-6.4,2.25-10.42,3.9c-3.98,1.71-7.73,3.09-9.87,4.95c-1.07,0.91-1.68,1.9-1.98,2.62c-0.31,0.73-0.36,1.17-0.4,1.16
							c-0.02,0-0.01-0.11,0.01-0.32c0.04-0.21,0.09-0.52,0.23-0.9c0.26-0.76,0.86-1.82,1.94-2.8c1.07-0.98,2.57-1.86,4.28-2.66
							c1.71-0.8,3.61-1.63,5.63-2.46c4.03-1.65,7.76-2.94,10.49-3.78c1.36-0.43,2.47-0.74,3.25-0.94
							C96.51,341.74,96.94,341.65,96.95,341.68z"/>
					</g>
				</g>
			</g>
			<g>
				<g>
					<g>
						<path class="st0" d="M105.8,319.93c0.01,0.01-0.1,0.13-0.33,0.35c-0.26,0.25-0.59,0.56-0.99,0.93
							c-0.92,0.84-2.17,1.98-3.7,3.36c-3.2,2.85-7.53,6.71-12.32,10.97c-4.81,4.28-8.97,8.37-11.85,11.45
							c-1.44,1.54-2.58,2.81-3.35,3.7c-0.36,0.41-0.66,0.75-0.9,1.02c-0.21,0.23-0.32,0.35-0.33,0.34c-0.01-0.01,0.08-0.15,0.26-0.4
							c0.19-0.25,0.46-0.62,0.83-1.08c0.74-0.93,1.84-2.23,3.25-3.8c2.83-3.14,6.96-7.28,11.78-11.57
							c4.83-4.27,9.22-8.11,12.41-10.87c1.57-1.34,2.85-2.45,3.8-3.26c0.42-0.35,0.77-0.64,1.05-0.87
							C105.65,320.02,105.79,319.92,105.8,319.93z"/>
					</g>
				</g>
			</g>
			<g>
				<g>
					<g>
						<path class="st0" d="M83.27,339.9c-0.13-0.06,0.88-2.38,1.88-5.31c1.01-2.93,1.49-5.41,1.61-5.39
							c0.12,0.01-0.17,2.56-1.19,5.53c-0.5,1.48-1.06,2.79-1.5,3.71C83.64,339.37,83.32,339.92,83.27,339.9z"/>
					</g>
				</g>
			</g>
			<g>
				<g>
					<g>
						<path class="st0" d="M69.97,358.6c-0.02,0.02-0.29-0.29-0.74-0.86c-0.5-0.64-1.14-1.46-1.9-2.43
							c-1.59-2.06-3.8-4.91-6.27-8.02c-2.47-3.11-4.74-5.91-6.39-7.93c-0.78-0.96-1.43-1.77-1.94-2.4c-0.45-0.57-0.69-0.9-0.67-0.92
							c0.02-0.02,0.31,0.27,0.8,0.8c0.49,0.54,1.2,1.33,2.05,2.31c1.71,1.97,4.02,4.74,6.5,7.85c2.47,3.12,4.64,6,6.17,8.11
							c0.77,1.06,1.38,1.92,1.79,2.52C69.78,358.24,70,358.58,69.97,358.6z"/>
					</g>
				</g>
			</g>
			<g>
				<g>
					<g>
						<path class="st0" d="M64.05,351c-0.07,0.08-1.65-1.8-2.48-4.64c-0.61-2.01-0.64-3.84-0.56-4.68l0.2,0.02
							c-0.09,0.36-0.15,0.55-0.19,0.54c-0.04-0.01-0.04-0.21-0.01-0.57l0.2,0.02c0.07,0.83,0.2,2.6,0.79,4.55
							C62.8,348.99,64.17,350.93,64.05,351z"/>
					</g>
				</g>
			</g>
			<g>
				<g>
					<g>
						<path class="st0" d="M56.41,341.39c-0.06,0.06-0.57-0.58-1.73-1.01c-1.16-0.45-2.9-0.55-4.81-0.38
							c-1.91,0.14-3.62,0.48-4.84,0.78c-1.22,0.3-1.97,0.54-1.99,0.48c-0.02-0.05,0.69-0.4,1.91-0.78c1.21-0.38,2.95-0.78,4.89-0.92
							c1.93-0.17,3.76-0.02,4.96,0.54C56,340.62,56.45,341.38,56.41,341.39z"/>
					</g>
				</g>
			</g>
			<g>
				<g>
					<g>
						<path class="st0" d="M54.59,339.06c-0.03,0.07-1.01-0.4-2.65-0.97c-1.64-0.56-3.98-1.16-6.62-1.36
							c-2.64-0.2-5.04,0.03-6.75,0.34c-1.71,0.31-2.75,0.63-2.77,0.55c-0.01-0.03,0.24-0.13,0.7-0.3c0.46-0.17,1.15-0.37,2-0.56
							c1.71-0.39,4.16-0.68,6.85-0.48c2.69,0.21,5.06,0.86,6.69,1.51c0.82,0.32,1.47,0.62,1.9,0.86
							C54.38,338.89,54.61,339.03,54.59,339.06z"/>
					</g>
				</g>
			</g>
			<g>
				<g>
					<g>
						<path class="st0" d="M69.91,329.2c-0.12,0.03-0.99-2.98-1.93-6.72c-0.95-3.74-1.62-6.8-1.5-6.83
							c0.12-0.03,0.99,2.98,1.93,6.72C69.36,326.11,70.03,329.17,69.91,329.2z"/>
					</g>
				</g>
			</g>
			<g>
				<g>
					<g>
						<path class="st0" d="M70.03,329.2c-0.13,0.04-0.69-1.97-2.14-4.02c-1.42-2.1-3.22-3.15-3.16-3.26
							c0.02-0.05,0.52,0.14,1.22,0.63c0.7,0.49,1.56,1.31,2.3,2.37C69.77,327.06,70.14,329.19,70.03,329.2z"/>
					</g>
				</g>
			</g>
			<g>
				<g>
					<g>
						<path class="st0" d="M69.94,417.77c-0.05,0.01-0.14-0.74-0.49-2.05c-0.34-1.31-0.99-3.17-2.06-5.35
							c-2.13-4.36-6.02-9.89-10.96-15.44c-2.45-2.79-4.82-5.43-6.83-7.96c-2.02-2.52-3.68-4.92-4.89-7.05
							c-1.21-2.12-2.01-3.94-2.47-5.23c-0.23-0.64-0.39-1.15-0.48-1.5c-0.1-0.35-0.14-0.53-0.13-0.53c0.04-0.01,0.26,0.71,0.77,1.97
							c0.51,1.26,1.34,3.05,2.58,5.13c1.24,2.09,2.91,4.45,4.93,6.95c2.02,2.5,4.4,5.12,6.85,7.92c4.95,5.56,8.83,11.16,10.9,15.59
							c1.05,2.21,1.65,4.11,1.95,5.45c0.14,0.67,0.24,1.19,0.27,1.55C69.94,417.58,69.96,417.76,69.94,417.77z"/>
					</g>
				</g>
			</g>
			<g>
				<g>
					<g>
						<path class="st0" d="M94.34,390.21c0.01,0.03-0.45,0.27-1.28,0.72c-0.82,0.46-1.98,1.17-3.32,2.19
							c-1.33,1.02-2.82,2.36-4.36,3.97c-1.53,1.62-3.1,3.49-4.71,5.5c-3.21,4.03-6.22,7.6-8.02,10.45c-0.91,1.41-1.58,2.6-2.01,3.44
							c-0.44,0.83-0.67,1.3-0.7,1.29c-0.01-0.01,0.03-0.13,0.12-0.36c0.1-0.23,0.22-0.58,0.43-1c0.39-0.86,1.02-2.09,1.9-3.53
							c1.75-2.92,4.73-6.53,7.94-10.56c1.61-2.01,3.2-3.89,4.76-5.51c1.56-1.61,3.09-2.94,4.46-3.94c1.37-1,2.57-1.68,3.43-2.09
							c0.42-0.21,0.77-0.34,1-0.44C94.21,390.23,94.34,390.19,94.34,390.21z"/>
					</g>
				</g>
			</g>
			<g>
				<g>
					<g>
						<path class="st0" d="M94.82,399.15c0.01,0.06-1.03,0.19-2.7,0.39c-1.66,0.22-3.98,0.49-6.41,1.26
							c-2.42,0.79-4.43,1.99-5.74,3.01c-1.32,1.02-1.95,1.87-2.01,1.82c-0.02-0.02,0.11-0.25,0.4-0.62
							c0.29-0.38,0.76-0.88,1.41-1.44c1.29-1.11,3.32-2.38,5.8-3.19c2.49-0.79,4.84-1.02,6.52-1.15
							C93.77,399.1,94.82,399.09,94.82,399.15z"/>
					</g>
				</g>
			</g>
			<g>
				<g>
					<g>
						<path class="st0" d="M78.75,404.65c-0.14-0.08,1.08-1.94,2.02-4.44c0.89-2.53,1.09-4.74,1.25-4.71
							c0.06,0.01,0.06,0.56-0.04,1.45c-0.11,0.89-0.32,2.12-0.79,3.42c-0.47,1.3-1.09,2.38-1.57,3.13
							C79.14,404.25,78.8,404.68,78.75,404.65z"/>
					</g>
				</g>
			</g>
			<g>
				<g>
					<g>
						<path class="st0" d="M102.25,366.2c0.01,0.01-0.14,0.09-0.43,0.23c-0.34,0.15-0.76,0.34-1.27,0.58
							c-0.56,0.24-1.23,0.54-1.99,0.94c-0.76,0.39-1.65,0.8-2.58,1.36c-0.47,0.27-0.96,0.55-1.47,0.84
							c-0.51,0.29-1.02,0.64-1.56,0.98c-1.09,0.66-2.18,1.47-3.34,2.3c-2.27,1.73-4.67,3.77-6.97,6.13
							c-2.28,2.38-4.24,4.84-5.89,7.18c-0.79,1.19-1.56,2.31-2.19,3.42c-0.32,0.55-0.65,1.07-0.93,1.59
							c-0.27,0.52-0.54,1.02-0.79,1.5c-0.53,0.95-0.9,1.85-1.27,2.63c-0.38,0.77-0.65,1.46-0.87,2.02
							c-0.22,0.52-0.39,0.95-0.53,1.29c-0.13,0.29-0.2,0.45-0.21,0.44s0.03-0.17,0.13-0.47c0.12-0.35,0.27-0.79,0.46-1.32
							c0.2-0.58,0.45-1.27,0.81-2.06c0.35-0.79,0.7-1.71,1.21-2.67c0.24-0.49,0.5-1,0.77-1.52c0.27-0.53,0.6-1.05,0.91-1.61
							c0.61-1.12,1.38-2.26,2.17-3.46c1.64-2.36,3.61-4.85,5.91-7.25c2.32-2.38,4.74-4.43,7.04-6.15c1.18-0.83,2.28-1.63,3.39-2.28
							c0.55-0.33,1.06-0.68,1.58-0.96c0.52-0.28,1.02-0.56,1.5-0.82c0.94-0.54,1.85-0.93,2.63-1.31c0.77-0.38,1.46-0.66,2.03-0.88
							c0.53-0.2,0.96-0.37,1.31-0.5C102.08,366.24,102.24,366.19,102.25,366.2z"/>
					</g>
				</g>
			</g>
			<g>
				<g>
					<g>
						<path class="st0" d="M82.93,379.14c-0.04-0.01,0.18-0.76,1.06-1.58c0.86-0.82,2.44-1.59,4.28-1.64
							c1.83-0.05,3.42,0.46,4.5,0.88c1.09,0.43,1.72,0.78,1.7,0.83c-0.03,0.06-0.7-0.18-1.81-0.53c-1.1-0.34-2.65-0.78-4.38-0.73
							c-1.73,0.05-3.22,0.72-4.09,1.43C83.32,378.51,83.01,379.18,82.93,379.14z"/>
					</g>
				</g>
			</g>
			<g>
				<g>
					<g>
						<path class="st0" d="M80.05,382.12c-0.12-0.07,0.97-1.67,1.21-3.95c0.29-2.28-0.41-4.09-0.27-4.13
							c0.05-0.02,0.29,0.4,0.5,1.15c0.21,0.75,0.35,1.84,0.21,3.03c-0.14,1.19-0.53,2.22-0.9,2.9
							C80.42,381.8,80.09,382.15,80.05,382.12z"/>
					</g>
				</g>
			</g>
		</g>
		<g>
			<g>
				<path class="st0" d="M48.6,422.19c0.67,11.81,4.22,23.82,9.7,35.96h23.8c5.22-12.02,8.53-24.01,9.12-35.96H48.6z"/>
			</g>
		</g>
		<g>
			<g>
				<g>
					<path class="st1" d="M87.36,441.3c0,0.12-7.84,0.22-17.5,0.22c-9.67,0-17.5-0.1-17.5-0.22c0-0.12,7.84-0.22,17.5-0.22
						C79.53,441.08,87.36,441.18,87.36,441.3z"/>
				</g>
			</g>
		</g>
		<g>
			<g>
				<g>
					<path class="st1" d="M86.83,445.58c0,0.12-7.35,0.22-16.41,0.22c-9.06,0-16.41-0.1-16.41-0.22c0-0.12,7.35-0.22,16.41-0.22
						C79.49,445.36,86.83,445.46,86.83,445.58z"/>
				</g>
			</g>
		</g>
		<g>
			<g>
				<g>
					<path class="st1" d="M58.68,429.95c0.12,0,0.22,2.45,0.22,5.48c0,3.03-0.1,5.48-0.22,5.48c-0.12,0-0.22-2.45-0.22-5.48
						C58.46,432.4,58.56,429.95,58.68,429.95z"/>
				</g>
			</g>
		</g>
		<g>
			<g>
				<g>
					<path class="st1" d="M71.44,429.95c0.12,0,0.22,2.54,0.22,5.68c0,3.14-0.1,5.68-0.22,5.68c-0.12,0-0.22-2.54-0.22-5.68
						C71.21,432.49,71.31,429.95,71.44,429.95z"/>
				</g>
			</g>
		</g>
		<g>
			<g>
				<g>
					<path class="st1" d="M83.41,429.85c0.12,0,0.22,2.59,0.22,5.79c0,3.2-0.1,5.79-0.22,5.79s-0.22-2.59-0.22-5.79
						C83.18,432.44,83.28,429.85,83.41,429.85z"/>
				</g>
			</g>
		</g>
		<g>
			<g>
				<g>
					<path class="st1" d="M90.47,429.95c0,0.12-9.19,0.22-20.53,0.22c-11.34,0-20.53-0.1-20.53-0.22c0-0.12,9.19-0.22,20.53-0.22
						C81.27,429.72,90.47,429.82,90.47,429.95z"/>
				</g>
			</g>
		</g>
	</g>
	<g>
		<g>
			<g>
				<rect x="28.51" y="71.83" class="st0" width="95.42" height="138.31"/>
			</g>
		</g>
		<g>
			<g>
				<rect x="23.73" y="71.83" class="st3" width="95.42" height="138.31"/>
			</g>
		</g>
		<g>
			<g>
				<g>
					<rect x="35.58" y="86.81" class="st4" width="71.71" height="108.35"/>
				</g>
			</g>
			<g>
				<g>
					<g>
						<path class="st0" d="M107.29,195.15c0,0-0.01-0.18-0.01-0.53c0-0.36-0.01-0.87-0.01-1.54c-0.01-1.36-0.02-3.35-0.03-5.94
							c-0.01-5.19-0.04-12.76-0.06-22.32c-0.03-19.11-0.07-46.16-0.12-78.02l0.24,0.24c-21.91,0.01-46.18,0.01-71.7,0.02h-0.01
							l0.26-0.26c-0.02,40.87-0.04,78.56-0.05,108.35l-0.21-0.21c21.84,0.05,39.74,0.08,52.19,0.11c6.23,0.02,11.1,0.04,14.42,0.05
							c1.65,0.01,2.92,0.02,3.79,0.02C106.84,195.14,107.29,195.15,107.29,195.15s-0.42,0.01-1.27,0.02
							c-0.86,0.01-2.11,0.01-3.75,0.02c-3.31,0.01-8.16,0.03-14.37,0.05c-12.49,0.03-30.43,0.06-52.32,0.11l-0.21,0l0-0.21
							c-0.01-29.79-0.03-67.47-0.05-108.35l0-0.26h0.26h0.01c25.52,0.01,49.79,0.01,71.7,0.02l0.24,0l0,0.24
							c-0.05,31.92-0.09,59.03-0.12,78.18c-0.03,9.54-0.05,17.08-0.06,22.27c-0.01,2.57-0.02,4.54-0.03,5.9
							c-0.01,0.66-0.01,1.16-0.01,1.51C107.3,194.99,107.29,195.15,107.29,195.15z"/>
					</g>
				</g>
			</g>
		</g>
		<g>
			<g>
				<g>
					<path class="st5" d="M103.96,87.53"/>
				</g>
			</g>
		</g>
		<g>
			<g>
				<g>
					<path class="st0" d="M119.41,71.83c0.06,0.04-0.59,0.99-1.7,2.47c-1.11,1.48-2.68,3.5-4.48,5.68c-1.8,2.18-3.47,4.11-4.72,5.48
						c-1.24,1.37-2.05,2.19-2.1,2.14c-0.05-0.05,0.65-0.95,1.82-2.38c1.28-1.55,2.85-3.46,4.59-5.57c1.74-2.11,3.31-4.02,4.59-5.58
						C118.61,72.65,119.36,71.78,119.41,71.83z"/>
				</g>
			</g>
		</g>
		<g>
			<g>
				<g>
					<path class="st4" d="M107.66,194.8c3.56,5.66,7.77,10.92,12.51,15.64"/>
				</g>
			</g>
			<g>
				<g>
					<g>
						<path class="st0" d="M120.16,210.45c-0.05,0.05-0.9-0.69-2.18-1.98c-1.28-1.29-2.98-3.15-4.72-5.32
							c-1.74-2.17-3.18-4.24-4.15-5.77c-0.98-1.54-1.51-2.53-1.46-2.56c0.06-0.04,0.71,0.88,1.76,2.36c1.05,1.48,2.53,3.5,4.25,5.66
							c1.73,2.16,3.37,4.04,4.58,5.39C119.46,209.56,120.22,210.39,120.16,210.45z"/>
					</g>
				</g>
			</g>
		</g>
		<g>
			<g>
				<g>
					<path class="st4" d="M23.71,210.02c4.17-5.14,8.33-10.28,12.5-15.42"/>
				</g>
			</g>
			<g>
				<g>
					<g>
						<path class="st0" d="M36.21,194.6c0.11,0.09-2.6,3.62-6.05,7.87c-3.45,4.26-6.34,7.64-6.45,7.55
							c-0.11-0.09,2.6-3.62,6.05-7.87C33.21,197.89,36.1,194.51,36.21,194.6z"/>
					</g>
				</g>
			</g>
		</g>
		<g>
			<g>
				<g>
					<path class="st0" d="M23.73,71.83c0.11-0.09,2.83,3.16,6.07,7.25c3.24,4.1,5.77,7.49,5.66,7.57c-0.11,0.09-2.83-3.16-6.07-7.25
						C26.15,75.31,23.61,71.92,23.73,71.83z"/>
				</g>
			</g>
		</g>
		<g>
			<g>
				<rect x="60.94" y="108.8" class="st0" width="24.01" height="68.17"/>
			</g>
		</g>
	</g>
</g>
<g id="Background_Simple">
	<g>
		<path class="st2" d="M53.66,111.56l1.48-4.24c12.45-35.74,43.1-62.23,80.19-67.73c4.77-0.71,9.59-1.07,14.42-1.07
			c34.8,0.02,69.13,19.01,88.01,48.68c11.11,17.45,17.74,38.85,34.34,51.04c21.61,15.86,51.35,10.16,77.2,3.79
			c25.85-6.37,55.62-12,77.16,3.96c13.49,9.99,20.68,26.77,23.33,43.44c7,44.15-15.09,89.68-49.64,117.34
			c-34.55,27.66-79.72,39.12-123.88,39.62c-61.86,0.7-125.28-20.09-170.01-63.57S38.22,172.09,53.66,111.56z"/>
	</g>
</g>
<g id="Floor_1_">
	<g>
		<g>
			<path class="st6" d="M473.22,458.38c0,0.14-99.95,0.26-223.21,0.26c-123.31,0-223.23-0.12-223.23-0.26
				c0-0.14,99.93-0.26,223.23-0.26C373.27,458.12,473.22,458.24,473.22,458.38z"/>
		</g>
	</g>
</g>
<g id="Manual">
	<g>
		<g>
			<g>
				<path class="st7" d="M402.64,457.67H118.41V64.57h284.24c5.94,0,10.76,4.82,10.76,10.76v371.59
					C413.4,452.86,408.58,457.67,402.64,457.67z"/>
			</g>
			<g class="st8">
				<path d="M402.64,457.67H118.41V64.57h284.24c5.94,0,10.76,4.82,10.76,10.76v371.59C413.4,452.86,408.58,457.67,402.64,457.67z"
					/>
			</g>
		</g>
		<g>
			<rect x="247.53" y="76.74" class="st0" width="157.7" height="380.93"/>
		</g>
		<g>
			<path class="st7" d="M381.34,457.67H117.18V61.47h264.15c5.94,0,10.76,4.82,10.76,10.76v374.69
				C392.09,452.86,387.28,457.67,381.34,457.67z"/>
		</g>
		<g>
			<g>
				<path class="st6" d="M145.44,458.39c-0.14,0-0.26-88.86-0.26-198.45c0-109.63,0.12-198.47,0.26-198.47
					c0.14,0,0.26,88.84,0.26,198.47C145.7,369.53,145.58,458.39,145.44,458.39z"/>
			</g>
		</g>
		<g>
			<g>
				<path class="st6" d="M152.86,458.39c-0.14,0-0.26-88.86-0.26-198.45c0-109.63,0.12-198.47,0.26-198.47s0.26,88.84,0.26,198.47
					C153.12,369.53,153.01,458.39,152.86,458.39z"/>
			</g>
		</g>
		<g class="st9">
			<path class="st10" d="M218.47,208.56l-0.07-12.41l-6.02,10.11h-2.94l-5.99-9.77v12.08h-6.12v-23.42h5.45l8.23,13.52l8.03-13.52
				h5.45l0.07,23.42H218.47z"/>
			<path class="st10" d="M244.94,204.01h-9.9l-1.84,4.55h-6.76l10.34-23.42h6.52l10.37,23.42h-6.89L244.94,204.01z M243,199.13
				l-3.01-7.5l-3.01,7.5H243z"/>
			<path class="st10" d="M277.84,185.14v23.42h-5.46l-10.34-12.48v12.48h-6.49v-23.42H261l10.34,12.48v-12.48H277.84z"/>
			<path class="st10" d="M282.32,198.12v-12.98h6.63v12.78c0,4.02,1.67,5.62,4.45,5.62c2.74,0,4.42-1.61,4.42-5.62v-12.78h6.53
				v12.98c0,6.99-4.08,10.91-11.01,10.91C286.4,209.03,282.32,205.12,282.32,198.12z"/>
			<path class="st10" d="M324.02,204.01h-9.9l-1.84,4.55h-6.76l10.34-23.42h6.53l10.37,23.42h-6.89L324.02,204.01z M322.08,199.13
				l-3.01-7.5l-3.01,7.5H322.08z"/>
			<path class="st10" d="M334.63,185.14h6.62v18.17h11.18v5.25h-17.8V185.14z"/>
		</g>
		<g class="st9">
			<path class="st10" d="M207.43,164.49h1.38v13.08h-1.38V164.49z"/>
			<path class="st10" d="M224.01,164.49v13.08h-1.14l-8.41-10.62v10.62h-1.38v-13.08h1.14l8.43,10.62v-10.62H224.01z"/>
			<path class="st10" d="M227.02,175.98l0.54-1.07c0.93,0.92,2.6,1.59,4.32,1.59c2.45,0,3.51-1.03,3.51-2.32
				c0-3.59-8.06-1.38-8.06-6.22c0-1.93,1.5-3.59,4.82-3.59c1.48,0,3.01,0.43,4.06,1.16l-0.47,1.1c-1.12-0.73-2.43-1.08-3.59-1.08
				c-2.39,0-3.46,1.07-3.46,2.37c0,3.59,8.06,1.42,8.06,6.19c0,1.93-1.53,3.57-4.88,3.57C229.92,177.68,227.99,176.99,227.02,175.98
				z"/>
			<path class="st10" d="M242.13,165.68h-4.6v-1.2h10.58v1.2h-4.6v11.89h-1.38V165.68z"/>
			<path class="st10" d="M259.25,177.57l-2.99-4.21c-0.34,0.04-0.67,0.06-1.05,0.06h-3.51v4.15h-1.38v-13.08h4.9
				c3.33,0,5.35,1.68,5.35,4.49c0,2.06-1.08,3.5-2.99,4.11l3.2,4.49H259.25z M259.18,168.97c0-2.09-1.38-3.29-4-3.29h-3.48v6.56
				h3.48C257.79,172.24,259.18,171.03,259.18,168.97z"/>
			<path class="st10" d="M263.72,171.98v-7.5h1.38v7.44c0,3.1,1.46,4.52,4,4.52c2.56,0,4.02-1.42,4.02-4.52v-7.44h1.35v7.5
				c0,3.76-2.02,5.7-5.36,5.7S263.72,175.74,263.72,171.98z"/>
			<path class="st10" d="M277.48,171.03c0-3.83,2.92-6.65,6.86-6.65c1.91,0,3.63,0.64,4.79,1.91l-0.88,0.88
				c-1.07-1.08-2.37-1.55-3.87-1.55c-3.16,0-5.53,2.32-5.53,5.42c0,3.1,2.37,5.42,5.53,5.42c1.5,0,2.8-0.47,3.87-1.57l0.88,0.88
				c-1.16,1.27-2.88,1.93-4.8,1.93C280.4,177.68,277.48,174.86,277.48,171.03z"/>
			<path class="st10" d="M294.46,165.68h-4.6v-1.2h10.58v1.2h-4.6v11.89h-1.38V165.68z"/>
			<path class="st10" d="M302.65,164.49h1.38v13.08h-1.38V164.49z"/>
			<path class="st10" d="M307.13,171.03c0-3.81,2.92-6.65,6.88-6.65c3.93,0,6.86,2.82,6.86,6.65c0,3.83-2.93,6.65-6.86,6.65
				C310.05,177.68,307.13,174.84,307.13,171.03z M319.49,171.03c0-3.12-2.34-5.42-5.48-5.42c-3.16,0-5.51,2.3-5.51,5.42
				c0,3.12,2.35,5.42,5.51,5.42C317.15,176.45,319.49,174.15,319.49,171.03z"/>
			<path class="st10" d="M334.91,164.49v13.08h-1.14l-8.41-10.62v10.62h-1.38v-13.08h1.14l8.43,10.62v-10.62H334.91z"/>
		</g>
		<g class="st8">
			<rect x="145.44" y="61.47" width="7.43" height="396.92"/>
		</g>
		<g>
			<polygon class="st11" points="309,106.82 309,61.47 352.68,61.47 352.68,107.66 331.26,129.08 			"/>
		</g>
		<g>
			<g>
				<path class="st6" d="M396.03,76.74c0.14,0,0.26,84.36,0.26,188.4c0,104.08-0.12,188.42-0.26,188.42
					c-0.14,0-0.26-84.34-0.26-188.42C395.77,161.1,395.88,76.74,396.03,76.74z"/>
			</g>
		</g>
		<g>
			<g>
				<path class="st6" d="M400.5,76.74c0.14,0,0.26,84.36,0.26,188.4c0,104.08-0.12,188.42-0.26,188.42s-0.26-84.34-0.26-188.42
					C400.24,161.1,400.35,76.74,400.5,76.74z"/>
			</g>
		</g>
		<g>
			<polygon class="st11" points="396.03,131.55 406.97,131.55 416.97,139.13 408,148.09 396.03,148.09 			"/>
		</g>
		<g>
			<rect x="400.5" y="164.03" class="st7" width="20.66" height="13.76"/>
		</g>
		<g>
			<g class="st8">
				<g>
					<path d="M320.58,327.54l-12.34,12.03c-1.26,1.23-3.27,1.24-4.54,0.02l-85.03-81.36c-1.3-1.25-1.35-3.32-0.1-4.62l12.88-13.46
						c1.26-1.31,3.35-1.35,4.65-0.07l84.5,82.79C321.9,324.15,321.9,326.26,320.58,327.54z"/>
				</g>
			</g>
			<g>
				<g>
					<g>
						<path class="st6" d="M241.42,245.56c0.1,0.1-1.43,1.86-3.42,3.93c-1.99,2.07-3.69,3.67-3.79,3.57
							c-0.1-0.1,1.43-1.86,3.42-3.93C239.62,247.06,241.31,245.46,241.42,245.56z"/>
					</g>
				</g>
			</g>
			<g>
				<g>
					<g>
						<path class="st6" d="M254.93,258.57c0.1,0.1-1.43,1.86-3.42,3.93c-1.99,2.07-3.69,3.67-3.79,3.57
							c-0.1-0.1,1.43-1.86,3.42-3.93C253.13,260.07,254.83,258.48,254.93,258.57z"/>
					</g>
				</g>
			</g>
			<g>
				<g>
					<g>
						<path class="st6" d="M247.87,251.51c0.1,0.1-1.99,2.41-4.67,5.17c-2.68,2.76-4.93,4.91-5.03,4.82
							c-0.1-0.1,1.99-2.41,4.67-5.17C245.51,253.57,247.77,251.41,247.87,251.51z"/>
					</g>
				</g>
			</g>
			<g>
				<g>
					<g>
						<path class="st6" d="M261.76,265.4c0.1,0.1-1.99,2.41-4.67,5.17c-2.68,2.76-4.93,4.91-5.03,4.82c-0.1-0.1,1.99-2.41,4.67-5.17
							C259.4,267.46,261.66,265.3,261.76,265.4z"/>
					</g>
				</g>
			</g>
			<g>
				<g>
					<g>
						<path class="st6" d="M268.14,271.79c0.1,0.1-1.43,1.86-3.42,3.93c-1.99,2.07-3.69,3.67-3.79,3.57
							c-0.1-0.1,1.43-1.86,3.42-3.93C266.34,273.29,268.04,271.69,268.14,271.79z"/>
					</g>
				</g>
			</g>
			<g>
				<g>
					<g>
						<path class="st6" d="M274.97,278.62c0.1,0.1-1.99,2.41-4.67,5.17c-2.68,2.76-4.93,4.91-5.03,4.82
							c-0.1-0.1,1.99-2.41,4.67-5.17C272.62,280.67,274.87,278.52,274.97,278.62z"/>
					</g>
				</g>
			</g>
			<g>
				<g>
					<g>
						<path class="st6" d="M281.36,285c0.1,0.1-1.43,1.86-3.42,3.93c-1.99,2.07-3.69,3.67-3.79,3.57c-0.1-0.1,1.43-1.86,3.42-3.93
							C279.56,286.5,281.25,284.9,281.36,285z"/>
					</g>
				</g>
			</g>
			<g>
				<g>
					<g>
						<path class="st6" d="M288.18,291.83c0.1,0.1-1.99,2.41-4.67,5.17c-2.68,2.76-4.93,4.91-5.03,4.82
							c-0.1-0.1,1.99-2.41,4.67-5.17C285.83,293.89,288.08,291.73,288.18,291.83z"/>
					</g>
				</g>
			</g>
			<g>
				<g>
					<g>
						<path class="st6" d="M294.57,298.21c0.1,0.1-1.43,1.86-3.42,3.93c-1.99,2.07-3.69,3.67-3.79,3.57
							c-0.1-0.1,1.43-1.86,3.42-3.93C292.77,299.72,294.47,298.12,294.57,298.21z"/>
					</g>
				</g>
			</g>
			<g>
				<g>
					<g>
						<path class="st6" d="M301.4,305.04c0.1,0.1-1.99,2.41-4.67,5.17c-2.68,2.76-4.93,4.91-5.03,4.82c-0.1-0.1,1.99-2.41,4.67-5.17
							C299.04,307.1,301.3,304.94,301.4,305.04z"/>
					</g>
				</g>
			</g>
			<g>
				<g>
					<g>
						<path class="st6" d="M307.78,311.43c0.1,0.1-1.43,1.86-3.42,3.93c-1.99,2.07-3.69,3.67-3.79,3.57
							c-0.1-0.1,1.43-1.86,3.42-3.93C305.99,312.93,307.68,311.33,307.78,311.43z"/>
					</g>
				</g>
			</g>
			<g class="st8">
				<g>
					<path d="M275.71,273.23l11.91,11.16l8.03-7.87c0,0,12.88,3.96,21.15-5.14c7.52-8.27,5.28-20.3,5.28-20.3l-13.86,12.23
						l-11.73-11.73l12.37-12.83c0,0-12.09-3.87-21.58,6.86c-7.45,8.43-3.6,19.51-3.6,19.51L275.71,273.23z"/>
				</g>
			</g>
			<g class="st8">
				<g>
					<path d="M260.93,305.8c-0.3-0.52-11.89-11.13-11.89-11.13l-7.53,7.38c0,0-14.15-2.81-21.15,5.14
						c-7.84,8.91-5.28,20.3-5.28,20.3l13.86-12.23l11.73,11.73l-12.37,12.83c0,0,12.09,3.87,21.58-6.86
						c7.45-8.43,3.6-19.51,3.6-19.51L260.93,305.8z"/>
				</g>
			</g>
		</g>
		<g>
			<g>
				<path class="st4" d="M358.81,413.85c0,0.14-37.54,0.26-83.83,0.26c-46.31,0-83.84-0.12-83.84-0.26c0-0.14,37.53-0.26,83.84-0.26
					C321.27,413.59,358.81,413.71,358.81,413.85z"/>
			</g>
		</g>
		<g>
			<g>
				<path class="st4" d="M330.84,421.84c0,0.14-24.69,0.26-55.13,0.26c-30.45,0-55.14-0.12-55.14-0.26c0-0.14,24.68-0.26,55.14-0.26
					C306.15,421.58,330.84,421.69,330.84,421.84z"/>
			</g>
		</g>
		<g>
			<rect x="268.37" y="429.51" class="st0" width="13.21" height="13.21"/>
		</g>
		<g>
			<g>
				<path class="st4" d="M246.43,151.36c-1.18-0.65-2.09-1.57-2.73-2.75s-0.97-2.56-0.97-4.12v-6.04c0-1.56,0.32-2.94,0.97-4.12
					s1.56-2.1,2.73-2.75s2.54-0.97,4.08-0.97c1.54,0,2.9,0.32,4.08,0.97s2.09,1.57,2.73,2.75s0.97,2.56,0.97,4.12v6.04
					c0,1.56-0.32,2.94-0.97,4.12s-1.56,2.1-2.73,2.75s-2.54,0.97-4.08,0.97C248.97,152.34,247.61,152.01,246.43,151.36z
					 M252.42,147.86c0.55-0.31,0.97-0.74,1.27-1.31s0.45-1.22,0.45-1.96v-6.24c0-0.74-0.15-1.4-0.45-1.96s-0.72-1-1.27-1.31
					s-1.18-0.46-1.9-0.46s-1.36,0.15-1.9,0.46s-0.97,0.74-1.27,1.31s-0.45,1.22-0.45,1.96v6.24c0,0.74,0.15,1.4,0.45,1.96
					s0.72,1,1.27,1.31s1.18,0.46,1.9,0.46S251.87,148.17,252.42,147.86z"/>
				<path class="st4" d="M265.81,151.41c-1.16-0.62-2.05-1.52-2.65-2.71s-0.91-2.61-0.91-4.28v-13.59h4.01v13.7
					c0,1.22,0.33,2.17,0.98,2.84s1.58,1.01,2.77,1.01c1.2,0,2.13-0.34,2.79-1.01s0.99-1.62,0.99-2.84v-13.7h4.01v13.59
					c0,1.67-0.31,3.1-0.92,4.28s-1.5,2.09-2.67,2.71s-2.57,0.93-4.21,0.93S266.97,152.03,265.81,151.41z"/>
				<path class="st4" d="M282.2,130.8h4.01v21.31h-4.01V130.8z M283.8,139.68h7.41c0.41,0,0.77-0.1,1.08-0.31s0.55-0.5,0.72-0.88
					s0.26-0.82,0.27-1.32c0-0.5-0.09-0.94-0.26-1.32s-0.41-0.67-0.72-0.88s-0.68-0.31-1.1-0.31h-7.41v-3.87h7.73
					c1.17,0,2.2,0.26,3.09,0.79s1.58,1.27,2.07,2.23s0.73,2.08,0.73,3.35s-0.24,2.39-0.73,3.35s-1.18,1.71-2.07,2.23
					s-1.92,0.79-3.08,0.79h-7.73V139.68z M288.28,142.89l4.29-0.67l5.74,9.9h-4.86L288.28,142.89z"/>
				<path class="st4" d="M179.87,166.82h2.55l8.14,21.3h-4.32l-5.1-14.55l-5.1,14.55h-4.32L179.87,166.82z M175.64,180.84h11.21
					v3.87h-11.21V180.84z"/>
				<path class="st4" d="M196.31,187.41c-1.15-0.62-2.03-1.52-2.64-2.71s-0.91-2.62-0.91-4.3v-5.84c0-1.68,0.3-3.11,0.91-4.3
					s1.48-2.09,2.64-2.72s2.54-0.94,4.16-0.94c1.34,0,2.53,0.29,3.59,0.86s1.93,1.41,2.61,2.51s1.16,2.42,1.43,3.98h-4.16
					c-0.16-0.7-0.4-1.3-0.73-1.8s-0.72-0.88-1.19-1.14s-0.98-0.4-1.56-0.4c-0.75,0-1.39,0.15-1.92,0.46s-0.93,0.76-1.21,1.35
					s-0.42,1.3-0.42,2.13v5.84c0,0.83,0.14,1.54,0.42,2.12s0.68,1.03,1.21,1.34s1.17,0.46,1.92,0.46c0.59,0,1.11-0.13,1.58-0.39
					s0.86-0.64,1.19-1.14s0.56-1.1,0.7-1.82h4.16c-0.27,1.55-0.75,2.88-1.44,3.98s-1.56,1.94-2.61,2.51s-2.24,0.86-3.58,0.86
					C198.85,188.34,197.46,188.03,196.31,187.41z"/>
				<path class="st4" d="M211.76,166.82h4.01v21.3h-4.01V166.82z M213.62,175.62h12.41v3.87h-12.41V175.62z M223.42,166.82h4.01
					v21.3h-4.01V166.82z"/>
				<path class="st4" d="M235.99,188.12h-4.16v-21.3h4.16V188.12z"/>
				<path class="st4" d="M238.19,166.82h4.13l4.53,14.21l4.53-14.21h4.13l-7.09,21.3h-3.13L238.19,166.82z"/>
				<path class="st4" d="M257.99,166.82h4.01v21.3h-4.01V166.82z M259.44,166.82h12.82v3.87h-12.82V166.82z M259.44,175.61h11.21
					v3.87h-11.21V175.61z M259.44,184.25h12.82v3.87h-12.82V184.25z"/>
				<path class="st4" d="M289.32,166.82h5.29v21.3h-3.65v-16.54l0.15,0.94l-4.07,13.23h-3.54l-4.07-12.93l0.15-1.23v16.54h-3.65
					v-21.3h5.29l4.06,14.36L289.32,166.82z"/>
				<path class="st4" d="M299.3,166.82h4.01v21.3h-4.01V166.82z M300.75,166.82h12.82v3.87h-12.82V166.82z M300.75,175.61h11.21
					v3.87h-11.21V175.61z M300.75,184.25h12.82v3.87h-12.82V184.25z"/>
				<path class="st4" d="M317.23,166.82h4.91l7.92,16.32l-0.35,0.38v-16.7h3.84v21.28h-4.94l-7.9-16.07l0.35-0.38v16.45h-3.84
					V166.82z"/>
				<path class="st4" d="M335.31,166.82h15.62v3.87h-15.62V166.82z M341.11,168.56h4.01v19.56h-4.01V168.56z"/>
				<path class="st4" d="M356.39,188.03c-0.97-0.21-1.88-0.51-2.74-0.9c-0.86-0.4-1.62-0.87-2.29-1.43l1.86-3.31
					c0.82,0.67,1.77,1.19,2.84,1.56s2.18,0.55,3.31,0.55c1.31,0,2.32-0.22,3.05-0.67s1.08-1.07,1.08-1.88v-0.01
					c0-0.57-0.16-1.02-0.48-1.35s-0.74-0.58-1.26-0.73s-1.18-0.3-1.99-0.42c-0.03-0.01-0.06-0.01-0.08-0.01
					c-0.03,0-0.05,0-0.08-0.01l-0.32-0.04c-1.43-0.22-2.61-0.51-3.54-0.84s-1.73-0.93-2.39-1.77s-0.98-2.04-0.98-3.6v-0.01
					c0-1.38,0.31-2.55,0.92-3.53s1.51-1.72,2.68-2.23s2.59-0.77,4.25-0.77c0.76,0,1.54,0.09,2.34,0.26
					c0.79,0.18,1.57,0.43,2.34,0.76s1.48,0.73,2.17,1.2l-1.7,3.4c-0.82-0.57-1.68-1.01-2.57-1.32c-0.89-0.31-1.75-0.47-2.57-0.47
					c-1.23,0-2.18,0.2-2.86,0.61s-1.01,0.97-1.01,1.71v0.01c0,0.62,0.18,1.1,0.53,1.46s0.79,0.62,1.3,0.78s1.25,0.34,2.18,0.53
					c0.04,0.01,0.08,0.02,0.12,0.02s0.08,0.01,0.12,0.02c0.06,0.01,0.11,0.02,0.17,0.04c0.05,0.01,0.11,0.03,0.17,0.04
					c1.35,0.26,2.47,0.58,3.38,0.96c0.9,0.38,1.66,0.98,2.26,1.82s0.91,1.98,0.91,3.42v0.03c0,1.36-0.32,2.52-0.95,3.49
					s-1.56,1.7-2.78,2.21c-1.22,0.51-2.68,0.76-4.39,0.76C358.36,188.34,357.36,188.23,356.39,188.03z"/>
			</g>
		</g>
	</g>
</g>
<g id="Character">
	<g>
		<g>
			<g>
				<g>
					<g>
						<g>
							<g>
								<g>
									<g>
										<g>
											<g>
												<g>
													<g>
														<g>
															<g>
																<g>
																	<path class="st11" d="M129.89,440.12l-2.78,20.21c0,0,19.61,9.61,19.46,13.4l-39.38-3.98l3.03-31.67L129.89,440.12
																		z"/>
																</g>
															</g>
														</g>
													</g>
												</g>
											</g>
										</g>
									</g>
								</g>
							</g>
						</g>
					</g>
					<g>
						<g>
							<g>
								<g>
									<g>
										<g>
											<g>
												<g>
													<g>
														<g>
															<g>
																<g>
																	<g>
																		<path class="st0" d="M115.1,457.4c-0.78,0.13-1.4,0.94-1.3,1.72c0.1,0.79,0.91,1.42,1.7,1.3
																			c0.79-0.12,1.55-1.06,1.36-1.83c-0.19-0.77-1.18-1.46-1.91-1.16"/>
																	</g>
																</g>
															</g>
														</g>
													</g>
												</g>
											</g>
										</g>
									</g>
								</g>
							</g>
						</g>
					</g>
					<g class="st12">
						<g>
							<g>
								<g>
									<g>
										<g>
											<g>
												<g>
													<g>
														<g>
															<g>
																<g>
																	<path class="st4" d="M107.19,469.76l0.43-3.18l37.6,5c0,0,1.68,0.94,1.35,2.15L107.19,469.76z"/>
																</g>
															</g>
														</g>
													</g>
												</g>
											</g>
										</g>
									</g>
								</g>
							</g>
						</g>
					</g>
					<g>
						<g>
							<g>
								<g>
									<g>
										<g>
											<g>
												<g>
													<g>
														<g>
															<g>
																<g>
																	<g>
																		<path class="st6" d="M127.77,460.2c-0.03,0.19-1,0.18-2,0.7c-1.02,0.5-1.59,1.28-1.76,1.19
																			c-0.17-0.06,0.23-1.18,1.46-1.79C126.69,459.68,127.83,460.03,127.77,460.2z"/>
																	</g>
																</g>
															</g>
														</g>
													</g>
												</g>
											</g>
										</g>
									</g>
								</g>
							</g>
						</g>
					</g>
					<g>
						<g>
							<g>
								<g>
									<g>
										<g>
											<g>
												<g>
													<g>
														<g>
															<g>
																<g>
																	<g>
																		<path class="st6" d="M131.73,462.33c0.03,0.19-0.84,0.43-1.58,1.18c-0.76,0.73-1.01,1.59-1.2,1.56
																			c-0.18,0.01-0.2-1.13,0.73-2.04C130.6,462.11,131.74,462.14,131.73,462.33z"/>
																	</g>
																</g>
															</g>
														</g>
													</g>
												</g>
											</g>
										</g>
									</g>
								</g>
							</g>
						</g>
					</g>
					<g>
						<g>
							<g>
								<g>
									<g>
										<g>
											<g>
												<g>
													<g>
														<g>
															<g>
																<g>
																	<g>
																		<path class="st6" d="M133.57,467.51c-0.18,0.02-0.35-0.96,0.25-1.97c0.59-1.01,1.54-1.33,1.61-1.16
																			c0.09,0.17-0.55,0.68-1.03,1.51C133.9,466.7,133.77,467.51,133.57,467.51z"/>
																	</g>
																</g>
															</g>
														</g>
													</g>
												</g>
											</g>
										</g>
									</g>
								</g>
							</g>
						</g>
					</g>
					<g>
						<g>
							<g>
								<g>
									<g>
										<g>
											<g>
												<g>
													<g>
														<g>
															<g>
																<g>
																	<g>
																		<path class="st6" d="M127.89,455.52c-0.1,0.17-0.95-0.19-2.05-0.22c-1.09-0.06-1.98,0.22-2.06,0.05
																			c-0.1-0.15,0.8-0.78,2.09-0.72C127.16,454.68,128,455.38,127.89,455.52z"/>
																	</g>
																</g>
															</g>
														</g>
													</g>
												</g>
											</g>
										</g>
									</g>
								</g>
							</g>
						</g>
					</g>
				</g>
			</g>
		</g>
		<g>
			<g>
				<path class="st6" d="M76.36,303.45c0,0-7.23,51.32-3.59,59.71c2.81,6.48,7.79,9.31,14.16,10.94c9.19,2.36,23.93,4.05,23.93,4.05
					l4.96-29.57l-11.23-2.45l10.33-36.79l-18.29-12.53L76.36,303.45z"/>
			</g>
			<g>
				<path class="st6" d="M114.93,309.35l-9.05,141.77l25.01,1.27l11.15-70.33c0,0,11.87-58,12.69-65.1c0.82-7.1,0-22.14,0-22.14
					L114.93,309.35z"/>
			</g>
			<g>
				<g>
					<path class="st11" d="M114.22,320.42c0.01,0,0.01,0.09,0.01,0.28c0,0.21-0.01,0.48-0.02,0.82c-0.03,0.76-0.07,1.8-0.12,3.13
						c-0.12,2.72-0.32,6.66-0.62,11.52c-0.57,9.72-1.52,23.15-2.5,37.97c-0.45,7.42-0.88,14.48-1.27,20.91
						c-0.46,6.43-1.09,12.2-1.57,17.04c-0.49,4.84-0.84,8.77-1.06,11.48c-0.1,1.33-0.18,2.37-0.24,3.13
						c-0.03,0.33-0.05,0.6-0.07,0.81c-0.02,0.18-0.03,0.28-0.04,0.28c-0.01,0-0.01-0.09-0.01-0.28c0.01-0.21,0.01-0.48,0.02-0.82
						c0.02-0.72,0.07-1.77,0.14-3.13c0.15-2.72,0.45-6.65,0.89-11.5c0.43-4.85,1.02-10.62,1.46-17.04
						c0.39-6.42,0.72-13.5,1.23-20.92c1.04-14.81,1.97-28.21,2.65-37.96c0.33-4.83,0.59-8.75,0.78-11.51
						c0.09-1.33,0.16-2.37,0.22-3.13c0.03-0.33,0.05-0.6,0.07-0.81C114.2,320.52,114.21,320.42,114.22,320.42z"/>
				</g>
			</g>
			<g>
				<g>
					<path class="st11" d="M108.39,332.74c0.04,0.01-0.02,0.4-0.15,1.12c-0.13,0.71-0.35,1.73-0.65,2.99
						c-0.6,2.52-1.55,5.97-2.81,9.7c-1.27,3.74-2.62,7.05-3.68,9.41c-0.53,1.18-0.98,2.13-1.31,2.77c-0.33,0.64-0.52,0.99-0.56,0.98
						c-0.03-0.02,0.1-0.39,0.37-1.06c0.31-0.77,0.7-1.72,1.15-2.83c0.97-2.39,2.26-5.71,3.53-9.43c1.26-3.72,2.26-7.14,2.95-9.63
						c0.32-1.16,0.59-2.14,0.81-2.95C108.23,333.11,108.36,332.73,108.39,332.74z"/>
				</g>
			</g>
		</g>
		<g>
			<g>
				<g>
					<path class="st11" d="M99.52,178.5l-6.01,4.79c0,0-19.1,3.41-20.73,6.39l6.19,38.36l4.82,32.87c0,0-7.22,19.39-7.42,27.57
						c-0.2,8.18,0,14.97,0,14.97h3.58c8.34,0,16.35,3.22,22.37,8.98l0,0l6.59-5.99l1.29,11.38c0,0,25.86,1.6,32.45-3.39
						s15.51-15.57,15.51-15.57s1.54-26.54-6.34-39.94c-7.88-13.41-9.77-16.18-9.77-16.18s2.79-23.12,2.79-23.92
						c0-0.8,2.4-32.34,2.4-32.34l-19.84-4.99l-5.74-4.39L99.52,178.5z"/>
				</g>
				<g class="st8">
					<g>
						<path d="M83.12,262.73c2.47,2.32,5.82,3.28,9.18,2.82c2.22-0.3,4.35-1.25,6.58-1.22c3.26,0.05,6.07,2.13,8.91,3.72
							c6.12,3.42,13.37,4.79,20.31,3.83c8.02-1.11,15.32-5.16,22.12-9.56c0.49-0.32,1-0.65,1.35-1.12c0.76-1.03,0.59-2.56-0.17-3.59
							c-0.77-1.03-2.02-1.6-3.28-1.84c-2.28-0.43-4.6,0.13-6.89,0.51c-4.86,0.8-9.85,0.75-14.7-0.13
							c-6.16-1.12-12.04-3.58-18.24-4.42c-6.94-0.94-14.14,0.24-20.43,3.32c-1.35,0.66-2.69,1.44-3.67,2.57
							C83.23,258.76,82.78,261.27,83.12,262.73"/>
					</g>
				</g>
				<g>
					<g>
						<path class="st6" d="M104.7,199.34c0.01,0,0.02,0.1,0.04,0.3c0.02,0.23,0.04,0.53,0.07,0.9c0.05,0.83,0.12,1.98,0.21,3.45
							c0.16,3.04,0.4,7.37,0.69,12.7c0.53,10.76,1.27,25.56,2.08,41.91c0.19,4.09,0.38,8.09,0.57,11.95
							c0.18,3.86,0.37,7.59,0.36,11.15c0,1.78-0.05,3.52-0.16,5.2c-0.12,1.69-0.32,3.3-0.3,4.87c0.01,3.14,0.26,6.09,0.21,8.77
							c0.1,2.67,0.4,5.09,0.62,7.2c0.24,2.11,0.45,3.93,0.63,5.43c0.16,1.46,0.29,2.62,0.38,3.44c0.03,0.37,0.06,0.67,0.08,0.9
							c0.01,0.2,0.02,0.31,0.01,0.31c-0.01,0-0.03-0.1-0.06-0.3c-0.03-0.23-0.08-0.52-0.13-0.89c-0.11-0.82-0.27-1.97-0.48-3.42
							c-0.2-1.5-0.44-3.32-0.71-5.43c-0.25-2.12-0.57-4.53-0.7-7.23c0.03-2.69-0.24-5.61-0.27-8.79c-0.03-1.59,0.17-3.23,0.27-4.9
							c0.1-1.67,0.14-3.4,0.14-5.17c-0.01-3.54-0.2-7.26-0.39-11.12c-0.19-3.86-0.38-7.86-0.58-11.95
							c-0.75-16.35-1.43-31.16-1.93-41.92c-0.22-5.34-0.4-9.67-0.52-12.71c-0.05-1.47-0.09-2.63-0.12-3.46
							c-0.01-0.37-0.01-0.67-0.02-0.9C104.69,199.44,104.7,199.34,104.7,199.34z"/>
					</g>
				</g>
				<g>
					<path class="st11" d="M80.18,196.86L79.6,237l2.95,7l-2.49,19.11l-10.11-5.66c-5.01-2.81-7.99-8.32-7.34-14.03
						c0.01-0.04,0.01-0.09,0.02-0.13c0.93-7.78,2.47-20.18,3.76-28.05c2-12.18,3.39-21.76,6.39-25.55L80.18,196.86z"/>
				</g>
				<g>
					<path class="st11" d="M147.22,186.48c0,0,5.79-1.2,8.78,12.77c2.99,13.97,5.39,38.32,5.39,38.32s2.4,0.66,1.2,3.02
						c0,0-0.4,13.16-2,14.75l-16.67-9.84l-1.9-2.77L147.22,186.48z"/>
				</g>
				<g>
					<polygon class="st13" points="80.11,262.73 102.5,260.24 104.22,249.35 82.26,247.58 					"/>
				</g>
				<g>
					<g>
						<path class="st6" d="M108.54,194.47c0.03,0.02-0.24,0.43-0.75,1.14c-0.58,0.79-1.31,1.8-2.19,3
							c-0.96,1.29-2.07,2.78-3.29,4.42c-0.09,0.12-0.27,0.28-0.5,0.29c-0.21,0.01-0.39-0.08-0.52-0.16
							c-0.26-0.19-0.42-0.37-0.63-0.56c-0.4-0.37-0.8-0.77-1.17-1.2c-0.78-0.84-1.47-1.8-2.13-2.82c-2.58-4.14-3.36-8.63-3.26-11.77
							c0.01-1.58,0.25-2.85,0.43-3.71c0.22-0.85,0.36-1.32,0.4-1.31c0.12,0.02-0.5,1.9-0.46,5.02c0,3.09,0.82,7.46,3.34,11.5
							c0.65,0.99,1.31,1.93,2.07,2.75c0.36,0.43,0.75,0.81,1.14,1.18c0.19,0.18,0.39,0.4,0.56,0.52c0.2,0.11,0.24,0.13,0.37-0.02
							c1.24-1.65,2.41-3.11,3.38-4.35c0.93-1.16,1.71-2.14,2.32-2.9C108.19,194.81,108.52,194.45,108.54,194.47z"/>
					</g>
				</g>
				<g>
					<g>
						<path class="st6" d="M127.38,181.49c0.02,0,0.04,0.14,0.06,0.4c0.03,0.27,0.04,0.66,0.04,1.17c-0.01,1.01-0.14,2.5-0.64,4.25
							c-0.49,1.76-1.34,3.75-2.32,5.92c-0.98,2.19-2.25,4.5-3.7,6.85c-0.72,1.17-1.46,2.31-2.17,3.39
							c-0.18,0.27-0.35,0.54-0.53,0.81c-0.19,0.26-0.3,0.53-0.6,0.82c-0.15,0.14-0.4,0.23-0.63,0.19c-0.23-0.04-0.4-0.15-0.53-0.27
							c-0.27-0.25-0.42-0.5-0.61-0.73c-1.42-1.89-2.71-3.6-3.81-5.07c-1.03-1.4-1.88-2.56-2.53-3.44c-0.59-0.82-0.9-1.28-0.87-1.31
							c0.03-0.02,0.39,0.4,1.03,1.18c0.69,0.86,1.58,1.99,2.66,3.34c1.13,1.45,2.44,3.14,3.9,5c0.35,0.48,0.77,1.03,1.06,0.72
							c0.16-0.14,0.33-0.46,0.5-0.71c0.17-0.27,0.35-0.54,0.52-0.81c0.71-1.09,1.43-2.22,2.15-3.39c1.45-2.33,2.72-4.62,3.71-6.77
							c1-2.16,1.88-4.12,2.4-5.83C127.54,183.77,127.25,181.48,127.38,181.49z"/>
					</g>
				</g>
				<g>
					<g>
						<path class="st6" d="M96.12,197.05c0.02,0.08-1.06,0.26-2.67,1.01c-1.6,0.73-3.72,2.14-5.33,4.44l-0.15,0.21l-0.22-0.16
							c-0.53-0.39-1.1-0.79-1.73-1.12c-2.9-1.58-6.01-1.81-8.14-1.57c-2.15,0.26-3.4,0.85-3.43,0.75c-0.01-0.03,0.29-0.19,0.86-0.44
							c0.58-0.22,1.43-0.51,2.53-0.68c2.17-0.35,5.41-0.18,8.44,1.47c0.65,0.34,1.24,0.76,1.79,1.17l-0.37,0.05
							c1.7-2.38,3.95-3.78,5.62-4.45c0.84-0.34,1.54-0.53,2.03-0.62C95.84,197.04,96.11,197.02,96.12,197.05z"/>
					</g>
				</g>
				<g>
					<g>
						<path class="st6" d="M146.51,199.52c-0.04,0.1-1.29-0.95-3.72-1.02c-1.2-0.03-2.63,0.19-4.1,0.78c-1.48,0.57-3,1.47-4.57,2.47
							c-0.16,0.1-0.32,0.21-0.47,0.3l-0.2,0.13l-0.15-0.19c-2.19-2.81-5.42-3.99-7.67-4.2c-2.3-0.25-3.71,0.22-3.72,0.11
							c-0.01-0.03,0.33-0.16,0.97-0.3c0.64-0.14,1.6-0.25,2.78-0.17c1.18,0.08,2.59,0.39,4.03,1.06c1.43,0.66,2.88,1.73,4.02,3.18
							l-0.35-0.06c0.15-0.1,0.31-0.2,0.48-0.3c1.57-1,3.14-1.91,4.68-2.48c1.54-0.59,3.05-0.78,4.29-0.7
							c1.25,0.08,2.22,0.44,2.83,0.76C146.25,199.22,146.53,199.5,146.51,199.52z"/>
					</g>
				</g>
				<g>
					<g>
						<path class="st6" d="M141.11,286.62c0.01,0.01-0.12,0.13-0.39,0.32c-0.32,0.23-0.71,0.51-1.17,0.85
							c-0.26,0.19-0.55,0.39-0.86,0.6c-0.32,0.21-0.69,0.41-1.07,0.64c-0.78,0.44-1.63,1-2.67,1.47c-0.51,0.25-1.04,0.5-1.59,0.77
							c-0.56,0.26-1.16,0.47-1.78,0.73c-1.22,0.53-2.58,0.92-4.01,1.37c-2.88,0.79-6.12,1.4-9.56,1.62
							c-3.45,0.18-6.74-0.04-9.69-0.48c-1.47-0.28-2.87-0.51-4.14-0.89c-0.64-0.18-1.27-0.32-1.85-0.51
							c-0.58-0.2-1.14-0.39-1.67-0.58c-1.08-0.34-2-0.79-2.82-1.14c-0.41-0.18-0.79-0.34-1.14-0.51c-0.33-0.18-0.64-0.35-0.92-0.5
							c-0.51-0.28-0.92-0.51-1.27-0.7c-0.29-0.17-0.43-0.26-0.42-0.28c0.01-0.02,0.17,0.05,0.47,0.18c0.35,0.17,0.78,0.37,1.31,0.62
							c0.29,0.14,0.6,0.29,0.94,0.46c0.35,0.16,0.74,0.3,1.15,0.47c0.83,0.32,1.75,0.75,2.83,1.06c0.53,0.17,1.09,0.35,1.67,0.54
							c0.58,0.18,1.21,0.31,1.84,0.48c1.27,0.36,2.66,0.57,4.11,0.83c2.92,0.41,6.18,0.62,9.58,0.44c3.4-0.22,6.61-0.81,9.46-1.57
							c1.41-0.43,2.77-0.8,3.98-1.31c0.61-0.24,1.22-0.44,1.77-0.69c0.55-0.26,1.08-0.5,1.59-0.74c1.03-0.44,1.89-0.97,2.68-1.39
							c0.39-0.22,0.76-0.4,1.08-0.6c0.32-0.2,0.61-0.39,0.88-0.56c0.49-0.31,0.89-0.56,1.23-0.77
							C140.94,286.69,141.1,286.61,141.11,286.62z"/>
					</g>
				</g>
				<g>
					<g>
						<path class="st6" d="M135,272.52c0.02,0.03-0.39,0.43-1.16,1.15c-0.38,0.36-0.86,0.8-1.45,1.26
							c-0.59,0.47-1.23,1.03-2.01,1.55c-0.76,0.55-1.61,1.15-2.56,1.72c-0.93,0.61-1.98,1.16-3.08,1.76
							c-2.23,1.13-4.75,2.22-7.5,3.09c-2.76,0.85-5.45,1.4-7.93,1.74c-1.24,0.13-2.42,0.28-3.53,0.31
							c-1.11,0.08-2.14,0.07-3.08,0.05c-0.94,0.01-1.79-0.08-2.54-0.13c-0.75-0.04-1.39-0.12-1.91-0.21
							c-1.04-0.15-1.62-0.25-1.61-0.29c0.01-0.04,0.59,0,1.63,0.08c0.52,0.05,1.16,0.1,1.9,0.12c0.74,0.02,1.59,0.09,2.52,0.05
							c0.94-0.01,1.96-0.02,3.06-0.11c1.1-0.05,2.26-0.21,3.49-0.35c2.44-0.36,5.11-0.92,7.84-1.76c2.72-0.87,5.22-1.93,7.44-3.02
							c1.09-0.58,2.14-1.11,3.07-1.7c0.96-0.55,1.8-1.12,2.58-1.65c0.79-0.5,1.45-1.04,2.05-1.48c0.6-0.44,1.1-0.84,1.5-1.18
							C134.52,272.85,134.98,272.49,135,272.52z"/>
					</g>
				</g>
				<g>
					<g>
						<path class="st6" d="M75.22,200.38c0.04,0,0.12,0.47,0.24,1.33c0.13,0.96,0.29,2.19,0.49,3.65c0.42,3.18,0.98,7.39,1.59,12.04
							c0.67,4.64,1.27,8.84,1.73,12.02c0.21,1.46,0.38,2.68,0.52,3.64c0.11,0.86,0.16,1.34,0.13,1.35
							c-0.04,0.01-0.15-0.46-0.33-1.31c-0.18-0.85-0.41-2.09-0.68-3.62c-0.55-3.06-1.23-7.3-1.88-12.01
							c-0.65-4.7-1.14-8.97-1.44-12.06c-0.15-1.55-0.26-2.8-0.32-3.67C75.21,200.86,75.19,200.38,75.22,200.38z"/>
					</g>
				</g>
				<g>
					<g>
						<path class="st6" d="M147.19,192.28c0.02,0,0.02,0.18,0.01,0.51c-0.02,0.39-0.05,0.87-0.08,1.45
							c-0.08,1.26-0.22,3.08-0.41,5.34c-0.38,4.5-0.99,10.72-1.81,17.56c-0.82,6.85-1.68,13.03-2.36,17.5
							c-0.34,2.23-0.63,4.04-0.85,5.28c-0.11,0.57-0.19,1.05-0.26,1.43c-0.07,0.33-0.11,0.5-0.13,0.49c-0.02,0-0.01-0.18,0.02-0.51
							c0.04-0.39,0.1-0.87,0.17-1.45c0.17-1.33,0.41-3.12,0.69-5.3c0.59-4.48,1.39-10.66,2.21-17.51
							c0.81-6.84,1.48-13.04,1.96-17.54c0.24-2.19,0.43-3.98,0.57-5.32c0.07-0.58,0.13-1.05,0.18-1.44
							C147.14,192.45,147.17,192.28,147.19,192.28z"/>
					</g>
				</g>
				<g>
					<g>
						<g>
							<polygon class="st7" points="150.75,224.48 122.14,241.72 114.75,239.64 80.83,233.1 73.82,255.35 100.51,257.87 
								112.28,263.51 117.97,261.05 142.79,243.99 							"/>
						</g>
						<g>
							<g>
								<path class="st6" d="M112.27,263.43c-0.07-0.03,0.47-1.25,1.34-3.2c0.88-1.95,2.09-4.65,3.38-7.64
									c1.29-3,2.42-5.73,3.24-7.7c0.82-1.98,1.34-3.2,1.4-3.17c0.03,0.01-0.05,0.33-0.23,0.91c-0.18,0.57-0.46,1.39-0.83,2.4
									c-0.73,2.01-1.81,4.77-3.11,7.78c-1.3,3-2.56,5.68-3.52,7.59c-0.48,0.96-0.88,1.73-1.18,2.25
									C112.48,263.16,112.3,263.44,112.27,263.43z"/>
							</g>
						</g>
						<g>
							<g>
								<path class="st6" d="M111.47,247.14c-0.13-0.05,0.39-1.72,1.18-3.72c0.78-2,1.53-3.58,1.66-3.53
									c0.13,0.05-0.39,1.72-1.18,3.72C112.34,245.61,111.6,247.19,111.47,247.14z"/>
							</g>
						</g>
						<g>
							<path class="st0" d="M118.19,240.61c0,0,0.86-3.42,3.45-4.74c2.59-1.32,24.07-12.51,24.07-12.51l2.55,2.62l-26.12,15.74
								L118.19,240.61z"/>
						</g>
						<g>
							<path class="st0" d="M83.78,233.67l4.35-2.18c0,0,12.32-1.33,19.44,0c7.13,1.33,10.85,5.32,10.62,9.12L83.78,233.67z"/>
						</g>
					</g>
					<g>
						<g>
							<path class="st13" d="M134.27,242.86c0,0-3.22,1.14-4.93,4.93c-1.71,3.79-2.84,5.68-4.93,7.01
								c-2.08,1.33-3.22,2.27-5.68,1.14c-2.46-1.14-6.46-4.86-8.34-5.17c-1.12-0.18-1.51,1.56-1.51,1.56s-4.93-3.28-6.63-2.68
								c-1.71,0.6-0.19,1.93,0.95,3.25c1.14,1.33,1.89,2.65,1.89,2.65c0.37-0.16-3.43-3.73-5.76-2.98
								c-1.53,0.49-1.07,1.77-1.07,1.77l2.85,2.1c0,0-1.52,2.71-0.19,3.28c1.33,0.57,10.8,7.2,12.89,7.2
								c2.08,0,11.56,1.71,15.54,0.76c3.98-0.95,8.42-2.31,8.42-2.31s15.65-5.08,20.38-11.15l-14.21-8.72
								c0,0-9.47,12.32-10.04,10.99s-1.14-4.17-0.57-7.01C133.89,246.65,135.91,241.94,134.27,242.86z"/>
						</g>
						<g>
							<g>
								<path class="st14" d="M121.14,261.37c-0.01,0.06-0.89-0.07-2.2-0.64c-1.33-0.55-2.91-1.73-4.69-2.87
									c-1.85-1.13-3.31-2.46-4.27-3.51c-0.92-1.11-1.19-1.99-1.1-2.01c0.05-0.02,0.42,0.76,1.38,1.77
									c0.99,0.95,2.46,2.21,4.28,3.32c1.82,1.17,3.33,2.37,4.57,2.98C120.33,261.04,121.17,261.29,121.14,261.37z"/>
							</g>
						</g>
						<g>
							<g>
								<path class="st14" d="M117.91,265.37c-0.04,0.06-0.81-0.39-2.01-1.18c-1.2-0.79-2.82-1.94-4.56-3.29
									c-1.74-1.35-3.25-2.63-4.32-3.59c-1.07-0.96-1.69-1.6-1.64-1.65c0.05-0.06,0.76,0.48,1.88,1.37
									c1.28,1.01,2.77,2.18,4.4,3.46c1.66,1.26,3.15,2.41,4.45,3.4C117.25,264.76,117.95,265.31,117.91,265.37z"/>
							</g>
						</g>
						<g>
							<g>
								<path class="st14" d="M110.01,264.11c-0.12,0.1-1.83-1.97-4.33-4.1c-2.49-2.14-4.79-3.51-4.72-3.65
									c0.06-0.12,2.52,1.07,5.05,3.25C108.57,261.79,110.12,264.04,110.01,264.11z"/>
							</g>
						</g>
					</g>
				</g>
			</g>
			<g>
				<g>
					<path class="st6" d="M112.88,208.4c-0.04,0-0.06-0.25-0.19-0.67c-0.13-0.41-0.42-0.99-1.04-1.44c-0.6-0.44-1.56-0.68-2.48-0.33
						c-0.91,0.32-1.7,1.3-1.69,2.43c-0.01,1.13,0.77,2.11,1.69,2.43c0.92,0.35,1.89,0.11,2.48-0.33c0.62-0.44,0.91-1.03,1.04-1.44
						C112.83,208.65,112.84,208.39,112.88,208.4c0.03,0,0.09,0.25,0.01,0.72c-0.08,0.45-0.34,1.13-1.02,1.68
						c-0.65,0.55-1.76,0.88-2.87,0.49c-1.1-0.35-2.06-1.52-2.04-2.88c-0.01-1.37,0.95-2.53,2.04-2.88c1.1-0.39,2.22-0.06,2.87,0.49
						c0.67,0.55,0.94,1.23,1.02,1.68C112.97,208.14,112.91,208.4,112.88,208.4z"/>
				</g>
			</g>
			<g>
				<g>
					<path class="st6" d="M113.89,227.48c-0.04,0-0.06-0.25-0.19-0.67c-0.13-0.41-0.43-0.99-1.04-1.44
						c-0.6-0.44-1.56-0.68-2.48-0.33c-0.91,0.32-1.7,1.3-1.69,2.43c-0.01,1.13,0.77,2.11,1.69,2.43c0.92,0.35,1.89,0.11,2.48-0.33
						c0.62-0.44,0.91-1.03,1.04-1.44C113.83,227.73,113.84,227.48,113.89,227.48c0.03,0,0.09,0.25,0.01,0.72
						c-0.08,0.45-0.34,1.13-1.02,1.68c-0.65,0.55-1.76,0.88-2.87,0.49c-1.1-0.35-2.06-1.52-2.04-2.88
						c-0.01-1.37,0.95-2.53,2.04-2.88c1.1-0.39,2.22-0.06,2.87,0.49c0.67,0.55,0.94,1.23,1.02,1.68
						C113.97,227.23,113.91,227.48,113.89,227.48z"/>
				</g>
			</g>
			<g>
				<g>
					<path class="st6" d="M115.76,272.69c-0.04,0-0.06-0.25-0.19-0.67c-0.13-0.41-0.42-0.99-1.04-1.44
						c-0.6-0.44-1.56-0.68-2.48-0.33c-0.91,0.32-1.7,1.3-1.69,2.43c-0.01,1.13,0.77,2.11,1.69,2.43c0.92,0.35,1.89,0.11,2.48-0.33
						c0.62-0.44,0.91-1.03,1.04-1.44C115.71,272.95,115.72,272.69,115.76,272.69c0.03,0,0.09,0.25,0.01,0.72
						c-0.08,0.45-0.34,1.13-1.02,1.68c-0.65,0.55-1.76,0.88-2.87,0.49c-1.1-0.35-2.06-1.52-2.04-2.88
						c-0.01-1.37,0.95-2.53,2.04-2.88c1.1-0.39,2.22-0.06,2.87,0.49c0.67,0.55,0.94,1.23,1.02,1.68
						C115.85,272.44,115.79,272.7,115.76,272.69z"/>
				</g>
			</g>
			<g>
				<g>
					<path class="st6" d="M115.33,290.5c-0.04,0-0.06-0.25-0.19-0.67c-0.13-0.41-0.42-0.99-1.04-1.44c-0.6-0.44-1.56-0.68-2.48-0.33
						c-0.91,0.32-1.7,1.3-1.69,2.43c-0.01,1.13,0.77,2.11,1.69,2.43c0.92,0.35,1.89,0.11,2.48-0.33c0.62-0.44,0.91-1.03,1.04-1.44
						C115.27,290.75,115.28,290.49,115.33,290.5c0.03,0,0.09,0.25,0.01,0.72c-0.08,0.45-0.34,1.13-1.02,1.68
						c-0.65,0.55-1.76,0.88-2.87,0.49c-1.1-0.35-2.06-1.52-2.04-2.88c-0.01-1.37,0.95-2.53,2.04-2.88c1.11-0.39,2.22-0.06,2.87,0.49
						c0.67,0.55,0.94,1.23,1.02,1.68C115.41,290.24,115.35,290.5,115.33,290.5z"/>
				</g>
			</g>
		</g>
		<g>
			<g>
				<g>
					<g>
						<path class="st6" d="M90.05,129.56c0.99-3.64,3.52-6.83,6.83-8.64c3.64-1.99,8.03-2.27,12.09-1.46
							c4.06,0.81,7.85,2.65,11.43,4.73c2.01,1.16,4.02,2.44,5.46,4.26c2.64,3.32,3,7.85,3.26,12.08c0.21,3.42,0.38,7.01-1.07,10.12
							c-1.33,2.85-4.02,5.03-7.09,5.74"/>
					</g>
				</g>
			</g>
			<g>
				<g>
					<g>
						<path class="st6" d="M127.24,146.73c4-4.56,6.02-10.79,5.45-16.83c-0.19-2.03-0.75-4.18-2.31-5.49
							c-0.8-0.67-1.79-1.06-2.6-1.71c-1.48-1.19-2.21-3.1-3.62-4.37c-1.44-1.3-3.57-1.8-5.43-1.26c-1.87,0.53-3.41,2.07-3.95,3.94
							c-0.74,2.57,0.37,5.28,1.45,7.72c1.68,3.78,3.35,7.56,5.03,11.34c0.63,1.42,1.28,2.87,2.31,4.03
							c1.03,1.16,2.54,2.01,4.08,1.87"/>
					</g>
				</g>
			</g>
			<g>
				<g>
					<g>
						<path class="st6" d="M91.77,127.02c-2.97,3.22-4.81,7.47-5.11,11.85c-0.31,4.37,0.91,8.84,3.4,12.45
							c2.11-9.29,5.03-18.4,8.72-27.18"/>
					</g>
				</g>
			</g>
			<g>
				<g>
					<g>
						<g>
							<g>
								<g>
									<path class="st13" d="M88.16,139.66c0.44-6.74,4.92-15,11.64-14.28l15.54,3.96c4.99,1.27,8.31,5.48,8.67,10.61
										c0.02,0.26,0.04-0.06,0.04,0.14l-1.05,38.05l-14.46,16.32l0,0l-9.92-15.26c-0.01-3.28-0.01-5.89-0.01-5.88
										c0,0-8.61-1.45-10.37-12.69C87.38,155.05,87.68,147.15,88.16,139.66z"/>
								</g>
							</g>
						</g>
					</g>
				</g>
			</g>
			<g>
				<g>
					<g>
						<g>
							<path class="st14" d="M103.61,136.14c0.02,0.07-1.42,0.49-3.26,0.67c-1.84,0.19-3.33,0.07-3.33,0c0-0.08,1.49-0.09,3.3-0.27
								C102.14,136.36,103.59,136.06,103.61,136.14z"/>
						</g>
					</g>
				</g>
			</g>
			<g>
				<g>
					<g>
						<g>
							<path class="st14" d="M101.1,135.74c0.02,0.07-0.88,0.31-2.02,0.37c-1.14,0.06-2.06-0.08-2.05-0.15
								c0.01-0.08,0.92-0.06,2.04-0.12C100.18,135.78,101.08,135.66,101.1,135.74z"/>
						</g>
					</g>
				</g>
			</g>
			<g>
				<g>
					<g>
						<g>
							<path class="st14" d="M105.78,157.99c-0.08,0.01-0.17-0.45-0.63-0.74c-0.44-0.31-0.9-0.22-0.92-0.29
								c-0.01-0.03,0.1-0.11,0.3-0.14c0.21-0.03,0.51,0.02,0.77,0.2c0.27,0.18,0.43,0.44,0.48,0.64
								C105.84,157.86,105.81,157.99,105.78,157.99z"/>
						</g>
					</g>
				</g>
			</g>
			<g>
				<g>
					<g>
						<g>
							<g>
								<g>
									<g>
										<g>
											<g>
												<g>
													<g>
														<g>
															<g>
																<g>
																	<path class="st6" d="M92.32,148.39c-0.03,0.76,0.59,1.41,1.39,1.46c0.79,0.04,1.46-0.53,1.49-1.3
																		c0.03-0.76-0.59-1.41-1.38-1.46C93.01,147.05,92.35,147.63,92.32,148.39z"/>
																</g>
															</g>
														</g>
													</g>
												</g>
											</g>
										</g>
									</g>
								</g>
							</g>
						</g>
					</g>
				</g>
			</g>
			<g>
				<g>
					<g>
						<g>
							<g>
								<g>
									<g>
										<g>
											<g>
												<g>
													<g>
														<g>
															<g>
																<g>
																	<g>
																		<path class="st6" d="M90.14,144.43c0.18,0.19,1.27-0.62,2.82-0.61c1.55-0.01,2.69,0.79,2.85,0.6
																			c0.08-0.08-0.1-0.42-0.59-0.79c-0.49-0.36-1.32-0.71-2.28-0.71c-0.97,0-1.78,0.36-2.25,0.72
																			C90.22,144.01,90.05,144.34,90.14,144.43z"/>
																	</g>
																</g>
															</g>
														</g>
													</g>
												</g>
											</g>
										</g>
									</g>
								</g>
							</g>
						</g>
					</g>
				</g>
			</g>
			<g>
				<g>
					<g>
						<g>
							<g>
								<g>
									<g>
										<g>
											<g>
												<g>
													<g>
														<g>
															<g>
																<g>
																	<path class="st6" d="M106.78,148.39c-0.03,0.76,0.59,1.41,1.39,1.46c0.79,0.04,1.46-0.54,1.49-1.3
																		c0.03-0.76-0.59-1.41-1.39-1.46C107.47,147.05,106.8,147.63,106.78,148.39z"/>
																</g>
															</g>
														</g>
													</g>
												</g>
											</g>
										</g>
									</g>
								</g>
							</g>
						</g>
					</g>
				</g>
			</g>
			<g>
				<g>
					<g>
						<g>
							<g>
								<g>
									<g>
										<g>
											<g>
												<g>
													<g>
														<g>
															<g>
																<g>
																	<g>
																		<path class="st6" d="M105.39,144.75c0.18,0.19,1.27-0.62,2.82-0.61c1.55-0.01,2.69,0.79,2.85,0.6
																			c0.08-0.08-0.1-0.42-0.59-0.79c-0.49-0.36-1.32-0.71-2.28-0.71c-0.97,0-1.78,0.36-2.25,0.72
																			C105.46,144.33,105.3,144.67,105.39,144.75z"/>
																	</g>
																</g>
															</g>
														</g>
													</g>
												</g>
											</g>
										</g>
									</g>
								</g>
							</g>
						</g>
					</g>
				</g>
			</g>
			<g>
				<g>
					<g>
						<g>
							<g>
								<g>
									<g>
										<g>
											<g>
												<g>
													<g>
														<g>
															<g>
																<g>
																	<g>
																		<path class="st6" d="M99.73,156.24c0.01-0.09-0.96-0.26-2.52-0.46c-0.4-0.04-0.77-0.12-0.84-0.39
																			c-0.09-0.29,0.07-0.71,0.27-1.17c0.37-0.96,0.77-1.96,1.18-3.01c1.64-4.29,2.82-7.82,2.65-7.88
																			c-0.17-0.06-1.64,3.36-3.28,7.65c-0.39,1.06-0.77,2.07-1.13,3.03c-0.15,0.45-0.41,0.96-0.21,1.55
																			c0.11,0.3,0.4,0.51,0.65,0.58c0.25,0.08,0.48,0.08,0.67,0.09C98.75,156.32,99.73,156.33,99.73,156.24z"/>
																	</g>
																</g>
															</g>
														</g>
													</g>
												</g>
											</g>
										</g>
									</g>
								</g>
							</g>
						</g>
					</g>
				</g>
			</g>
			<g>
				<g>
					<g>
						<path class="st14" d="M113.52,169.33c0,0-3.66,7.72-14.9,6.64l0-2.64C98.62,173.33,106.02,173.82,113.52,169.33z"/>
					</g>
				</g>
			</g>
			<g>
				<g>
					<g>
						<g>
							<g>
								<g>
									<g>
										<g>
											<g>
												<g>
													<g>
														<g>
															<g>
																<g>
																	<path class="st14" d="M100.38,159.98c0.56-0.74,1.54-1.14,2.51-1.03c0.67,0.07,1.35,0.4,1.76,0.95
																		c0.41,0.55,0.49,1.33,0.12,1.85c-0.42,0.59-1.29,0.72-2.03,0.51c-0.74-0.21-1.38-0.7-1.98-1.19
																		c-0.17-0.13-0.34-0.28-0.44-0.46c-0.1-0.18-0.13-0.42,0-0.58"/>
																</g>
															</g>
														</g>
													</g>
												</g>
											</g>
										</g>
									</g>
								</g>
							</g>
						</g>
					</g>
				</g>
			</g>
			<g>
				<g>
					<g>
						<g>
							<g>
								<g>
									<g>
										<g>
											<g>
												<g>
													<g>
														<g>
															<g>
																<g>
																	<g>
																		<path class="st6" d="M104.29,157.32c-0.25-0.02-0.26,1.67-1.7,2.86c-1.44,1.2-3.24,1-3.25,1.24
																			c-0.02,0.11,0.4,0.33,1.16,0.35c0.74,0.03,1.83-0.21,2.71-0.94c0.88-0.73,1.26-1.71,1.32-2.4
																			C104.6,157.73,104.41,157.31,104.29,157.32z"/>
																	</g>
																</g>
															</g>
														</g>
													</g>
												</g>
											</g>
										</g>
									</g>
								</g>
							</g>
						</g>
					</g>
				</g>
			</g>
			<g>
				<g>
					<g>
						<g>
							<g>
								<g>
									<g>
										<g>
											<g>
												<g>
													<g>
														<path class="st6" d="M105.01,140.21c0.15,0.42,1.7,0.23,3.52,0.45c1.82,0.19,3.29,0.72,3.53,0.35
															c0.11-0.18-0.15-0.58-0.74-0.99c-0.59-0.41-1.52-0.8-2.62-0.92c-1.09-0.12-2.09,0.05-2.76,0.32
															C105.28,139.68,104.95,140.01,105.01,140.21z"/>
													</g>
												</g>
											</g>
										</g>
									</g>
								</g>
							</g>
						</g>
					</g>
				</g>
			</g>
			<g>
				<g>
					<g>
						<g>
							<g>
								<g>
									<g>
										<g>
											<g>
												<g>
													<g>
														<path class="st6" d="M90.72,139.94c0.27,0.35,1.34-0.01,2.63-0.02c1.28-0.06,2.37,0.24,2.62-0.13
															c0.11-0.18-0.06-0.53-0.54-0.87c-0.47-0.33-1.25-0.61-2.13-0.58c-0.88,0.03-1.65,0.34-2.1,0.7
															C90.75,139.41,90.6,139.77,90.72,139.94z"/>
													</g>
												</g>
											</g>
										</g>
									</g>
								</g>
							</g>
						</g>
					</g>
				</g>
			</g>
			<g>
				<g>
					<g>
						<path class="st6" d="M91.22,129.39c0.69-1.69,2.54-2.71,4.37-2.8s3.6,0.6,5.18,1.51c6.69,3.87,10.46,11.55,17.07,15.55
							c1.63,0.98,3.42,1.74,4.8,3.05s2.28,3.39,1.52,5.13c0.89-1.22,1.79-2.46,2.29-3.88c0.51-1.42,0.57-3.07-0.19-4.38
							c-0.57-0.99-1.58-1.75-1.86-2.86c-0.24-0.98,0.14-2,0.1-3c-0.04-1.02-0.52-1.97-1.03-2.87c-2.59-4.58-6.15-8.72-10.74-11.3
							c-3-1.68-6.43-2.67-9.86-2.55c-3.44,0.12-6.87,1.38-9.38,3.72C92.01,126.1,90.45,127.52,91.22,129.39"/>
					</g>
				</g>
			</g>
			<g>
				<g>
					<g>
						<g>
							<path class="st11" d="M124.07,151.87c-0.01-0.01,0.13-0.15,0.35-0.46c0.22-0.3,0.52-0.78,0.73-1.47
								c0.45-1.35,0.46-3.54-0.62-5.88c-0.51-1.18-1.22-2.39-1.96-3.72c-0.75-1.32-1.4-2.82-2.06-4.38
								c-0.67-1.56-1.36-3.22-2.35-4.76c-0.97-1.56-2.24-3.01-3.72-4.28c-2.96-2.56-6.53-4.04-9.86-4.54
								c-3.35-0.5-6.49-0.01-8.75,1.18c-2.28,1.18-3.59,2.93-4.21,4.2c-0.32,0.64-0.48,1.18-0.58,1.54
								c-0.09,0.37-0.13,0.56-0.14,0.56c0,0,0-0.05,0.01-0.15c0.02-0.1,0.03-0.24,0.07-0.43c0.08-0.37,0.23-0.92,0.54-1.57
								c0.6-1.3,1.9-3.1,4.22-4.33c2.29-1.24,5.49-1.76,8.88-1.26c3.38,0.49,7.01,1.99,10.01,4.59c1.5,1.28,2.79,2.76,3.77,4.34
								c1.01,1.57,1.7,3.24,2.36,4.81c0.65,1.57,1.29,3.05,2.02,4.37c0.72,1.33,1.43,2.55,1.94,3.75c1.07,2.38,1.03,4.63,0.54,5.99
								c-0.23,0.69-0.54,1.17-0.78,1.47C124.22,151.74,124.07,151.87,124.07,151.87z"/>
						</g>
					</g>
				</g>
			</g>
			<g>
				<g>
					<g>
						<g>
							<path class="st11" d="M129.25,145.98c-0.01,0-0.01-0.11,0-0.32c0.01-0.24,0.02-0.54,0.04-0.92c0.03-0.79,0.07-1.95,0.02-3.36
								c-0.04-1.42-0.17-3.11-0.54-4.94c-0.39-1.82-1.07-3.81-2.41-5.5c-1.31-1.71-2.9-3.06-4.31-4.29
								c-1.42-1.23-2.75-2.28-3.9-3.11c-1.15-0.83-2.13-1.44-2.81-1.84c-0.32-0.19-0.58-0.34-0.79-0.46
								c-0.18-0.11-0.27-0.16-0.27-0.17c0-0.01,0.11,0.03,0.3,0.12c0.19,0.09,0.47,0.23,0.82,0.42c0.7,0.38,1.7,0.97,2.87,1.78
								c1.17,0.81,2.52,1.86,3.95,3.08c1.42,1.23,3.03,2.57,4.37,4.32c1.37,1.73,2.06,3.78,2.44,5.62c0.37,1.86,0.47,3.56,0.49,4.99
								c0.02,1.43-0.05,2.58-0.11,3.38c-0.03,0.4-0.06,0.71-0.09,0.91C129.28,145.87,129.26,145.98,129.25,145.98z"/>
						</g>
					</g>
				</g>
			</g>
			<g>
				<g>
					<g>
						<g>
							<path class="st11" d="M124.32,118.83c0.03-0.01,0.18,0.47,0.31,1.27c0.13,0.8,0.22,1.93,0.15,3.16
								c-0.08,1.24-0.3,2.35-0.52,3.13c-0.22,0.78-0.43,1.24-0.46,1.23c-0.09-0.02,0.57-1.92,0.71-4.37
								C124.66,120.81,124.23,118.84,124.32,118.83z"/>
						</g>
					</g>
				</g>
			</g>
			<g>
				<g>
					<g>
						<g>
							<path class="st11" d="M132.22,127.15c0.03,0.01-0.07,0.39-0.38,0.94c-0.31,0.55-0.86,1.24-1.64,1.81
								c-0.78,0.57-1.61,0.89-2.22,1.02c-0.61,0.13-1.01,0.11-1.01,0.08c0-0.05,0.38-0.1,0.96-0.27c0.58-0.17,1.36-0.51,2.11-1.05
								c0.74-0.55,1.29-1.19,1.63-1.69C132.02,127.48,132.18,127.14,132.22,127.15z"/>
						</g>
					</g>
				</g>
			</g>
			<g>
				<g>
					<g>
						<g>
							<path class="st11" d="M132.78,134.71c0.02,0.06-0.95,0.43-2.24,0.41c-1.28-0.05-2.23-0.48-2.21-0.53
								c0.02-0.09,1,0.21,2.22,0.25C131.77,134.86,132.76,134.62,132.78,134.71z"/>
						</g>
					</g>
				</g>
			</g>
			<g>
				<g>
					<g>
						<g>
							<path class="st6" d="M127.89,154.35c-0.27-0.13-0.14-0.88-0.1-2.08c0.01-0.59-0.01-1.32-0.24-1.97
								c-0.06-0.16-0.12-0.31-0.21-0.45c-0.03-0.08-0.09-0.13-0.13-0.2c-0.04-0.06-0.12-0.17-0.19-0.26
								c-0.28-0.37-0.59-0.75-0.93-1.08c-0.33-0.33-0.73-0.61-0.97-0.68c-0.12-0.04-0.15,0-0.1,0.02c-0.13,0.03-0.26,0.05-0.39,0.08
								c-0.14,0.03-0.28,0.07-0.42,0.1c-0.56,0.14-1.07,0.33-1.6,0.6c-0.26,0.14-0.53,0.29-0.8,0.46l-0.2,0.13l-0.35,0.21
								c-0.24,0.13-0.47,0.24-0.71,0.34c-0.97,0.38-1.98,0.6-3.16,0.53c-0.59-0.04-1.23-0.16-1.89-0.48l-0.24-0.12l-0.19-0.12
								c-0.13-0.08-0.26-0.15-0.38-0.24c-0.25-0.17-0.48-0.36-0.7-0.56c-0.88-0.8-1.47-1.74-1.93-2.63
								c-0.46-0.89-0.8-1.76-1.12-2.55c-1.24-3.07-2.97-5.73-4.83-7.93c-1.86-2.2-3.85-3.92-5.63-5.22
								c-1.79-1.34-3.3-2.13-4.43-2.54c-1.12-0.42-1.85-0.53-1.89-0.83c-0.05-0.26,0.67-0.73,2.14-0.77
								c1.46-0.05,3.54,0.49,5.71,1.63c2.19,1.11,4.65,2.79,6.94,5.16c2.28,2.35,4.4,5.39,5.84,8.92c0.35,0.85,0.65,1.62,0.97,2.27
								c0.32,0.65,0.66,1.17,1.02,1.52c0.09,0.09,0.18,0.16,0.27,0.24c0.04,0.04,0.09,0.06,0.14,0.1l0.07,0.05l0.03,0.02
								c0.08,0.05,0.24,0.11,0.46,0.14c0.43,0.06,1.01-0.01,1.48-0.16c0.12-0.04,0.23-0.08,0.33-0.13l0.15-0.07l0.28-0.15
								c0.38-0.2,0.77-0.38,1.17-0.55c0.8-0.33,1.66-0.55,2.45-0.65c0.2-0.03,0.39-0.05,0.58-0.07l0.28-0.02l0.32-0.02
								c0.72-0.04,1.34,0.18,1.78,0.42c0.9,0.51,1.38,1.11,1.8,1.67c0.41,0.56,0.71,1.11,0.97,1.65c0.06,0.14,0.12,0.25,0.18,0.42
								c0.06,0.17,0.13,0.33,0.17,0.49c0.09,0.32,0.14,0.63,0.17,0.93c0.08,1.18-0.2,2.07-0.48,2.74
								C128.78,153.96,128.13,154.47,127.89,154.35z"/>
						</g>
					</g>
				</g>
			</g>
			<g>
				<g>
					<g>
						<g>
							<g>
								<g>
									<g>
										<g>
											<g>
												<g>
													<g>
														<g>
															<g>
																<g>
																	<g>
																		<g>
																			<g>
																				<path class="st13" d="M122.48,148.1c0.12-0.32,5.98-2.44,6.06,3.79c0.08,6.05-6.03,4.86-6.04,4.69
																					C122.48,156.41,122.48,148.1,122.48,148.1z"/>
																			</g>
																		</g>
																	</g>
																</g>
															</g>
														</g>
													</g>
												</g>
											</g>
										</g>
									</g>
								</g>
							</g>
						</g>
					</g>
				</g>
				<g>
					<g>
						<g>
							<g>
								<g>
									<g>
										<g>
											<g>
												<g>
													<g>
														<g>
															<g>
																<g>
																	<g>
																		<g>
																			<g>
																				<g>
																					<path class="st14" d="M124.34,154.27c0.03-0.02,0.11,0.07,0.29,0.15c0.17,0.08,0.47,0.13,0.79,0.01
																						c0.64-0.24,1.17-1.26,1.19-2.35c0.01-0.55-0.11-1.07-0.31-1.51c-0.19-0.44-0.48-0.75-0.8-0.8
																						c-0.32-0.07-0.55,0.12-0.62,0.29c-0.08,0.17-0.04,0.29-0.07,0.3c-0.02,0.02-0.13-0.1-0.08-0.35
																						c0.02-0.12,0.09-0.26,0.23-0.38c0.14-0.12,0.36-0.18,0.58-0.16c0.47,0.03,0.89,0.45,1.11,0.93
																						c0.24,0.48,0.39,1.06,0.38,1.68c-0.03,1.22-0.64,2.37-1.51,2.63c-0.42,0.12-0.78-0.01-0.97-0.15
																						C124.35,154.42,124.32,154.28,124.34,154.27z"/>
																				</g>
																			</g>
																		</g>
																	</g>
																</g>
															</g>
														</g>
													</g>
												</g>
											</g>
										</g>
									</g>
								</g>
							</g>
						</g>
					</g>
				</g>
			</g>
			<g>
				<g>
					<g>
						<g>
							<path class="st11" d="M127.14,148.01c-0.02,0.01-0.07-0.16-0.26-0.41c-0.18-0.25-0.53-0.59-1.09-0.8
								c-0.55-0.21-1.3-0.31-2.14-0.19c-0.85,0.1-1.73,0.53-2.72,0.98c-0.98,0.43-2.12,0.97-3.45,0.87c-1.32-0.1-2.6-0.84-3.58-1.91
								c-0.99-1.08-1.63-2.5-2.14-3.97c-0.5-1.48-0.96-3.02-1.57-4.55c-1.19-3.06-2.78-5.83-4.77-7.87
								c-1.96-2.07-4.33-3.26-6.41-3.78c-1.04-0.26-2.01-0.36-2.87-0.36c-0.85,0.02-1.59,0.12-2.17,0.26
								c-1.17,0.29-1.76,0.62-1.78,0.58c0,0,0.03-0.03,0.11-0.06c0.09-0.04,0.2-0.09,0.33-0.16c0.29-0.14,0.73-0.31,1.32-0.47
								c0.59-0.16,1.33-0.27,2.19-0.31c0.87-0.01,1.86,0.07,2.92,0.33c2.11,0.5,4.54,1.7,6.54,3.8c2.03,2.06,3.64,4.86,4.84,7.94
								c0.61,1.54,1.07,3.1,1.57,4.56c0.5,1.46,1.12,2.84,2.08,3.89c0.94,1.04,2.16,1.76,3.41,1.86c1.25,0.1,2.37-0.4,3.35-0.82
								c0.98-0.43,1.9-0.86,2.78-0.95c0.87-0.11,1.63,0.01,2.2,0.24c0.57,0.24,0.92,0.6,1.09,0.87c0.09,0.13,0.14,0.25,0.17,0.32
								C127.14,147.97,127.15,148.01,127.14,148.01z"/>
						</g>
					</g>
				</g>
			</g>
			<g>
				<g>
					<g>
						<g>
							<path class="st11" d="M124.88,144.99c0,0.01-0.13-0.06-0.37-0.2c-0.23-0.15-0.59-0.34-1.01-0.65
								c-0.85-0.61-2.02-1.58-3.27-2.97c-1.26-1.39-2.57-3.18-4-5.19c-1.43-2-3-4.22-5-6.22c-1.02-0.98-2.09-1.86-3.22-2.55
								c-1.13-0.7-2.32-1.21-3.48-1.58c-2.33-0.75-4.57-0.91-6.41-0.79c-1.85,0.12-3.32,0.51-4.3,0.84
								c-0.5,0.15-0.87,0.32-1.12,0.42c-0.25,0.1-0.39,0.15-0.4,0.14c0-0.01,0.12-0.07,0.37-0.19c0.25-0.11,0.61-0.3,1.11-0.47
								c0.98-0.37,2.45-0.79,4.32-0.94c1.86-0.15,4.13-0.01,6.5,0.74c1.18,0.37,2.39,0.89,3.55,1.59c1.16,0.7,2.25,1.59,3.28,2.58
								c2.02,2.03,3.59,4.26,5.01,6.27c1.41,2.02,2.71,3.82,3.93,5.21c1.22,1.4,2.36,2.38,3.19,3.02c0.41,0.31,0.76,0.52,0.98,0.68
								C124.77,144.9,124.89,144.98,124.88,144.99z"/>
						</g>
					</g>
				</g>
			</g>
			<g>
				<g>
					<g>
						<g>
							<path class="st4" d="M125.02,155.34c0.59-0.11,1.23,0.3,1.37,0.88c0.15,0.58-0.22,1.24-0.79,1.43
								c-0.57,0.18-1.26-0.15-1.47-0.7c-0.22-0.56,0.07-1.26,0.61-1.51"/>
						</g>
					</g>
				</g>
				<g>
					<g>
						<g>
							<g>
								<path class="st6" d="M124.74,155.43c0.03,0.04-0.39,0.21-0.54,0.81c-0.07,0.29-0.03,0.67,0.24,0.95
									c0.25,0.28,0.71,0.45,1.13,0.32c0.41-0.13,0.69-0.54,0.73-0.92c0.06-0.38-0.13-0.72-0.36-0.91
									c-0.47-0.41-0.92-0.3-0.91-0.35c0-0.01,0.09-0.06,0.28-0.07c0.19,0,0.48,0.05,0.76,0.26c0.27,0.2,0.54,0.61,0.49,1.09
									c-0.04,0.47-0.36,0.97-0.9,1.15c-0.55,0.17-1.1-0.06-1.4-0.42c-0.33-0.36-0.34-0.85-0.24-1.17
									c0.11-0.33,0.31-0.55,0.46-0.65C124.63,155.43,124.74,155.42,124.74,155.43z"/>
							</g>
						</g>
					</g>
				</g>
			</g>
		</g>
	</g>
</g>
<g id="Plant">
	<g>
		<g>
			<path class="st6" d="M450.72,393.56c0.89-3.07,2.79-6.05,5.73-7.31c3.06-1.32,6.6-0.57,9.73,0.57c3.13,1.14,6.2,2.66,9.52,2.86
				c3.32,0.21,7.07-1.37,8.07-4.55c0.94-2.99-0.87-6.17-3.12-8.34c-4.74-4.56-11.85-6.49-18.25-4.96
				c-6.39,1.53-11.86,6.49-14.01,12.7"/>
		</g>
		<g>
			<path class="st11" d="M424.4,406.9c-4.87-4.63-4.63-12.69-2.2-18.96c2.43-6.27,7.74-11.08,13.67-14.25
				c11.49-6.15,25.85-6.61,37.72-1.22c-5.83,0.19-11.46,3.5-14.47,8.5c-2.67,4.44-3.26,9.82-5.47,14.5
				c-2.46,5.22-6.97,9.44-12.34,11.54C435.92,409.11,429.75,409.07,424.4,406.9"/>
		</g>
		<g>
			<path class="st11" d="M422.06,379.09c-5.4-6.37-6.11-16.6-5.32-24.91c0.79-8.31,2.72-16.67,1.41-24.92
				c-0.78-4.88-2.67-9.55-3.31-14.45c-0.64-4.9,0.27-10.45,4.07-13.62c4.37-3.64,11.25-2.78,15.79,0.64
				c4.54,3.42,7.18,8.78,9.1,14.13c4.23,11.75,5.78,24.78,2.31,36.78c-3.47,12-11.62,22.72-23.57,26.34"/>
		</g>
		<g>
			<g>
				<path class="st6" d="M419.47,431.35c-0.02,0-0.03-0.25-0.03-0.73c0-0.48,0-1.19,0.03-2.11c0.06-1.83,0.24-4.47,0.64-7.72
					c0.41-3.25,1.05-7.09,2.07-11.3c1-4.22,2.72-8.71,5.16-13.09c2.44-4.38,5.42-8.16,8.43-11.27c3.02-3.11,6.11-5.54,8.84-7.34
					c1.35-0.93,2.65-1.64,3.78-2.29c1.15-0.6,2.16-1.1,2.98-1.49c0.81-0.34,1.45-0.61,1.94-0.81c0.45-0.18,0.68-0.27,0.69-0.25
					s-0.22,0.14-0.65,0.35c-0.48,0.23-1.11,0.52-1.9,0.9c-0.81,0.42-1.8,0.94-2.93,1.56c-1.1,0.68-2.39,1.4-3.71,2.34
					c-2.69,1.83-5.73,4.26-8.7,7.37c-2.97,3.1-5.91,6.85-8.32,11.19c-4.96,8.67-6.32,17.79-7.31,24.19
					c-0.45,3.23-0.68,5.86-0.81,7.68c-0.05,0.87-0.1,1.57-0.13,2.1C419.51,431.1,419.48,431.35,419.47,431.35z"/>
			</g>
		</g>
		<g>
			<g>
				<path class="st6" d="M372.92,353.96c-9.98,6.02-9.95,11.51-8.29,16.68c1.67,5.18,7.8,8.77,12.88,6.83
					c2.87-1.1,4.95-3.59,6.73-6.1c1.78-2.51,3.45-5.19,5.94-6.99c2.49-1.8,6.1-2.49,8.6-0.7"/>
			</g>
			<g>
				<path class="st11" d="M365.45,360.56c2.61-3.61,9.06-4.65,13.13-2.85s7.06,5.37,9.73,8.93c2.67,3.56,5.27,7.33,8.97,9.8
					c3.7,2.48,8.86,3.38,12.55,0.88c2.42-1.64,3.82-4.49,4.26-7.38c0.44-2.89,0.02-5.84-0.59-8.71c-0.88-4.19-2.32-8.56-5.67-11.22
					c-3.73-2.97-8.92-3.11-13.68-2.95c-5.47,0.18-11.02,0.59-16.15,2.48C372.86,351.45,367.63,355.54,365.45,360.56"/>
			</g>
			<g>
				<g>
					<path class="st6" d="M411.17,423.35c-0.02,0-0.04-0.3-0.07-0.86c-0.02-0.61-0.05-1.44-0.09-2.48c-0.07-2.2-0.16-5.3-0.27-9.11
						c-0.12-3.85-0.28-8.43-0.56-13.51c-0.29-5.08-0.66-10.66-1.43-16.47c-0.39-2.9-0.85-5.74-1.65-8.36
						c-0.81-2.63-1.88-5.07-3.06-7.32c-2.34-4.5-5.26-8.08-8.06-10.68c-2.83-2.59-5.53-4.17-7.46-5.1
						c-0.96-0.48-1.74-0.78-2.27-0.98c-0.53-0.21-0.8-0.33-0.79-0.35c0.01-0.02,0.29,0.07,0.83,0.25c0.54,0.17,1.34,0.44,2.32,0.9
						c1.97,0.88,4.73,2.43,7.62,5.01c2.87,2.6,5.85,6.2,8.24,10.73c1.2,2.26,2.29,4.72,3.12,7.39c0.82,2.68,1.29,5.53,1.68,8.44
						c0.77,5.84,1.14,11.43,1.4,16.52c0.25,5.09,0.37,9.67,0.45,13.52c0.08,3.85,0.1,6.97,0.11,9.12c0,1.04,0,1.87,0,2.48
						C411.2,423.05,411.19,423.35,411.17,423.35z"/>
				</g>
			</g>
		</g>
		<g>
			<g>
				<path class="st6" d="M414.76,427.86c0,0-0.57-1.48-1.11-4.29c-0.52-2.8-0.92-6.96-0.47-12.05c0.42-5.09,1.72-11.07,3.8-17.49
					c2.05-6.43,4.83-13.3,7.2-20.68c1.18-3.69,2.18-7.35,2.87-10.93c0.7-3.59,1.14-7.09,1.42-10.43c0.56-6.7,0.49-12.76,0.33-17.85
					c-0.17-5.08-0.44-9.2-0.6-12.04c-0.08-1.39-0.14-2.49-0.19-3.27c-0.01-0.35-0.03-0.63-0.04-0.85c-0.01-0.19,0-0.29,0.01-0.29
					c0.01,0,0.02,0.1,0.05,0.29c0.02,0.22,0.05,0.5,0.09,0.85c0.07,0.78,0.16,1.88,0.28,3.27c0.23,2.84,0.55,6.95,0.77,12.04
					c0.21,5.09,0.32,11.17-0.22,17.9c-0.27,3.36-0.7,6.88-1.4,10.49c-0.68,3.61-1.69,7.29-2.87,11c-2.38,7.41-5.18,14.27-7.24,20.67
					c-2.09,6.38-3.42,12.31-3.89,17.37c-0.49,5.06-0.16,9.18,0.3,11.98c0.24,1.4,0.46,2.48,0.66,3.2c0.08,0.34,0.15,0.61,0.2,0.83
					C414.75,427.76,414.77,427.86,414.76,427.86z"/>
			</g>
		</g>
		<g>
			<polygon class="st6" points="439.51,432.38 392.63,432.38 391.56,423.35 439.51,423.35 			"/>
		</g>
		<g>
			<polygon class="st6" points="397.66,431.35 403.53,458.42 429,458.42 434.48,431.35 			"/>
		</g>
		<g>
			<g>
				<path class="st11" d="M439.51,432.38c0,0.14-10.31,0.23-23.02,0.2c-12.72-0.04-23.02-0.18-23.02-0.32
					c0-0.14,10.31-0.23,23.02-0.2C429.21,432.09,439.51,432.23,439.51,432.38z"/>
			</g>
		</g>
		<g>
			<g>
				<path class="st11" d="M431.47,445.74c-0.07,0.1-1.4-1.26-4.14-2.34c-1.36-0.54-3.08-0.96-5.01-1c-1.93-0.06-4.03,0.4-6.16,1.13
					c-2.14,0.72-4.13,1.56-6.08,2.02c-1.96,0.42-3.78,0.39-5.26,0.15c-1.49-0.24-2.64-0.68-3.38-1.08
					c-0.36-0.21-0.64-0.38-0.81-0.52c-0.17-0.13-0.26-0.21-0.25-0.23c0.04-0.09,1.55,1.11,4.49,1.47c1.45,0.18,3.22,0.18,5.1-0.25
					c1.87-0.47,3.87-1.32,6.02-2.05c2.15-0.74,4.33-1.21,6.34-1.12c2,0.07,3.76,0.54,5.14,1.14c1.39,0.58,2.4,1.28,3.05,1.79
					c0.33,0.26,0.57,0.48,0.72,0.63C431.4,445.64,431.48,445.72,431.47,445.74z"/>
			</g>
		</g>
		<g>
			<g>
				<path class="st4" d="M431.11,447.54c-0.07,0.1-1.35-1.22-3.98-2.31c-1.31-0.54-2.97-0.95-4.83-0.99
					c-1.87-0.05-3.9,0.37-5.96,1.08c-2.06,0.69-4,1.49-5.86,1.99c-1.85,0.5-3.6,0.68-5.06,0.56c-1.46-0.1-2.6-0.52-3.31-0.9
					c-0.35-0.2-0.62-0.37-0.79-0.51c-0.17-0.13-0.25-0.21-0.24-0.22c0.03-0.04,0.39,0.22,1.12,0.54c0.72,0.31,1.83,0.66,3.25,0.71
					c1.41,0.07,3.1-0.14,4.91-0.65c1.81-0.51,3.73-1.32,5.82-2.02c2.08-0.71,4.2-1.14,6.13-1.06c1.93,0.06,3.64,0.53,4.96,1.13
					c1.33,0.59,2.3,1.28,2.92,1.78c0.32,0.25,0.55,0.47,0.69,0.62C431.05,447.45,431.12,447.53,431.11,447.54z"/>
			</g>
		</g>
		<g>
			<g>
				<path class="st4" d="M431.93,443.94c-0.06,0.09-1.45-1.28-4.25-2.47c-1.39-0.59-3.15-1.11-5.14-1.23
					c-1.99-0.14-4.16,0.37-6.36,1.12c-2.21,0.74-4.26,1.64-6.3,2.05c-2.04,0.37-3.91,0.25-5.43,0c-1.53-0.27-2.72-0.71-3.49-1.12
					c-0.38-0.21-0.67-0.38-0.84-0.53c-0.18-0.14-0.27-0.22-0.26-0.23c0.03-0.04,0.42,0.23,1.19,0.58c0.78,0.34,1.95,0.72,3.45,0.93
					c1.5,0.2,3.33,0.27,5.28-0.11c1.94-0.42,4-1.33,6.22-2.07c2.21-0.76,4.48-1.28,6.55-1.11c2.06,0.15,3.85,0.72,5.26,1.37
					c1.42,0.64,2.45,1.36,3.13,1.9c0.34,0.27,0.59,0.49,0.75,0.65C431.86,443.84,431.94,443.93,431.93,443.94z"/>
			</g>
		</g>
	</g>
</g>
</svg>
