<?xml version="1.0" encoding="utf-8"?>
<!-- Generator: Adobe Illustrator 25.1.0, SVG Export Plug-In . SVG Version: 6.00 Build 0)  -->
<svg version="1.1" xmlns="http://www.w3.org/2000/svg" xmlns:xlink="http://www.w3.org/1999/xlink" x="0px" y="0px"
	 viewBox="0 0 750 500" style="enable-background:new 0 0 750 500;" xml:space="preserve">
<style type="text/css">
	.Graphic_x0020_Style_x0020_2{fill:none;}
	.st0{fill:#E5E7E6;}
	.st1{clip-path:url(#SVGID_2_);}
	.st2{fill:#DEE0DF;}
	.st3{fill:#EDEFEE;}
	.st4{fill:#FBFBFB;}
</style>
<g id="BACKGROUND">
	<rect class="st0" width="750" height="500"/>
</g>
<g id="OBJECTS">
	<g>
		<defs>
			<rect id="SVGID_1_" width="750" height="500"/>
		</defs>
		<clipPath id="SVGID_2_">
			<use xlink:href="#SVGID_1_"  style="overflow:visible;"/>
		</clipPath>
		<g class="st1">
			<path class="st2" d="M721.1,377.3h40.2c3.2,0,5.9,2.6,5.9,5.9v40.2c0,3.2-2.6,5.9-5.9,5.9h-40.2c-3.2,0-5.9-2.6-5.9-5.9v-40.2
				C715.2,379.9,717.9,377.3,721.1,377.3z"/>
			<path class="st3" d="M620.8,109.7H661c3.2,0,5.9,2.6,5.9,5.9v40.2c0,3.2-2.6,5.9-5.9,5.9h-40.2c-3.2,0-5.9-2.6-5.9-5.9v-40.2
				C615,112.3,617.6,109.7,620.8,109.7z"/>
			<path class="st2" d="M635.5,232.8H690c4.4,0,7.9,3.6,7.9,7.9v54.5c0,4.4-3.6,7.9-7.9,7.9h-54.5c-4.4,0-7.9-3.6-7.9-7.9v-54.5
				C627.5,236.4,631.1,232.8,635.5,232.8z"/>
			<path class="st2" d="M725.8,255.6h54.5c4.4,0,7.9,3.6,7.9,7.9v54.5c0,4.4-3.6,7.9-7.9,7.9h-54.5c-4.4,0-7.9-3.6-7.9-7.9v-54.5
				C717.9,259.2,721.4,255.6,725.8,255.6z"/>
			<path class="st2" d="M707.3,5.9h54.5c4.4,0,7.9,3.6,7.9,7.9v54.5c0,4.4-3.6,7.9-7.9,7.9h-54.5c-4.4,0-7.9-3.6-7.9-7.9V13.9
				C699.4,9.5,703,5.9,707.3,5.9z"/>
			<path class="st2" d="M392.3,368h54.5c4.4,0,7.9,3.6,7.9,7.9v54.5c0,4.4-3.6,7.9-7.9,7.9h-54.5c-4.4,0-7.9-3.6-7.9-7.9V376
				C384.3,371.6,387.9,368,392.3,368z"/>
			<path class="st3" d="M-27.3,381.3h54.5c4.4,0,7.9,3.6,7.9,7.9v54.5c0,4.4-3.6,7.9-7.9,7.9h-54.5c-4.4,0-7.9-3.6-7.9-7.9v-54.5
				C-35.2,384.9-31.7,381.3-27.3,381.3z"/>
			<g>
				<path class="st3" d="M643.6,518.6h-76c-6.6,0-11.9-5.3-11.9-11.9v-76c0-6.6,5.3-11.9,11.9-11.9h76c6.6,0,11.9,5.3,11.9,11.9v76
					C655.5,513.3,650.2,518.6,643.6,518.6z M567.6,420.5c-5.7,0-10.3,4.6-10.3,10.3v76c0,5.7,4.6,10.3,10.3,10.3h76
					c5.7,0,10.3-4.6,10.3-10.3v-76c0-5.7-4.6-10.3-10.3-10.3H567.6z"/>
			</g>
			<g>
				<path class="st2" d="M315.8,540h-76c-6.6,0-11.9-5.3-11.9-11.9v-76c0-6.6,5.3-11.9,11.9-11.9h76c6.6,0,11.9,5.3,11.9,11.9v76
					C327.7,534.6,322.3,540,315.8,540z M239.8,441.8c-5.7,0-10.3,4.6-10.3,10.3v76c0,5.7,4.6,10.3,10.3,10.3h76
					c5.7,0,10.3-4.6,10.3-10.3v-76c0-5.7-4.6-10.3-10.3-10.3H239.8z"/>
			</g>
			<g>
				<path class="st2" d="M613.8,390.5h-48.5c-4.3,0-7.9-3.5-7.9-7.9v-48.5c0-4.3,3.5-7.9,7.9-7.9h48.5c4.3,0,7.9,3.5,7.9,7.9v48.5
					C621.6,387,618.1,390.5,613.8,390.5z M565.3,327.9c-3.4,0-6.3,2.8-6.3,6.3v48.5c0,3.5,2.8,6.3,6.3,6.3h48.5
					c3.4,0,6.3-2.8,6.3-6.3v-48.5c0-3.4-2.8-6.3-6.3-6.3H565.3z"/>
			</g>
			<g>
				<path class="st2" d="M710.8,247.2h-48.5c-4.3,0-7.9-3.5-7.9-7.9v-48.5c0-4.3,3.5-7.9,7.9-7.9h48.5c4.3,0,7.9,3.5,7.9,7.9v48.5
					C718.7,243.7,715.1,247.2,710.8,247.2z M662.3,184.6c-3.4,0-6.3,2.8-6.3,6.3v48.5c0,3.4,2.8,6.3,6.3,6.3h48.5
					c3.4,0,6.3-2.8,6.3-6.3v-48.5c0-3.4-2.8-6.3-6.3-6.3H662.3z"/>
			</g>
			<g>
				<path class="st2" d="M678.9,30.2h-48.5c-4.3,0-7.9-3.5-7.9-7.9v-48.5c0-4.3,3.5-7.9,7.9-7.9h48.5c4.3,0,7.9,3.5,7.9,7.9v48.5
					C686.8,26.7,683.3,30.2,678.9,30.2z M630.4-32.4c-3.4,0-6.3,2.8-6.3,6.3v48.5c0,3.4,2.8,6.3,6.3,6.3h48.5c3.4,0,6.3-2.8,6.3-6.3
					v-48.5c0-3.4-2.8-6.3-6.3-6.3H630.4z"/>
			</g>
			<g>
				<path class="st3" d="M310.5,330H109.1C92.5,330,79,316.5,79,299.9V98.6c0-16.6,13.5-30.2,30.2-30.2h201.3
					c16.6,0,30.2,13.5,30.2,30.2v201.3C340.6,316.5,327.1,330,310.5,330z M109.1,70c-15.7,0-28.5,12.8-28.5,28.5v201.3
					c0,15.7,12.8,28.5,28.5,28.5h201.3c15.7,0,28.5-12.8,28.5-28.5V98.6c0-15.7-12.8-28.5-28.5-28.5H109.1z"/>
			</g>
			<g>
				<path class="st3" d="M577.7,87.6H376.3c-16.6,0-30.2-13.5-30.2-30.2v-201.3c0-16.6,13.5-30.2,30.2-30.2h201.3
					c16.6,0,30.2,13.5,30.2,30.2V57.5C607.8,74.1,594.3,87.6,577.7,87.6z M376.3-172.4c-15.7,0-28.5,12.8-28.5,28.5V57.5
					c0,15.7,12.8,28.5,28.5,28.5h201.3c15.7,0,28.5-12.8,28.5-28.5v-201.3c0-15.7-12.8-28.5-28.5-28.5H376.3z"/>
			</g>
			<g>
				<path class="st2" d="M728.3,517.3h-48.5c-4.3,0-7.9-3.5-7.9-7.9V461c0-4.3,3.5-7.9,7.9-7.9h48.5c4.3,0,7.9,3.5,7.9,7.9v48.5
					C736.1,513.8,732.6,517.3,728.3,517.3z M679.8,454.7c-3.4,0-6.3,2.8-6.3,6.3v48.5c0,3.4,2.8,6.3,6.3,6.3h48.5
					c3.4,0,6.3-2.8,6.3-6.3V461c0-3.4-2.8-6.3-6.3-6.3H679.8z"/>
			</g>
			<g>
				<path class="st2" d="M471.7,507.7h-12.7c-1.5,0-2.7-1.2-2.7-2.7v-12.7c0-1.5,1.2-2.7,2.7-2.7h12.7c1.5,0,2.7,1.2,2.7,2.7V505
					C474.3,506.5,473.1,507.7,471.7,507.7z M458.9,491.2c-0.6,0-1,0.5-1,1V505c0,0.6,0.5,1,1,1h12.7c0.6,0,1-0.5,1-1v-12.7
					c0-0.6-0.5-1-1-1H458.9z"/>
			</g>
			<path class="st2" d="M433.2,480h12.7c1,0,1.9,0.8,1.9,1.9v12.7c0,1-0.8,1.9-1.9,1.9h-12.7c-1,0-1.9-0.8-1.9-1.9v-12.7
				C431.3,480.8,432.1,480,433.2,480z"/>
			<path class="st3" d="M629.7,309.2h12.7c1,0,1.9,0.8,1.9,1.9v12.7c0,1-0.8,1.9-1.9,1.9h-12.7c-1,0-1.9-0.8-1.9-1.9V311
				C627.8,310,628.6,309.2,629.7,309.2z"/>
			<path class="st3" d="M567.7,253.4h12.7c1,0,1.9,0.8,1.9,1.9V268c0,1-0.8,1.9-1.9,1.9h-12.7c-1,0-1.9-0.8-1.9-1.9v-12.7
				C565.8,254.3,566.7,253.4,567.7,253.4z"/>
			<path class="st2" d="M604.3,427.5H617c1,0,1.9,0.8,1.9,1.9v12.7c0,1-0.8,1.9-1.9,1.9h-12.7c-1,0-1.9-0.8-1.9-1.9v-12.7
				C602.4,428.3,603.2,427.5,604.3,427.5z"/>
			<path class="st2" d="M556.2,266h6.5c0.5,0,0.9,0.4,0.9,0.9v6.5c0,0.5-0.4,0.9-0.9,0.9h-6.5c-0.5,0-0.9-0.4-0.9-0.9v-6.5
				C555.2,266.4,555.6,266,556.2,266z"/>
			<path class="st2" d="M587.9,439.6h6.5c0.5,0,0.9,0.4,0.9,0.9v6.5c0,0.5-0.4,0.9-0.9,0.9h-6.5c-0.5,0-0.9-0.4-0.9-0.9v-6.5
				C587,440,587.4,439.6,587.9,439.6z"/>
			<path class="st2" d="M542.9,491.6h6.5c0.5,0,0.9,0.4,0.9,0.9v6.5c0,0.5-0.4,0.9-0.9,0.9h-6.5c-0.5,0-0.9-0.4-0.9-0.9v-6.5
				C542,492,542.4,491.6,542.9,491.6z"/>
			<path class="st2" d="M637.6,210.9h6.5c0.5,0,0.9,0.4,0.9,0.9v6.5c0,0.5-0.4,0.9-0.9,0.9h-6.5c-0.5,0-0.9-0.4-0.9-0.9v-6.5
				C636.7,211.3,637.1,210.9,637.6,210.9z"/>
			<path class="st2" d="M469.1,465h26c2.1,0,3.8,1.7,3.8,3.8v26c0,2.1-1.7,3.8-3.8,3.8h-26c-2.1,0-3.8-1.7-3.8-3.8v-26
				C465.3,466.7,467,465,469.1,465z"/>
			<g>
				<path class="st2" d="M478.2,351.7h-12.7c-1.5,0-2.7-1.2-2.7-2.7v-12.7c0-1.5,1.2-2.7,2.7-2.7h12.7c1.5,0,2.7,1.2,2.7,2.7v12.7
					C480.9,350.5,479.7,351.7,478.2,351.7z M465.5,335.3c-0.6,0-1,0.5-1,1v12.7c0,0.6,0.5,1,1,1h12.7c0.6,0,1-0.5,1-1v-12.7
					c0-0.6-0.5-1-1-1H465.5z"/>
			</g>
			<path class="st2" d="M457.3,263.5H470c1,0,1.9,0.8,1.9,1.9v12.7c0,1-0.8,1.9-1.9,1.9h-12.7c-1,0-1.9-0.8-1.9-1.9v-12.7
				C455.4,264.4,456.3,263.5,457.3,263.5z"/>
			<path class="st2" d="M664.6,41.8h12.7c1,0,1.9,0.8,1.9,1.9v12.7c0,1-0.8,1.9-1.9,1.9h-12.7c-1,0-1.9-0.8-1.9-1.9V43.6
				C662.7,42.6,663.6,41.8,664.6,41.8z"/>
			<path class="st2" d="M475.7,309.1h26c2.1,0,3.8,1.7,3.8,3.8v26c0,2.1-1.7,3.8-3.8,3.8h-26c-2.1,0-3.8-1.7-3.8-3.8v-26
				C471.9,310.8,473.6,309.1,475.7,309.1z"/>
		</g>
		<g class="st1">
			<g>
				<path class="st2" d="M12.2,119.9h-40.2c-3.2,0-5.9-2.6-5.9-5.9V73.9c0-3.2,2.6-5.9,5.9-5.9h40.2c3.2,0,5.9,2.6,5.9,5.9V114
					C18.1,117.3,15.5,119.9,12.2,119.9z"/>
				<path class="st2" d="M119.1,270.5H64.5c-4.4,0-7.9-3.6-7.9-7.9V208c0-4.4,3.6-7.9,7.9-7.9h54.5c4.4,0,7.9,3.6,7.9,7.9v54.5
					C127,267,123.5,270.5,119.1,270.5z"/>
				<path class="st2" d="M28.7,251h-54.5c-4.4,0-7.9-3.6-7.9-7.9v-54.5c0-4.4,3.6-7.9,7.9-7.9h54.5c4.4,0,7.9,3.6,7.9,7.9V243
					C36.7,247.4,33.1,251,28.7,251z"/>
				<g>
					<path class="st2" d="M186.9,84.4h-76c-6.6,0-11.9-5.3-11.9-11.9v-76c0-6.6,5.3-11.9,11.9-11.9h76c6.6,0,11.9,5.3,11.9,11.9v76
						C198.8,79.1,193.4,84.4,186.9,84.4z M110.9-13.7c-5.7,0-10.3,4.6-10.3,10.3v76c0,5.7,4.6,10.3,10.3,10.3h76
						c5.7,0,10.3-4.6,10.3-10.3v-76c0-5.7-4.6-10.3-10.3-10.3H110.9z"/>
				</g>
				<g>
					<path class="st2" d="M189.2,177.1h-48.5c-4.3,0-7.9-3.5-7.9-7.9v-48.5c0-4.3,3.5-7.9,7.9-7.9h48.5c4.3,0,7.9,3.5,7.9,7.9v48.5
						C197.1,173.5,193.6,177.1,189.2,177.1z M140.8,114.5c-3.4,0-6.3,2.8-6.3,6.3v48.5c0,3.4,2.8,6.3,6.3,6.3h48.5
						c3.4,0,6.3-2.8,6.3-6.3v-48.5c0-3.4-2.8-6.3-6.3-6.3H140.8z"/>
				</g>
				<g>
					<path class="st2" d="M50.5,335.4H2c-4.3,0-7.9-3.5-7.9-7.9V279c0-4.3,3.5-7.9,7.9-7.9h48.5c4.3,0,7.9,3.5,7.9,7.9v48.5
						C58.4,331.8,54.9,335.4,50.5,335.4z M2,272.8c-3.4,0-6.3,2.8-6.3,6.3v48.5c0,3.4,2.8,6.3,6.3,6.3h48.5c3.4,0,6.3-2.8,6.3-6.3
						V279c0-3.4-2.8-6.3-6.3-6.3H2z"/>
				</g>
				<g>
					<path class="st2" d="M71.8,425.5H23.3c-4.3,0-7.9-3.5-7.9-7.9v-48.5c0-4.3,3.5-7.9,7.9-7.9h48.5c4.3,0,7.9,3.5,7.9,7.9v48.5
						C79.7,421.9,76.1,425.5,71.8,425.5z M23.3,362.9c-3.4,0-6.3,2.8-6.3,6.3v48.5c0,3.4,2.8,6.3,6.3,6.3h48.5
						c3.4,0,6.3-2.8,6.3-6.3v-48.5c0-3.4-2.8-6.3-6.3-6.3H23.3z"/>
				</g>
				<g>
					<path class="st2" d="M295.6,13.8h-12.7c-1.5,0-2.7-1.2-2.7-2.7V-1.6c0-1.5,1.2-2.7,2.7-2.7h12.7c1.5,0,2.7,1.2,2.7,2.7v12.7
						C298.3,12.6,297.1,13.8,295.6,13.8z M282.9-2.7c-0.6,0-1,0.5-1,1v12.7c0,0.6,0.5,1,1,1h12.7c0.6,0,1-0.5,1-1V-1.6
						c0-0.6-0.5-1-1-1H282.9z"/>
				</g>
				<path class="st2" d="M321.4,23.4h-12.7c-1,0-1.9-0.8-1.9-1.9V8.8c0-1,0.8-1.9,1.9-1.9h12.7c1,0,1.9,0.8,1.9,1.9v12.7
					C323.2,22.5,322.4,23.4,321.4,23.4z"/>
				<path class="st2" d="M124.9,194.2h-12.7c-1,0-1.9-0.8-1.9-1.9v-12.7c0-1,0.8-1.9,1.9-1.9h12.7c1,0,1.9,0.8,1.9,1.9v12.7
					C126.7,193.3,125.9,194.2,124.9,194.2z"/>
				<path class="st3" d="M186.8,249.9h-12.7c-1,0-1.9-0.8-1.9-1.9v-12.7c0-1,0.8-1.9,1.9-1.9h12.7c1,0,1.9,0.8,1.9,1.9v12.7
					C188.7,249.1,187.9,249.9,186.8,249.9z"/>
				<path class="st2" d="M150.3,75.8h-12.7c-1,0-1.9-0.8-1.9-1.9V61.3c0-1,0.8-1.9,1.9-1.9h12.7c1,0,1.9,0.8,1.9,1.9V74
					C152.1,75,151.3,75.8,150.3,75.8z"/>
				<path class="st2" d="M198.4,237.4h-6.5c-0.5,0-0.9-0.4-0.9-0.9v-6.5c0-0.5,0.4-0.9,0.9-0.9h6.5c0.5,0,0.9,0.4,0.9,0.9v6.5
					C199.3,237,198.9,237.4,198.4,237.4z"/>
				<path class="st2" d="M166.6,63.8h-6.5c-0.5,0-0.9-0.4-0.9-0.9v-6.5c0-0.5,0.4-0.9,0.9-0.9h6.5c0.5,0,0.9,0.4,0.9,0.9v6.5
					C167.6,63.3,167.1,63.8,166.6,63.8z"/>
				<path class="st2" d="M211.6,11.8h-6.5c-0.5,0-0.9-0.4-0.9-0.9V4.3c0-0.5,0.4-0.9,0.9-0.9h6.5c0.5,0,0.9,0.4,0.9,0.9v6.5
					C212.6,11.3,212.1,11.8,211.6,11.8z"/>
				<path class="st2" d="M116.9,292.4h-6.5c-0.5,0-0.9-0.4-0.9-0.9V285c0-0.5,0.4-0.9,0.9-0.9h6.5c0.5,0,0.9,0.4,0.9,0.9v6.5
					C117.9,292,117.4,292.4,116.9,292.4z"/>
				<path class="st2" d="M285.5,38.3h-26c-2.1,0-3.8-1.7-3.8-3.8v-26c0-2.1,1.7-3.8,3.8-3.8h26c2.1,0,3.8,1.7,3.8,3.8v26
					C289.2,36.6,287.6,38.3,285.5,38.3z"/>
				<g>
					<path class="st2" d="M289,169.7h-12.7c-1.5,0-2.7-1.2-2.7-2.7v-12.7c0-1.5,1.2-2.7,2.7-2.7H289c1.5,0,2.7,1.2,2.7,2.7V167
						C291.7,168.5,290.5,169.7,289,169.7z M276.3,153.2c-0.6,0-1,0.5-1,1V167c0,0.6,0.5,1,1,1H289c0.6,0,1-0.5,1-1v-12.7
						c0-0.6-0.5-1-1-1H276.3z"/>
				</g>
				<path class="st3" d="M297.2,239.8h-12.7c-1,0-1.9-0.8-1.9-1.9v-12.7c0-1,0.8-1.9,1.9-1.9h12.7c1,0,1.9,0.8,1.9,1.9V238
					C299.1,239,298.3,239.8,297.2,239.8z"/>
				<path class="st2" d="M278.9,194.2h-26c-2.1,0-3.8-1.7-3.8-3.8v-26c0-2.1,1.7-3.8,3.8-3.8h26c2.1,0,3.8,1.7,3.8,3.8v26
					C282.7,192.5,281,194.2,278.9,194.2z"/>
			</g>
			<g>
				
					<image style="overflow:visible;opacity:0.2;" width="138" height="138" xlink:href="8ECCE56D.png"  transform="matrix(0.24 0 0 0.24 125 207.6)">
				</image>
				<g>
					<g>
						<path class="st3" d="M151.8,231.6h-14.4c-1.8,0-3.3-1.5-3.3-3.3V214c0-1.8,1.5-3.3,3.3-3.3h14.4c1.8,0,3.3,1.5,3.3,3.3v14.4
							C155.1,230.1,153.6,231.6,151.8,231.6z"/>
						<path class="st4" d="M151.8,210.7h-14.4c-1.8,0-3.3,1.5-3.3,3.3v14.4c0,1.8,1.5,3.3,3.3,3.3h14.4c1.8,0,3.3-1.5,3.3-3.3V214
							C155.1,212.2,153.6,210.7,151.8,210.7z M154.6,228.3c0,1.6-1.3,2.9-2.9,2.9h-14.4c-1.6,0-2.9-1.3-2.9-2.9V214
							c0-1.6,1.3-2.9,2.9-2.9h14.4c1.6,0,2.9,1.3,2.9,2.9V228.3z"/>
					</g>
				</g>
			</g>
			<g>
				
					<image style="overflow:visible;opacity:0.2;" width="423" height="423" xlink:href="8ECCE56F.png"  transform="matrix(0.24 0 0 0.24 150.8 41.64)">
				</image>
				<g>
					<g>
						<path class="st0" d="M238.4,125.1h-64.7c-1.8,0-3.3-1.5-3.3-3.3V57.1c0-1.8,1.5-3.3,3.3-3.3h64.7c1.8,0,3.3,1.5,3.3,3.3v64.7
							C241.7,123.7,240.2,125.1,238.4,125.1z"/>
						<path class="st4" d="M238.4,53.8h-64.7c-1.8,0-3.3,1.5-3.3,3.3v64.7c0,1.8,1.5,3.3,3.3,3.3h64.7c1.8,0,3.3-1.5,3.3-3.3V57.1
							C241.7,55.3,240.2,53.8,238.4,53.8z M241.3,121.8c0,1.6-1.3,2.9-2.9,2.9h-64.7c-1.6,0-2.9-1.3-2.9-2.9V57.1
							c0-1.6,1.3-2.9,2.9-2.9h64.7c1.6,0,2.9,1.3,2.9,2.9V121.8z"/>
					</g>
				</g>
			</g>
			<g>
				
					<image style="overflow:visible;opacity:0.2;" width="340" height="339" xlink:href="8ECCE56A.png"  transform="matrix(0.24 0 0 0.24 36.08 171.96)">
				</image>
				<g>
					<g>
						<path class="st0" d="M55.8,232v-44.7c0-1.8,1.5-3.3,3.3-3.3h44.7c1.8,0,3.3,1.5,3.3,3.3V232c0,1.8-1.5,3.3-3.3,3.3H59.1
							C57.3,235.3,55.8,233.8,55.8,232z"/>
						<path class="st4" d="M107.1,232v-44.7c0-1.8-1.5-3.3-3.3-3.3H59.1c-1.8,0-3.3,1.5-3.3,3.3V232c0,1.8,1.5,3.3,3.3,3.3h44.7
							C105.6,235.3,107.1,233.8,107.1,232z M56.2,232v-44.7c0-1.6,1.3-2.9,2.9-2.9h44.7c1.6,0,2.9,1.3,2.9,2.9V232
							c0,1.6-1.3,2.9-2.9,2.9H59.1C57.5,234.9,56.2,233.6,56.2,232z"/>
					</g>
				</g>
			</g>
			<g>
				
					<image style="overflow:visible;opacity:0.2;" width="547" height="547" xlink:href="8ECCE56B.png"  transform="matrix(0.24 0 0 0.24 -25.84 97.56)">
				</image>
				<g>
					<g>
						<path class="st0" d="M91.6,210.6H-2.9c-1.8,0-3.3-1.5-3.3-3.3v-94.5c0-1.8,1.5-3.3,3.3-3.3h94.5c1.8,0,3.3,1.5,3.3,3.3v94.5
							C94.8,209.1,93.4,210.6,91.6,210.6z"/>
						<path class="st4" d="M91.6,109.6H-2.9c-1.8,0-3.3,1.5-3.3,3.3v94.5c0,1.8,1.5,3.3,3.3,3.3h94.5c1.8,0,3.3-1.5,3.3-3.3v-94.5
							C94.8,111,93.4,109.6,91.6,109.6z M94.4,207.3c0,1.6-1.3,2.9-2.9,2.9H-2.9c-1.6,0-2.9-1.3-2.9-2.9v-94.5
							c0-1.6,1.3-2.9,2.9-2.9h94.5c1.6,0,2.9,1.3,2.9,2.9V207.3z"/>
					</g>
				</g>
			</g>
			<g>
				
					<image style="overflow:visible;opacity:0.2;" width="362" height="362" xlink:href="8ECCE575.png"  transform="matrix(0.24 0 0 0.24 84.56 84.84)">
				</image>
				<g>
					<g>
						<path class="st0" d="M157.7,153.6h-50.1c-1.8,0-3.3-1.5-3.3-3.3v-50.1c0-1.8,1.5-3.3,3.3-3.3h50.1c1.8,0,3.3,1.5,3.3,3.3v50.1
							C161,152.1,159.5,153.6,157.7,153.6z"/>
						<path class="st4" d="M157.7,96.9h-50.1c-1.8,0-3.3,1.5-3.3,3.3v50.1c0,1.8,1.5,3.3,3.3,3.3h50.1c1.8,0,3.3-1.5,3.3-3.3v-50.1
							C161,98.3,159.5,96.9,157.7,96.9z M160.5,150.3c0,1.6-1.3,2.9-2.9,2.9h-50.1c-1.6,0-2.9-1.3-2.9-2.9v-50.1
							c0-1.6,1.3-2.9,2.9-2.9h50.1c1.6,0,2.9,1.3,2.9,2.9V150.3z"/>
					</g>
				</g>
			</g>
			<g>
				
					<image style="overflow:visible;opacity:0.3;" width="853" height="853" xlink:href="8ECCE577.png"  transform="matrix(0.24 0 0 0.24 -32.0891 -24.6091)">
				</image>
				<g>
					<g>
						<path class="st0" d="M20.8,7.8h116.2c1.8,0,3.3,1.5,3.3,3.3v116.2c0,1.8-1.5,3.3-3.3,3.3H20.8c-1.8,0-3.3-1.5-3.3-3.3V11.1
							C17.5,9.3,18.9,7.8,20.8,7.8z"/>
						<path class="st4" d="M136.9,7.8H20.8c-1.8,0-3.3,1.5-3.3,3.3v116.2c0,1.8,1.5,3.3,3.3,3.3h116.2c1.8,0,3.3-1.5,3.3-3.3V11.1
							C140.2,9.3,138.8,7.8,136.9,7.8z M139.8,127.3c0,1.6-1.3,2.9-2.9,2.9H20.8c-1.6,0-2.9-1.3-2.9-2.9V11.1c0-1.6,1.3-2.9,2.9-2.9
							h116.2c1.6,0,2.9,1.3,2.9,2.9V127.3z"/>
					</g>
				</g>
			</g>
			<g>
				
					<image style="overflow:visible;opacity:0.2;" width="287" height="287" xlink:href="8ECCE57A.png"  transform="matrix(0.24 0 0 0.24 -35.92 247.08)">
				</image>
				<g>
					<g>
						<path class="st3" d="M-16.3,294.5v-32.1c0-1.8,1.5-3.3,3.3-3.3H19c1.8,0,3.3,1.5,3.3,3.3v32.1c0,1.8-1.5,3.3-3.3,3.3h-32.1
							C-14.9,297.7-16.3,296.3-16.3,294.5z"/>
						<path class="st4" d="M19,259.1h-32.1c-1.8,0-3.3,1.5-3.3,3.3v32.1c0,1.8,1.5,3.3,3.3,3.3H19c1.8,0,3.3-1.5,3.3-3.3v-32.1
							C22.3,260.6,20.9,259.1,19,259.1z M21.9,294.5c0,1.6-1.3,2.9-2.9,2.9h-32.1c-1.6,0-2.9-1.3-2.9-2.9v-32.1
							c0-1.6,1.3-2.9,2.9-2.9H19c1.6,0,2.9,1.3,2.9,2.9V294.5z"/>
					</g>
				</g>
			</g>
			<g>
				
					<image style="overflow:visible;opacity:0.2;" width="231" height="232" xlink:href="8ECCE57B.png"  transform="matrix(0.24 0 0 0.24 -25.84 201.96)">
				</image>
				<g>
					<g>
						<path class="st0" d="M15.8,239.4H-2.9c-1.8,0-3.3-1.5-3.3-3.3v-18.7c0-1.8,1.5-3.3,3.3-3.3h18.7c1.8,0,3.3,1.5,3.3,3.3v18.7
							C19.1,238,17.6,239.4,15.8,239.4z"/>
						<path class="st4" d="M15.8,214.2H-2.9c-1.8,0-3.3,1.5-3.3,3.3v18.7c0,1.8,1.5,3.3,3.3,3.3h18.7c1.8,0,3.3-1.5,3.3-3.3v-18.7
							C19.1,215.6,17.6,214.2,15.8,214.2z M18.7,236.2c0,1.6-1.3,2.9-2.9,2.9H-2.9c-1.6,0-2.9-1.3-2.9-2.9v-18.7
							c0-1.6,1.3-2.9,2.9-2.9h18.7c1.6,0,2.9,1.3,2.9,2.9V236.2z"/>
					</g>
				</g>
			</g>
			<g>
				
					<image style="overflow:visible;opacity:0.2;" width="295" height="295" xlink:href="8ECCE57D.png"  transform="matrix(0.24 0 0 0.24 -16.72 297)">
				</image>
				<g>
					<g>
						<path class="st3" d="M40.4,349.7h-34c-1.8,0-3.3-1.5-3.3-3.3v-34c0-1.8,1.5-3.3,3.3-3.3h34c1.8,0,3.3,1.5,3.3,3.3v34
							C43.6,348.2,42.2,349.7,40.4,349.7z"/>
						<path class="st4" d="M40.4,309.1h-34c-1.8,0-3.3,1.5-3.3,3.3v34c0,1.8,1.5,3.3,3.3,3.3h34c1.8,0,3.3-1.5,3.3-3.3v-34
							C43.6,310.6,42.2,309.1,40.4,309.1z M43.2,346.4c0,1.6-1.3,2.9-2.9,2.9h-34c-1.6,0-2.9-1.3-2.9-2.9v-34c0-1.6,1.3-2.9,2.9-2.9
							h34c1.6,0,2.9,1.3,2.9,2.9V346.4z"/>
					</g>
				</g>
			</g>
			<g>
				
					<image style="overflow:visible;opacity:0.2;" width="175" height="175" xlink:href="A39D28C6.png"  transform="matrix(0.24 0 0 0.24 366.8 -6.12)">
				</image>
				<g>
					<g>
						<path class="st3" d="M389.8,6.1h5.1c1.8,0,3.3,1.5,3.3,3.3v5.1c0,1.8-1.5,3.3-3.3,3.3h-5.1c-1.8,0-3.3-1.5-3.3-3.3V9.4
							C386.6,7.5,388,6.1,389.8,6.1z"/>
						<path class="st4" d="M389.8,17.7h5.1c1.8,0,3.3-1.5,3.3-3.3V9.4c0-1.8-1.5-3.3-3.3-3.3h-5.1c-1.8,0-3.3,1.5-3.3,3.3v5.1
							C386.6,16.2,388,17.7,389.8,17.7z M387,9.4c0-1.6,1.3-2.9,2.9-2.9h5.1c1.6,0,2.9,1.3,2.9,2.9v5.1c0,1.6-1.3,2.9-2.9,2.9h-5.1
							c-1.6,0-2.9-1.3-2.9-2.9V9.4z"/>
					</g>
				</g>
			</g>
			<g>
				
					<image style="overflow:visible;opacity:0.2;" width="174" height="174" xlink:href="A39D28C1.png"  transform="matrix(0.24 0 0 0.24 269.84 74.28)">
				</image>
				<g>
					<g>
						<path class="st3" d="M292.7,86.4h5.1c1.8,0,3.3,1.5,3.3,3.3v5.1c0,1.8-1.5,3.3-3.3,3.3h-5.1c-1.8,0-3.3-1.5-3.3-3.3v-5.1
							C289.4,87.9,290.9,86.4,292.7,86.4z"/>
						<path class="st4" d="M292.7,98h5.1c1.8,0,3.3-1.5,3.3-3.3v-5.1c0-1.8-1.5-3.3-3.3-3.3h-5.1c-1.8,0-3.3,1.5-3.3,3.3v5.1
							C289.4,96.6,290.9,98,292.7,98z M289.9,89.7c0-1.6,1.3-2.9,2.9-2.9h5.1c1.6,0,2.9,1.3,2.9,2.9v5.1c0,1.6-1.3,2.9-2.9,2.9h-5.1
							c-1.6,0-2.9-1.3-2.9-2.9V89.7z"/>
					</g>
				</g>
			</g>
			<g>
				
					<image style="overflow:visible;opacity:0.2;" width="333" height="332" xlink:href="A39D28C2.png"  transform="matrix(0.24 0 0 0.24 312.32 -25.56)">
				</image>
				<g>
					<g>
						<path class="st0" d="M332.1,32.8v-43c0-1.8,1.5-3.3,3.3-3.3h43c1.8,0,3.3,1.5,3.3,3.3v43c0,1.8-1.5,3.3-3.3,3.3h-43
							C333.5,36.1,332.1,34.6,332.1,32.8z"/>
						<path class="st4" d="M335.3,36.1h43c1.8,0,3.3-1.5,3.3-3.3v-43c0-1.8-1.5-3.3-3.3-3.3h-43c-1.8,0-3.3,1.5-3.3,3.3v43
							C332.1,34.6,333.5,36.1,335.3,36.1z M332.5-10.2c0-1.6,1.3-2.9,2.9-2.9h43c1.6,0,2.9,1.3,2.9,2.9v43c0,1.6-1.3,2.9-2.9,2.9
							h-43c-1.6,0-2.9-1.3-2.9-2.9V-10.2z"/>
					</g>
				</g>
			</g>
			<g>
				
					<image style="overflow:visible;opacity:0.2;" width="193" height="193" xlink:href="A39D28C0.png"  transform="matrix(0.24 0 0 0.24 197 -27.12)">
				</image>
				<g>
					<g>
						<path class="st3" d="M209.4-24.1H237c1.8,0,3.3,1.5,3.3,3.3V6.7c0,1.8-1.5,3.3-3.3,3.3h-27.6c-1.8,0-3.3-1.5-3.3-3.3v-27.6
							C206.2-22.6,207.6-24.1,209.4-24.1z"/>
						<path class="st4" d="M209.4,10H237c1.8,0,3.3-1.5,3.3-3.3v-27.6c0-1.8-1.5-3.3-3.3-3.3h-27.6c-1.8,0-3.3,1.5-3.3,3.3V6.7
							C206.2,8.5,207.6,10,209.4,10z M206.6-20.8c0-1.6,1.3-2.9,2.9-2.9H237c1.6,0,2.9,1.3,2.9,2.9V6.7c0,1.6-1.3,2.9-2.9,2.9h-27.6
							c-1.6,0-2.9-1.3-2.9-2.9V-20.8z"/>
					</g>
				</g>
			</g>
			<g>
				
					<image style="overflow:visible;opacity:0.2;" width="353" height="353" xlink:href="A39D28DE.png"  transform="matrix(0.24 0 0 0.24 146.24 143.4)">
				</image>
				<g>
					<g>
						<path class="st3" d="M220.3,158.8v47.8c0,1.8-1.5,3.3-3.3,3.3h-47.8c-1.8,0-3.3-1.5-3.3-3.3v-47.8c0-1.8,1.5-3.3,3.3-3.3H217
							C218.9,155.5,220.3,157,220.3,158.8z"/>
						<path class="st4" d="M217,155.5h-47.8c-1.8,0-3.3,1.5-3.3,3.3v47.8c0,1.8,1.5,3.3,3.3,3.3H217c1.8,0,3.3-1.5,3.3-3.3v-47.8
							C220.3,157,218.9,155.5,217,155.5z M219.9,206.6c0,1.6-1.3,2.9-2.9,2.9h-47.8c-1.6,0-2.9-1.3-2.9-2.9v-47.8
							c0-1.6,1.3-2.9,2.9-2.9H217c1.6,0,2.9,1.3,2.9,2.9V206.6z"/>
					</g>
				</g>
			</g>
			<g>
				
					<image style="overflow:visible;opacity:0.2;" width="353" height="352" xlink:href="A39D28C3.png"  transform="matrix(0.24 0 0 0.24 94.64 -36.6)">
				</image>
				<g>
					<g>
						<path class="st3" d="M168.7-21.3v47.8c0,1.8-1.5,3.3-3.3,3.3h-47.8c-1.8,0-3.3-1.5-3.3-3.3v-47.8c0-1.8,1.5-3.3,3.3-3.3h47.8
							C167.3-24.5,168.7-23.1,168.7-21.3z"/>
						<path class="st4" d="M165.4-24.5h-47.8c-1.8,0-3.3,1.5-3.3,3.3v47.8c0,1.8,1.5,3.3,3.3,3.3h47.8c1.8,0,3.3-1.5,3.3-3.3v-47.8
							C168.7-23.1,167.3-24.5,165.4-24.5z M168.3,26.6c0,1.6-1.3,2.9-2.9,2.9h-47.8c-1.6,0-2.9-1.3-2.9-2.9v-47.8
							c0-1.6,1.3-2.9,2.9-2.9h47.8c1.6,0,2.9,1.3,2.9,2.9V26.6z"/>
					</g>
				</g>
			</g>
			<g>
				
					<image style="overflow:visible;opacity:0.2;" width="141" height="141" xlink:href="A39D28C7.png"  transform="matrix(0.24 0 0 0.24 295.4 23.52)">
				</image>
				<g>
					<g>
						<path class="st0" d="M322.8,48.3h-15c-1.8,0-3.3-1.5-3.3-3.3V30c0-1.8,1.5-3.3,3.3-3.3h15c1.8,0,3.3,1.5,3.3,3.3v15
							C326.1,46.8,324.7,48.3,322.8,48.3z"/>
						<path class="st4" d="M322.8,26.7h-15c-1.8,0-3.3,1.5-3.3,3.3v15c0,1.8,1.5,3.3,3.3,3.3h15c1.8,0,3.3-1.5,3.3-3.3V30
							C326.1,28.2,324.7,26.7,322.8,26.7z M325.7,45c0,1.6-1.3,2.9-2.9,2.9h-15c-1.6,0-2.9-1.3-2.9-2.9V30c0-1.6,1.3-2.9,2.9-2.9h15
							c1.6,0,2.9,1.3,2.9,2.9V45z"/>
					</g>
				</g>
			</g>
			<g>
				
					<image style="overflow:visible;opacity:0.2;" width="250" height="249" xlink:href="A39D28C5.png"  transform="matrix(0.24 0 0 0.24 229.28 98.28)">
				</image>
				<g>
					<g>
						<path class="st3" d="M275.5,140h-23.1c-1.8,0-3.3-1.5-3.3-3.3v-23.1c0-1.8,1.5-3.3,3.3-3.3h23.1c1.8,0,3.3,1.5,3.3,3.3v23.1
							C278.8,138.5,277.3,140,275.5,140z"/>
						<path class="st4" d="M275.5,110.3h-23.1c-1.8,0-3.3,1.5-3.3,3.3v23.1c0,1.8,1.5,3.3,3.3,3.3h23.1c1.8,0,3.3-1.5,3.3-3.3v-23.1
							C278.8,111.8,277.3,110.3,275.5,110.3z M278.3,136.7c0,1.6-1.3,2.9-2.9,2.9h-23.1c-1.6,0-2.9-1.3-2.9-2.9v-23.1
							c0-1.6,1.3-2.9,2.9-2.9h23.1c1.6,0,2.9,1.3,2.9,2.9V136.7z"/>
					</g>
				</g>
			</g>
			<g>
				
					<image style="overflow:visible;opacity:0.2;" width="177" height="177" xlink:href="A39D28CC.png"  transform="matrix(0.24 0 0 0.24 -9.52 231.24)">
				</image>
				<g>
					<g>
						<path class="st0" d="M13.5,243.4H19c1.8,0,3.3,1.5,3.3,3.3v5.6c0,1.8-1.5,3.3-3.3,3.3h-5.6c-1.8,0-3.3-1.5-3.3-3.3v-5.6
							C10.2,244.9,11.6,243.4,13.5,243.4z"/>
						<path class="st4" d="M19,243.4h-5.6c-1.8,0-3.3,1.5-3.3,3.3v5.6c0,1.8,1.5,3.3,3.3,3.3H19c1.8,0,3.3-1.5,3.3-3.3v-5.6
							C22.3,244.9,20.9,243.4,19,243.4z M21.9,252.3c0,1.6-1.3,2.9-2.9,2.9h-5.6c-1.6,0-2.9-1.3-2.9-2.9v-5.6c0-1.6,1.3-2.9,2.9-2.9
							H19c1.6,0,2.9,1.3,2.9,2.9V252.3z"/>
					</g>
				</g>
			</g>
			<g>
				
					<image style="overflow:visible;opacity:0.2;" width="401" height="401" xlink:href="A39D28CD.png"  transform="matrix(0.24 0 0 0.24 200.24 4.92)">
				</image>
				<g>
					<g>
						<path class="st3" d="M282.6,83h-59.4c-1.8,0-3.3-1.5-3.3-3.3V20.3c0-1.8,1.5-3.3,3.3-3.3h59.4c1.8,0,3.3,1.5,3.3,3.3v59.4
							C285.9,81.5,284.4,83,282.6,83z"/>
						<path class="st4" d="M282.6,17h-59.4c-1.8,0-3.3,1.5-3.3,3.3v59.4c0,1.8,1.5,3.3,3.3,3.3h59.4c1.8,0,3.3-1.5,3.3-3.3V20.3
							C285.9,18.5,284.4,17,282.6,17z M285.5,79.7c0,1.6-1.3,2.9-2.9,2.9h-59.4c-1.6,0-2.9-1.3-2.9-2.9V20.3c0-1.6,1.3-2.9,2.9-2.9
							h59.4c1.6,0,2.9,1.3,2.9,2.9V79.7z"/>
					</g>
				</g>
			</g>
			<g>
				
					<image style="overflow:visible;opacity:0.2;" width="124" height="124" xlink:href="A39D28E5.png"  transform="matrix(0.24 0 0 0.24 183.08 18)">
				</image>
				<g>
					<g>
						<path class="st0" d="M192.3,35.3v-11c0-1.8,1.5-3.3,3.3-3.3h11c1.8,0,3.3,1.5,3.3,3.3v11c0,1.8-1.5,3.3-3.3,3.3h-11
							C193.8,38.6,192.3,37.1,192.3,35.3z"/>
						<path class="st4" d="M206.5,21.1h-11c-1.8,0-3.3,1.5-3.3,3.3v11c0,1.8,1.5,3.3,3.3,3.3h11c1.8,0,3.3-1.5,3.3-3.3v-11
							C209.8,22.6,208.3,21.1,206.5,21.1z M209.4,35.3c0,1.6-1.3,2.9-2.9,2.9h-11c-1.6,0-2.9-1.3-2.9-2.9v-11c0-1.6,1.3-2.9,2.9-2.9
							h11c1.6,0,2.9,1.3,2.9,2.9V35.3z"/>
					</g>
				</g>
			</g>
			<g>
				
					<image style="overflow:visible;opacity:0.2;" width="268" height="268" xlink:href="A39D28E7.png"  transform="matrix(0.24 0 0 0.24 -10 130.2)">
				</image>
				<g>
					<g>
						<path class="st0" d="M13,139.3h27.6c1.8,0,3.3,1.5,3.3,3.3v27.6c0,1.8-1.5,3.3-3.3,3.3H13c-1.8,0-3.3-1.5-3.3-3.3v-27.6
							C9.7,140.8,11.1,139.3,13,139.3z"/>
						<path class="st4" d="M13,173.5h27.6c1.8,0,3.3-1.5,3.3-3.3v-27.6c0-1.8-1.5-3.3-3.3-3.3H13c-1.8,0-3.3,1.5-3.3,3.3v27.6
							C9.7,172,11.1,173.5,13,173.5z M10.1,142.6c0-1.6,1.3-2.9,2.9-2.9h27.6c1.6,0,2.9,1.3,2.9,2.9v27.6c0,1.6-1.3,2.9-2.9,2.9H13
							c-1.6,0-2.9-1.3-2.9-2.9V142.6z"/>
					</g>
				</g>
			</g>
			<g>
				
					<image style="overflow:visible;opacity:0.2;" width="124" height="124" xlink:href="A39D28E4.png"  transform="matrix(0.24 0 0 0.24 46.76 177.36)">
				</image>
				<g>
					<g>
						<path class="st3" d="M55.8,194.8v-11c0-1.8,1.5-3.3,3.3-3.3h11c1.8,0,3.3,1.5,3.3,3.3v11c0,1.8-1.5,3.3-3.3,3.3h-11
							C57.3,198.1,55.8,196.6,55.8,194.8z"/>
						<path class="st4" d="M70,180.6h-11c-1.8,0-3.3,1.5-3.3,3.3v11c0,1.8,1.5,3.3,3.3,3.3h11c1.8,0,3.3-1.5,3.3-3.3v-11
							C73.3,182,71.8,180.6,70,180.6z M72.9,194.8c0,1.6-1.3,2.9-2.9,2.9h-11c-1.6,0-2.9-1.3-2.9-2.9v-11c0-1.6,1.3-2.9,2.9-2.9h11
							c1.6,0,2.9,1.3,2.9,2.9V194.8z"/>
					</g>
				</g>
			</g>
			<g>
				
					<image style="overflow:visible;opacity:0.2;" width="401" height="401" xlink:href="A39D28E3.png"  transform="matrix(0.24 0 0 0.24 -46.24 -29.16)">
				</image>
				<g>
					<g>
						<path class="st3" d="M36.2,46h-59.4c-1.8,0-3.3-1.5-3.3-3.3v-59.4c0-1.8,1.5-3.3,3.3-3.3h59.4c1.8,0,3.3,1.5,3.3,3.3v59.4
							C39.5,44.5,38,46,36.2,46z"/>
						<path class="st4" d="M36.2-20.1h-59.4c-1.8,0-3.3,1.5-3.3,3.3v59.4c0,1.8,1.5,3.3,3.3,3.3h59.4c1.8,0,3.3-1.5,3.3-3.3v-59.4
							C39.5-18.6,38-20.1,36.2-20.1z M39,42.7c0,1.6-1.3,2.9-2.9,2.9h-59.4c-1.6,0-2.9-1.3-2.9-2.9v-59.4c0-1.6,1.3-2.9,2.9-2.9
							h59.4c1.6,0,2.9,1.3,2.9,2.9V42.7z"/>
					</g>
				</g>
			</g>
		</g>
		<g class="st1">
			<g>
				
					<image style="overflow:visible;opacity:0.3;" width="853" height="854" xlink:href="A39D28ED.png"  transform="matrix(0.24 0 0 0.24 540.0709 349.7909)">
				</image>
				<g>
					<g>
						<path class="st0" d="M592.8,382.4H709c1.8,0,3.3,1.5,3.3,3.3v116.2c0,1.8-1.5,3.3-3.3,3.3H592.8c-1.8,0-3.3-1.5-3.3-3.3V385.7
							C589.5,383.9,591,382.4,592.8,382.4z"/>
						<path class="st4" d="M709,382.4H592.8c-1.8,0-3.3,1.5-3.3,3.3v116.2c0,1.8,1.5,3.3,3.3,3.3H709c1.8,0,3.3-1.5,3.3-3.3V385.7
							C712.3,383.9,710.8,382.4,709,382.4z M711.9,501.9c0,1.6-1.3,2.9-2.9,2.9H592.8c-1.6,0-2.9-1.3-2.9-2.9V385.7
							c0-1.6,1.3-2.9,2.9-2.9H709c1.6,0,2.9,1.3,2.9,2.9V501.9z"/>
					</g>
				</g>
			</g>
			<g>
				
					<image style="overflow:visible;opacity:0.2;" width="174" height="174" xlink:href="A39D28EF.png"  transform="matrix(0.24 0 0 0.24 466.16 360.6)">
				</image>
				<g>
					<g>
						<path class="st0" d="M494.1,384.3H489c-1.8,0-3.3-1.5-3.3-3.3V376c0-1.8,1.5-3.3,3.3-3.3h5.1c1.8,0,3.3,1.5,3.3,3.3v5.1
							C497.4,382.8,495.9,384.3,494.1,384.3z"/>
						<path class="st4" d="M494.1,372.7H489c-1.8,0-3.3,1.5-3.3,3.3v5.1c0,1.8,1.5,3.3,3.3,3.3h5.1c1.8,0,3.3-1.5,3.3-3.3V376
							C497.4,374.2,495.9,372.7,494.1,372.7z M496.9,381c0,1.6-1.3,2.9-2.9,2.9H489c-1.6,0-2.9-1.3-2.9-2.9V376
							c0-1.6,1.3-2.9,2.9-2.9h5.1c1.6,0,2.9,1.3,2.9,2.9V381z"/>
					</g>
				</g>
			</g>
			<g>
				
					<image style="overflow:visible;opacity:0.2;" width="175" height="174" xlink:href="A39D28EC.png"  transform="matrix(0.24 0 0 0.24 172.4 478.2)">
				</image>
				<g>
					<g>
						<path class="st0" d="M200.5,501.9h-5.1c-1.8,0-3.3-1.5-3.3-3.3v-5.1c0-1.8,1.5-3.3,3.3-3.3h5.1c1.8,0,3.3,1.5,3.3,3.3v5.1
							C203.8,500.4,202.3,501.9,200.5,501.9z"/>
						<path class="st4" d="M200.5,490.3h-5.1c-1.8,0-3.3,1.5-3.3,3.3v5.1c0,1.8,1.5,3.3,3.3,3.3h5.1c1.8,0,3.3-1.5,3.3-3.3v-5.1
							C203.8,491.7,202.3,490.3,200.5,490.3z M203.4,498.6c0,1.6-1.3,2.9-2.9,2.9h-5.1c-1.6,0-2.9-1.3-2.9-2.9v-5.1
							c0-1.6,1.3-2.9,2.9-2.9h5.1c1.6,0,2.9,1.3,2.9,2.9V498.6z"/>
					</g>
				</g>
			</g>
			<g>
				
					<image style="overflow:visible;opacity:0.2;" width="138" height="138" xlink:href="A39D28E6.png"  transform="matrix(0.24 0 0 0.24 590.36 268.56)">
				</image>
				<g>
					<g>
						<path class="st3" d="M602.8,271.8h14.4c1.8,0,3.3,1.5,3.3,3.3v14.4c0,1.8-1.5,3.3-3.3,3.3h-14.4c-1.8,0-3.3-1.5-3.3-3.3V275
							C599.5,273.2,600.9,271.8,602.8,271.8z"/>
						<path class="st4" d="M602.8,292.7h14.4c1.8,0,3.3-1.5,3.3-3.3V275c0-1.8-1.5-3.3-3.3-3.3h-14.4c-1.8,0-3.3,1.5-3.3,3.3v14.4
							C599.5,291.2,600.9,292.7,602.8,292.7z M599.9,275c0-1.6,1.3-2.9,2.9-2.9h14.4c1.6,0,2.9,1.3,2.9,2.9v14.4
							c0,1.6-1.3,2.9-2.9,2.9h-14.4c-1.6,0-2.9-1.3-2.9-2.9V275z"/>
					</g>
				</g>
			</g>
			<g>
				
					<image style="overflow:visible;opacity:0.2;" width="423" height="423" xlink:href="A39D28D9.png"  transform="matrix(0.24 0 0 0.24 481.04 385.56)">
				</image>
				<g>
					<g>
						<path class="st0" d="M504,397.8h64.7c1.8,0,3.3,1.5,3.3,3.3v64.7c0,1.8-1.5,3.3-3.3,3.3H504c-1.8,0-3.3-1.5-3.3-3.3v-64.7
							C500.7,399.2,502.2,397.8,504,397.8z"/>
						<path class="st4" d="M504,469.1h64.7c1.8,0,3.3-1.5,3.3-3.3v-64.7c0-1.8-1.5-3.3-3.3-3.3H504c-1.8,0-3.3,1.5-3.3,3.3v64.7
							C500.7,467.6,502.2,469.1,504,469.1z M501.1,401.1c0-1.6,1.3-2.9,2.9-2.9h64.7c1.6,0,2.9,1.3,2.9,2.9v64.7
							c0,1.6-1.3,2.9-2.9,2.9H504c-1.6,0-2.9-1.3-2.9-2.9V401.1z"/>
					</g>
				</g>
			</g>
			<g>
				
					<image style="overflow:visible;opacity:0.2;" width="340" height="340" xlink:href="A39D28DA.png"  transform="matrix(0.24 0 0 0.24 219.2 463.56)">
				</image>
				<g>
					<g>
						<path class="st0" d="M290.1,478.9v44.7c0,1.8-1.5,3.3-3.3,3.3h-44.7c-1.8,0-3.3-1.5-3.3-3.3v-44.7c0-1.8,1.5-3.3,3.3-3.3h44.7
							C288.7,475.7,290.1,477.1,290.1,478.9z"/>
						<path class="st4" d="M238.9,478.9v44.7c0,1.8,1.5,3.3,3.3,3.3h44.7c1.8,0,3.3-1.5,3.3-3.3v-44.7c0-1.8-1.5-3.3-3.3-3.3h-44.7
							C240.4,475.7,238.9,477.1,238.9,478.9z M289.7,478.9v44.7c0,1.6-1.3,2.9-2.9,2.9h-44.7c-1.6,0-2.9-1.3-2.9-2.9v-44.7
							c0-1.6,1.3-2.9,2.9-2.9h44.7C288.4,476.1,289.7,477.4,289.7,478.9z"/>
					</g>
				</g>
			</g>
			<g>
				
					<image style="overflow:visible;opacity:0.2;" width="547" height="547" xlink:href="A39D2908.png"  transform="matrix(0.24 0 0 0.24 656.72 277.32)">
				</image>
				<g>
					<g>
						<path class="st3" d="M679.7,289.4h94.5c1.8,0,3.3,1.5,3.3,3.3v94.5c0,1.8-1.5,3.3-3.3,3.3h-94.5c-1.8,0-3.3-1.5-3.3-3.3v-94.5
							C676.4,290.9,677.9,289.4,679.7,289.4z"/>
						<path class="st4" d="M679.7,390.5h94.5c1.8,0,3.3-1.5,3.3-3.3v-94.5c0-1.8-1.5-3.3-3.3-3.3h-94.5c-1.8,0-3.3,1.5-3.3,3.3v94.5
							C676.4,389,677.9,390.5,679.7,390.5z M676.9,292.7c0-1.6,1.3-2.9,2.9-2.9h94.5c1.6,0,2.9,1.3,2.9,2.9v94.5
							c0,1.6-1.3,2.9-2.9,2.9h-94.5c-1.6,0-2.9-1.3-2.9-2.9V292.7z"/>
					</g>
				</g>
			</g>
			<g>
				
					<image style="overflow:visible;opacity:0.2;" width="362" height="362" xlink:href="A39D2937.png"  transform="matrix(0.24 0 0 0.24 584.48 338.04)">
				</image>
				<g>
					<g>
						<path class="st3" d="M607.3,350.2h50.1c1.8,0,3.3,1.5,3.3,3.3v50.1c0,1.8-1.5,3.3-3.3,3.3h-50.1c-1.8,0-3.3-1.5-3.3-3.3v-50.1
							C604.1,351.6,605.5,350.2,607.3,350.2z"/>
						<path class="st4" d="M607.3,406.8h50.1c1.8,0,3.3-1.5,3.3-3.3v-50.1c0-1.8-1.5-3.3-3.3-3.3h-50.1c-1.8,0-3.3,1.5-3.3,3.3v50.1
							C604.1,405.4,605.5,406.8,607.3,406.8z M604.5,353.5c0-1.6,1.3-2.9,2.9-2.9h50.1c1.6,0,2.9,1.3,2.9,2.9v50.1
							c0,1.6-1.3,2.9-2.9,2.9h-50.1c-1.6,0-2.9-1.3-2.9-2.9V353.5z"/>
					</g>
				</g>
			</g>
			<g>
				
					<image style="overflow:visible;opacity:0.3;" width="853" height="853" xlink:href="A39D2938.png"  transform="matrix(0.24 0 0 0.24 645.1909 19.7909)">
				</image>
				<g>
					<g>
						<path class="st0" d="M814.2,175H698c-1.8,0-3.3-1.5-3.3-3.3V55.6c0-1.8,1.5-3.3,3.3-3.3h116.2c1.8,0,3.3,1.5,3.3,3.3v116.2
							C817.4,173.6,816,175,814.2,175z"/>
						<path class="st4" d="M698,175h116.2c1.8,0,3.3-1.5,3.3-3.3V55.6c0-1.8-1.5-3.3-3.3-3.3H698c-1.8,0-3.3,1.5-3.3,3.3v116.2
							C694.7,173.6,696.2,175,698,175z M695.1,55.6c0-1.6,1.3-2.9,2.9-2.9h116.2c1.6,0,2.9,1.3,2.9,2.9v116.2c0,1.6-1.3,2.9-2.9,2.9
							H698c-1.6,0-2.9-1.3-2.9-2.9V55.6z"/>
					</g>
				</g>
			</g>
			<g>
				
					<image style="overflow:visible;opacity:0.2;" width="287" height="287" xlink:href="A39D293B.png"  transform="matrix(0.24 0 0 0.24 712.64 193.56)">
				</image>
				<g>
					<g>
						<path class="st3" d="M770.9,208.9V241c0,1.8-1.5,3.3-3.3,3.3h-32.1c-1.8,0-3.3-1.5-3.3-3.3v-32.1c0-1.8,1.5-3.3,3.3-3.3h32.1
							C769.4,205.6,770.9,207.1,770.9,208.9z"/>
						<path class="st4" d="M735.5,244.3h32.1c1.8,0,3.3-1.5,3.3-3.3v-32.1c0-1.8-1.5-3.3-3.3-3.3h-32.1c-1.8,0-3.3,1.5-3.3,3.3V241
							C732.2,242.8,733.7,244.3,735.5,244.3z M732.6,208.9c0-1.6,1.3-2.9,2.9-2.9h32.1c1.6,0,2.9,1.3,2.9,2.9V241
							c0,1.6-1.3,2.9-2.9,2.9h-32.1c-1.6,0-2.9-1.3-2.9-2.9V208.9z"/>
					</g>
				</g>
			</g>
			<g>
				
					<image style="overflow:visible;opacity:0.2;" width="231" height="231" xlink:href="A39D2939.png"  transform="matrix(0.24 0 0 0.24 321.92 427.08)">
				</image>
				<g>
					<g>
						<path class="st0" d="M344.8,439.2h18.7c1.8,0,3.3,1.5,3.3,3.3v18.7c0,1.8-1.5,3.3-3.3,3.3h-18.7c-1.8,0-3.3-1.5-3.3-3.3v-18.7
							C341.5,440.7,343,439.2,344.8,439.2z"/>
						<path class="st4" d="M344.8,464.5h18.7c1.8,0,3.3-1.5,3.3-3.3v-18.7c0-1.8-1.5-3.3-3.3-3.3h-18.7c-1.8,0-3.3,1.5-3.3,3.3v18.7
							C341.5,463,343,464.5,344.8,464.5z M341.9,442.5c0-1.6,1.3-2.9,2.9-2.9h18.7c1.6,0,2.9,1.3,2.9,2.9v18.7
							c0,1.6-1.3,2.9-2.9,2.9h-18.7c-1.6,0-2.9-1.3-2.9-2.9V442.5z"/>
					</g>
				</g>
			</g>
			<g>
				
					<image style="overflow:visible;opacity:0.2;" width="295" height="295" xlink:href="A39D293F.png"  transform="matrix(0.24 0 0 0.24 691.28 141.48)">
				</image>
				<g>
					<g>
						<path class="st3" d="M714.2,153.7h34c1.8,0,3.3,1.5,3.3,3.3v34c0,1.8-1.5,3.3-3.3,3.3h-34c-1.8,0-3.3-1.5-3.3-3.3v-34
							C710.9,155.1,712.4,153.7,714.2,153.7z"/>
						<path class="st4" d="M714.2,194.2h34c1.8,0,3.3-1.5,3.3-3.3v-34c0-1.8-1.5-3.3-3.3-3.3h-34c-1.8,0-3.3,1.5-3.3,3.3v34
							C710.9,192.8,712.4,194.2,714.2,194.2z M711.3,157c0-1.6,1.3-2.9,2.9-2.9h34c1.6,0,2.9,1.3,2.9,2.9v34c0,1.6-1.3,2.9-2.9,2.9
							h-34c-1.6,0-2.9-1.3-2.9-2.9V157z"/>
					</g>
				</g>
			</g>
			<g>
				
					<image style="overflow:visible;opacity:0.2;" width="333" height="332" xlink:href="A39D293A.png"  transform="matrix(0.24 0 0 0.24 655.28 80.76)">
				</image>
				<g>
					<g>
						<path class="st0" d="M724.6,96v43c0,1.8-1.5,3.3-3.3,3.3h-43c-1.8,0-3.3-1.5-3.3-3.3V96c0-1.8,1.5-3.3,3.3-3.3h43
							C723.1,92.8,724.6,94.2,724.6,96z"/>
						<path class="st4" d="M721.3,92.8h-43c-1.8,0-3.3,1.5-3.3,3.3v43c0,1.8,1.5,3.3,3.3,3.3h43c1.8,0,3.3-1.5,3.3-3.3V96
							C724.6,94.2,723.1,92.8,721.3,92.8z M724.2,139c0,1.6-1.3,2.9-2.9,2.9h-43c-1.6,0-2.9-1.3-2.9-2.9V96c0-1.6,1.3-2.9,2.9-2.9
							h43c1.6,0,2.9,1.3,2.9,2.9V139z"/>
					</g>
				</g>
			</g>
			<g>
				
					<image style="overflow:visible;opacity:0.2;" width="175" height="175" xlink:href="A39D2935.png"  transform="matrix(0.24 0 0 0.24 374 477.48)">
				</image>
				<g>
					<g>
						<path class="st3" d="M402.1,501.3h-5.1c-1.8,0-3.3-1.5-3.3-3.3V493c0-1.8,1.5-3.3,3.3-3.3h5.1c1.8,0,3.3,1.5,3.3,3.3v5.1
							C405.4,499.8,403.9,501.3,402.1,501.3z"/>
						<path class="st4" d="M402.1,489.7h-5.1c-1.8,0-3.3,1.5-3.3,3.3v5.1c0,1.8,1.5,3.3,3.3,3.3h5.1c1.8,0,3.3-1.5,3.3-3.3V493
							C405.4,491.1,403.9,489.7,402.1,489.7z M405,498c0,1.6-1.3,2.9-2.9,2.9h-5.1c-1.6,0-2.9-1.3-2.9-2.9V493
							c0-1.6,1.3-2.9,2.9-2.9h5.1c1.6,0,2.9,1.3,2.9,2.9V498z"/>
					</g>
				</g>
			</g>
			<g>
				
					<image style="overflow:visible;opacity:0.2;" width="174" height="175" xlink:href="A39D2936.png"  transform="matrix(0.24 0 0 0.24 611.12 184.68)">
				</image>
				<g>
					<g>
						<path class="st3" d="M639.1,208.5H634c-1.8,0-3.3-1.5-3.3-3.3v-5.1c0-1.8,1.5-3.3,3.3-3.3h5.1c1.8,0,3.3,1.5,3.3,3.3v5.1
							C642.4,207,640.9,208.5,639.1,208.5z"/>
						<path class="st4" d="M639.1,196.9H634c-1.8,0-3.3,1.5-3.3,3.3v5.1c0,1.8,1.5,3.3,3.3,3.3h5.1c1.8,0,3.3-1.5,3.3-3.3v-5.1
							C642.4,198.3,640.9,196.9,639.1,196.9z M642,205.2c0,1.6-1.3,2.9-2.9,2.9H634c-1.6,0-2.9-1.3-2.9-2.9v-5.1
							c0-1.6,1.3-2.9,2.9-2.9h5.1c1.6,0,2.9,1.3,2.9,2.9V205.2z"/>
					</g>
				</g>
			</g>
			<g>
				
					<image style="overflow:visible;opacity:0.2;" width="332" height="332" xlink:href="A39D2934.png"  transform="matrix(0.24 0 0 0.24 390.8 459.24)">
				</image>
				<g>
					<g>
						<path class="st0" d="M459.9,474.6v43c0,1.8-1.5,3.3-3.3,3.3h-43c-1.8,0-3.3-1.5-3.3-3.3v-43c0-1.8,1.5-3.3,3.3-3.3h43
							C458.4,471.3,459.9,472.8,459.9,474.6z"/>
						<path class="st4" d="M456.6,471.3h-43c-1.8,0-3.3,1.5-3.3,3.3v43c0,1.8,1.5,3.3,3.3,3.3h43c1.8,0,3.3-1.5,3.3-3.3v-43
							C459.9,472.8,458.4,471.3,456.6,471.3z M459.5,517.6c0,1.6-1.3,2.9-2.9,2.9h-43c-1.6,0-2.9-1.3-2.9-2.9v-43
							c0-1.6,1.3-2.9,2.9-2.9h43c1.6,0,2.9,1.3,2.9,2.9V517.6z"/>
					</g>
				</g>
			</g>
			<g>
				
					<image style="overflow:visible;opacity:0.2;" width="193" height="194" xlink:href="A39D2913.png"  transform="matrix(0.24 0 0 0.24 606.68 447.36)">
				</image>
				<g>
					<g>
						<path class="st3" d="M646.6,484.7H619c-1.8,0-3.3-1.5-3.3-3.3v-27.6c0-1.8,1.5-3.3,3.3-3.3h27.6c1.8,0,3.3,1.5,3.3,3.3v27.6
							C649.9,483.2,648.4,484.7,646.6,484.7z"/>
						<path class="st4" d="M646.6,450.6H619c-1.8,0-3.3,1.5-3.3,3.3v27.6c0,1.8,1.5,3.3,3.3,3.3h27.6c1.8,0,3.3-1.5,3.3-3.3v-27.6
							C649.9,452.1,648.4,450.6,646.6,450.6z M649.5,481.4c0,1.6-1.3,2.9-2.9,2.9H619c-1.6,0-2.9-1.3-2.9-2.9v-27.6
							c0-1.6,1.3-2.9,2.9-2.9h27.6c1.6,0,2.9,1.3,2.9,2.9V481.4z"/>
					</g>
				</g>
			</g>
			<g>
				
					<image style="overflow:visible;opacity:0.2;" width="353" height="353" xlink:href="A39D2915.png"  transform="matrix(0.24 0 0 0.24 506.24 295.08)">
				</image>
				<g>
					<g>
						<path class="st3" d="M526,358.4v-47.8c0-1.8,1.5-3.3,3.3-3.3h47.8c1.8,0,3.3,1.5,3.3,3.3v47.8c0,1.8-1.5,3.3-3.3,3.3h-47.8
							C527.5,361.7,526,360.2,526,358.4z"/>
						<path class="st4" d="M529.3,361.7h47.8c1.8,0,3.3-1.5,3.3-3.3v-47.8c0-1.8-1.5-3.3-3.3-3.3h-47.8c-1.8,0-3.3,1.5-3.3,3.3v47.8
							C526,360.2,527.5,361.7,529.3,361.7z M526.5,310.6c0-1.6,1.3-2.9,2.9-2.9h47.8c1.6,0,2.9,1.3,2.9,2.9v47.8
							c0,1.6-1.3,2.9-2.9,2.9h-47.8c-1.6,0-2.9-1.3-2.9-2.9V310.6z"/>
					</g>
				</g>
			</g>
			<g>
				
					<image style="overflow:visible;opacity:0.2;" width="141" height="141" xlink:href="A39D2917.png"  transform="matrix(0.24 0 0 0.24 523.64 431.76)">
				</image>
				<g>
					<g>
						<path class="st0" d="M536,435h15c1.8,0,3.3,1.5,3.3,3.3v15c0,1.8-1.5,3.3-3.3,3.3h-15c-1.8,0-3.3-1.5-3.3-3.3v-15
							C532.7,436.4,534.2,435,536,435z"/>
						<path class="st4" d="M536,456.5h15c1.8,0,3.3-1.5,3.3-3.3v-15c0-1.8-1.5-3.3-3.3-3.3h-15c-1.8,0-3.3,1.5-3.3,3.3v15
							C532.7,455,534.2,456.5,536,456.5z M533.2,438.2c0-1.6,1.3-2.9,2.9-2.9h15c1.6,0,2.9,1.3,2.9,2.9v15c0,1.6-1.3,2.9-2.9,2.9
							h-15c-1.6,0-2.9-1.3-2.9-2.9V438.2z"/>
					</g>
				</g>
			</g>
			<g>
				
					<image style="overflow:visible;opacity:0.2;" width="250" height="250" xlink:href="A39D2912.png"  transform="matrix(0.24 0 0 0.24 422.48 405.96)">
				</image>
				<g>
					<g>
						<path class="st3" d="M445.5,418.2h23.1c1.8,0,3.3,1.5,3.3,3.3v23.1c0,1.8-1.5,3.3-3.3,3.3h-23.1c-1.8,0-3.3-1.5-3.3-3.3v-23.1
							C442.2,419.6,443.7,418.2,445.5,418.2z"/>
						<path class="st4" d="M445.5,447.8h23.1c1.8,0,3.3-1.5,3.3-3.3v-23.1c0-1.8-1.5-3.3-3.3-3.3h-23.1c-1.8,0-3.3,1.5-3.3,3.3v23.1
							C442.2,446.4,443.7,447.8,445.5,447.8z M442.7,421.4c0-1.6,1.3-2.9,2.9-2.9h23.1c1.6,0,2.9,1.3,2.9,2.9v23.1
							c0,1.6-1.3,2.9-2.9,2.9h-23.1c-1.6,0-2.9-1.3-2.9-2.9V421.4z"/>
					</g>
				</g>
			</g>
			<g>
				
					<image style="overflow:visible;opacity:0.2;" width="176" height="176" xlink:href="A39D2911.png"  transform="matrix(0.24 0 0 0.24 712.64 235.8)">
				</image>
				<g>
					<g>
						<path class="st0" d="M741.1,260h-5.6c-1.8,0-3.3-1.5-3.3-3.3v-5.6c0-1.8,1.5-3.3,3.3-3.3h5.6c1.8,0,3.3,1.5,3.3,3.3v5.6
							C744.4,258.5,742.9,260,741.1,260z"/>
						<path class="st4" d="M735.5,260h5.6c1.8,0,3.3-1.5,3.3-3.3v-5.6c0-1.8-1.5-3.3-3.3-3.3h-5.6c-1.8,0-3.3,1.5-3.3,3.3v5.6
							C732.2,258.5,733.7,260,735.5,260z M732.6,251.1c0-1.6,1.3-2.9,2.9-2.9h5.6c1.6,0,2.9,1.3,2.9,2.9v5.6c0,1.6-1.3,2.9-2.9,2.9
							h-5.6c-1.6,0-2.9-1.3-2.9-2.9V251.1z"/>
					</g>
				</g>
			</g>
			<g>
				
					<image style="overflow:visible;opacity:0.2;" width="401" height="401" xlink:href="A39D296D.png"  transform="matrix(0.24 0 0 0.24 626.24 199.8)">
				</image>
				<g>
					<g>
						<path class="st3" d="M649.2,211.9h59.4c1.8,0,3.3,1.5,3.3,3.3v59.4c0,1.8-1.5,3.3-3.3,3.3h-59.4c-1.8,0-3.3-1.5-3.3-3.3v-59.4
							C645.9,213.4,647.4,211.9,649.2,211.9z"/>
						<path class="st4" d="M649.2,277.9h59.4c1.8,0,3.3-1.5,3.3-3.3v-59.4c0-1.8-1.5-3.3-3.3-3.3h-59.4c-1.8,0-3.3,1.5-3.3,3.3v59.4
							C645.9,276.4,647.4,277.9,649.2,277.9z M646.3,215.2c0-1.6,1.3-2.9,2.9-2.9h59.4c1.6,0,2.9,1.3,2.9,2.9v59.4
							c0,1.6-1.3,2.9-2.9,2.9h-59.4c-1.6,0-2.9-1.3-2.9-2.9V215.2z"/>
					</g>
				</g>
			</g>
			<g>
				
					<image style="overflow:visible;opacity:0.2;" width="124" height="124" xlink:href="A39D296F.png"  transform="matrix(0.24 0 0 0.24 508.04 472.32)">
				</image>
				<g>
					<g>
						<path class="st0" d="M534.8,478.8v11c0,1.8-1.5,3.3-3.3,3.3h-11c-1.8,0-3.3-1.5-3.3-3.3v-11c0-1.8,1.5-3.3,3.3-3.3h11
							C533.3,475.5,534.8,477,534.8,478.8z"/>
						<path class="st4" d="M520.6,493h11c1.8,0,3.3-1.5,3.3-3.3v-11c0-1.8-1.5-3.3-3.3-3.3h-11c-1.8,0-3.3,1.5-3.3,3.3v11
							C517.3,491.5,518.7,493,520.6,493z M517.7,478.8c0-1.6,1.3-2.9,2.9-2.9h11c1.6,0,2.9,1.3,2.9,2.9v11c0,1.6-1.3,2.9-2.9,2.9
							h-11c-1.6,0-2.9-1.3-2.9-2.9V478.8z"/>
					</g>
				</g>
			</g>
			<g>
				
					<image style="overflow:visible;opacity:0.2;" width="124" height="124" xlink:href="A39D2972.png"  transform="matrix(0.24 0 0 0.24 324.68 485.04)">
				</image>
				<g>
					<g>
						<path class="st3" d="M351.4,491.5v11c0,1.8-1.5,3.3-3.3,3.3h-11c-1.8,0-3.3-1.5-3.3-3.3v-11c0-1.8,1.5-3.3,3.3-3.3h11
							C349.9,488.2,351.4,489.7,351.4,491.5z"/>
						<path class="st4" d="M337.1,505.7h11c1.8,0,3.3-1.5,3.3-3.3v-11c0-1.8-1.5-3.3-3.3-3.3h-11c-1.8,0-3.3,1.5-3.3,3.3v11
							C333.9,504.3,335.3,505.7,337.1,505.7z M334.3,491.5c0-1.6,1.3-2.9,2.9-2.9h11c1.6,0,2.9,1.3,2.9,2.9v11
							c0,1.6-1.3,2.9-2.9,2.9h-11c-1.6,0-2.9-1.3-2.9-2.9V491.5z"/>
					</g>
				</g>
			</g>
			<g>
				
					<image style="overflow:visible;opacity:0.2;" width="401" height="401" xlink:href="A39D2973.png"  transform="matrix(0.24 0 0 0.24 679.76 407.4)">
				</image>
				<g>
					<g>
						<path class="st3" d="M702.7,416.5h59.4c1.8,0,3.3,1.5,3.3,3.3v59.4c0,1.8-1.5,3.3-3.3,3.3h-59.4c-1.8,0-3.3-1.5-3.3-3.3v-59.4
							C699.4,418,700.9,416.5,702.7,416.5z"/>
						<path class="st4" d="M702.7,482.5h59.4c1.8,0,3.3-1.5,3.3-3.3v-59.4c0-1.8-1.5-3.3-3.3-3.3h-59.4c-1.8,0-3.3,1.5-3.3,3.3v59.4
							C699.4,481.1,700.9,482.5,702.7,482.5z M699.8,419.8c0-1.6,1.3-2.9,2.9-2.9h59.4c1.6,0,2.9,1.3,2.9,2.9v59.4
							c0,1.6-1.3,2.9-2.9,2.9h-59.4c-1.6,0-2.9-1.3-2.9-2.9V419.8z"/>
					</g>
				</g>
			</g>
			<g>
				
					<image style="overflow:visible;opacity:0.2;" width="268" height="268" xlink:href="A39D2975.png"  transform="matrix(0.24 0 0 0.24 701.6 424.44)">
				</image>
				<g>
					<g>
						<path class="st0" d="M752.1,467.6h-27.6c-1.8,0-3.3-1.5-3.3-3.3v-27.6c0-1.8,1.5-3.3,3.3-3.3h27.6c1.8,0,3.3,1.5,3.3,3.3v27.6
							C755.4,466.2,753.9,467.6,752.1,467.6z"/>
						<path class="st4" d="M752.1,433.5h-27.6c-1.8,0-3.3,1.5-3.3,3.3v27.6c0,1.8,1.5,3.3,3.3,3.3h27.6c1.8,0,3.3-1.5,3.3-3.3v-27.6
							C755.4,435,753.9,433.5,752.1,433.5z M754.9,464.4c0,1.6-1.3,2.9-2.9,2.9h-27.6c-1.6,0-2.9-1.3-2.9-2.9v-27.6
							c0-1.6,1.3-2.9,2.9-2.9h27.6c1.6,0,2.9,1.3,2.9,2.9V464.4z"/>
					</g>
				</g>
			</g>
		</g>
	</g>
</g>
</svg>
