<?xml version="1.0" encoding="utf-8"?>
<!-- Generator: Adobe Illustrator 25.1.0, SVG Export Plug-In . SVG Version: 6.00 Build 0)  -->
<svg version="1.1" xmlns="http://www.w3.org/2000/svg" xmlns:xlink="http://www.w3.org/1999/xlink" x="0px" y="0px"
	 viewBox="0 0 750 500" style="enable-background:new 0 0 750 500;" xml:space="preserve">
<style type="text/css">
	.st0{opacity:0.3;fill:url(#SVGID_1_);}
	.st1{clip-path:url(#SVGID_3_);}
	.st2{opacity:0.2;clip-path:url(#SVGID_3_);}
	.st3{opacity:0.2;clip-path:url(#SVGID_3_);fill:none;stroke:url(#SVGID_4_);stroke-miterlimit:10;}
	.st4{opacity:0.5;clip-path:url(#SVGID_3_);}
	.st5{opacity:0.5;clip-path:url(#SVGID_3_);fill:none;stroke:url(#SVGID_5_);stroke-width:0.8929;stroke-miterlimit:10;}
</style>
<g id="BACKGROUND">
	<g>
		
			<image style="display:none;overflow:visible;" width="1563" height="1095" xlink:href="2C2AD7A8.png"  transform="matrix(0.48 0 0 0.48 0 -25.44)">
		</image>
		<radialGradient id="SVGID_1_" cx="375" cy="250" r="318.6887" gradientUnits="userSpaceOnUse">
			<stop  offset="0" style="stop-color:#FFFFFF"/>
			<stop  offset="0.5122" style="stop-color:#9536A7"/>
			<stop  offset="1" style="stop-color:#041B54"/>
		</radialGradient>
		<rect x="0" class="st0" width="750" height="500"/>
		<g>
			<defs>
				<rect id="SVGID_2_" width="750" height="500"/>
			</defs>
			<clipPath id="SVGID_3_">
				<use xlink:href="#SVGID_2_"  style="overflow:visible;"/>
			</clipPath>
			<g class="st1">
				
					<image style="overflow:visible;" width="788" height="329" xlink:href="2C2AD7A9.png"  transform="matrix(0.48 0 0 0.48 100.9154 60.7102)">
				</image>
			</g>
			<g class="st1">
				
					<image style="overflow:visible;" width="520" height="773" xlink:href="2C2AD7AF.png"  transform="matrix(0.48 0 0 0.48 511.5079 79.9379)">
				</image>
			</g>
			<g class="st1">
				
					<image style="overflow:visible;" width="390" height="709" xlink:href="2C2AD7AA.png"  transform="matrix(0.48 0 0 0.48 92.645 114.5005)">
				</image>
			</g>
			<g class="st1">
				<g>
					
						<image style="overflow:visible;" width="306.2" height="85.9" xlink:href="4DB9D926.png"  transform="matrix(1 0 0 1 136.9126 96.635)"/>
				</g>
			</g>
			<g class="st1">
				<g>
					
						<image style="overflow:visible;" width="177.5" height="298.8" xlink:href="4DB9D92A.png"  transform="matrix(1 0 0 1 547.5079 115.9379)"/>
				</g>
			</g>
			<g class="st1">
				<g>
					
						<image style="overflow:visible;" width="115.1" height="268" xlink:href="4DB9D92D.png"  transform="matrix(1 0 0 1 128.645 150.5005)"/>
				</g>
			</g>
			<g class="st2">
				
					<image style="overflow:visible;" width="581" height="459" xlink:href="2C2AD7AB.png"  transform="matrix(0.48 0 0 0.48 383.6276 -51.2343)">
				</image>
			</g>
			<linearGradient id="SVGID_4_" gradientUnits="userSpaceOnUse" x1="419.6276" y1="58.734" x2="626.4438" y2="58.734">
				<stop  offset="0" style="stop-color:#FFFFFF;stop-opacity:0"/>
				<stop  offset="0.5" style="stop-color:#FFFFFF"/>
				<stop  offset="1" style="stop-color:#FFFFFF;stop-opacity:0"/>
			</linearGradient>
			<path class="st3" d="M420,132.3c0,0,27.1-24.8,57.4-92c33.7-74.8,111.3-72,148.7,0"/>
			<g class="st4">
				
					<image style="overflow:visible;" width="417" height="476" xlink:href="2C2AD7A6.png"  transform="matrix(0.48 0 0 0.48 23.5766 215.6383)">
				</image>
			</g>
			<linearGradient id="SVGID_5_" gradientUnits="userSpaceOnUse" x1="59.5766" y1="329.8778" x2="187.27" y2="329.8778">
				<stop  offset="0" style="stop-color:#FFFFFF;stop-opacity:0"/>
				<stop  offset="0.5" style="stop-color:#FFFFFF"/>
				<stop  offset="1" style="stop-color:#FFFFFF;stop-opacity:0"/>
			</linearGradient>
			<path class="st5" d="M187,252c0,0-43,31.3-66.2,54.5C75.4,351.8,60,408,60,408"/>
		</g>
		<g>
			<defs>
				<rect id="SVGID_6_" width="750" height="500"/>
			</defs>
			<clipPath id="SVGID_7_">
				<use xlink:href="#SVGID_6_"  style="overflow:visible;"/>
			</clipPath>
			<g style="opacity:0.8;clip-path:url(#SVGID_7_);">
				
					<image style="overflow:visible;" width="1780" height="1187" xlink:href="2C2AD7A7.png"  transform="matrix(0.48 0 0 0.48 -52.32 -35.04)">
				</image>
			</g>
		</g>
	</g>
</g>
<g id="DESIGNED_BY_FREEPIK">
</g>
</svg>
