<?xml version="1.0" encoding="utf-8"?>
<!-- Generator: Adobe Illustrator 25.1.0, SVG Export Plug-In . SVG Version: 6.00 Build 0)  -->
<svg version="1.1" xmlns="http://www.w3.org/2000/svg" xmlns:xlink="http://www.w3.org/1999/xlink" x="0px" y="0px"
	 viewBox="0 0 1920 1080" style="enable-background:new 0 0 1920 1080;" xml:space="preserve">
<style type="text/css">
	.st0{display:none;fill:#FFFFFF;}
	.st1{opacity:0.5;fill:#F0DF64;}
	.st2{display:none;}
	.st3{display:inline;}
	.st4{fill:#F3F3F3;stroke:#1E344A;stroke-width:2.7283;stroke-miterlimit:10;}
	.st5{fill:#1E344A;}
	.st6{fill:#D8D8D8;}
	.st7{opacity:0.5;fill:#A6D97D;}
	.st8{fill:#F5F5F5;stroke:#4D4B4C;stroke-width:2.5;stroke-miterlimit:10;}
	.st9{fill:none;stroke:#4D4B4C;stroke-width:0.9574;stroke-miterlimit:10;}
	.st10{fill:#66B4BF;stroke:#1E344A;stroke-width:2.5;stroke-miterlimit:10;}
	.st11{fill:#EED58C;stroke:#1E344A;stroke-width:2.5;stroke-miterlimit:10;}
	.st12{fill:none;stroke:#4D4B4C;stroke-width:2.5;stroke-miterlimit:10;}
	.st13{fill:#FFFFFF;stroke:#4D4B4C;stroke-width:2.5;stroke-miterlimit:10;}
	.st14{fill:none;stroke:#1E344A;stroke-width:2.5;stroke-miterlimit:10;}
	.st15{fill:#D65555;stroke:#1E344A;stroke-width:2.5;stroke-miterlimit:10;}
	.st16{fill:#A6D97D;stroke:#1E344A;stroke-width:2.5;stroke-miterlimit:10;}
	.st17{opacity:0.2;fill:#66B4BF;}
	.st18{opacity:0.2;fill:#264366;}
	.st19{fill:#D8D8D8;stroke:#1E344A;stroke-width:2.5;stroke-miterlimit:10;}
	.st20{fill:#9B9B9A;stroke:#1E344A;stroke-width:2.5;stroke-miterlimit:10;}
	.st21{opacity:0.29;fill:#F5F5F5;}
	.st22{fill:#F5F5F5;}
	.st23{fill:#C4C4C4;}
	.st24{fill:#E6AF41;stroke:#1E344A;stroke-width:2.5;stroke-miterlimit:10;}
	.st25{fill:none;stroke:#FFFFFF;stroke-width:2;stroke-miterlimit:10;}
</style>
<g id="BACKGROUND">
	<rect x="-2.3" y="-2" class="st0" width="1924.5" height="1083.9"/>
	<path class="st1" d="M0.8,1080.7V881c0,0,165.3,25.8,181.7,104.3s70.3,15.2,120.7,21.1c50.4,5.9,63.3,74.4,63.3,74.4
		S-0.3,1079.6,0.8,1080.7z"/>
	<path class="st1" d="M1918.6,616.7V185.3c0,0-131,29.4-140,140c-9,110.7,56.5,149.1,58.7,198.8c2.3,49.7-42.9,61-27.1,124.2
		s108.4,117.5,108.4,117.5V616.7z"/>
</g>
<g id="OBJECTS" class="st2">
	<g class="st3">
		<g>
			<polygon class="st4" points="1858.7,946.5 771.1,946.5 861.5,862.9 1733.1,862.9 			"/>
			<rect x="771.1" y="946.3" class="st5" width="1088.6" height="18.1"/>
			<ellipse class="st6" cx="1219.3" cy="917.1" rx="46.2" ry="11"/>
			<ellipse class="st6" cx="1126.6" cy="893.4" rx="17.8" ry="7.6"/>
		</g>
		<circle class="st7" cx="1115" cy="479.5" r="251.3"/>
		<g>
			<path class="st8" d="M863.2,897.3l39.3-26.5h163.8l1.4,1.4c5.4,5.6,6.4,14.1,2.4,20.8l0,0l-39.5,29.4"/>
			<g>
				<path class="st8" d="M1060.4,905.7c-0.8,0-1.5-0.7-1.5-1.5c0-0.8,0.7-1.5,1.5-1.5c8.3,0,15-6.7,15-15c0-8.3-6.7-15-15-15
					c-1.1,0-2.1,0.1-3.1,0.3c-0.8,0.2-1.6-0.3-1.8-1.2c-0.2-0.8,0.3-1.6,1.2-1.8c1.2-0.3,2.5-0.4,3.7-0.4c9.9,0,18,8.1,18,18
					C1078.4,897.6,1070.3,905.7,1060.4,905.7z"/>
			</g>
			<path class="st8" d="M1023.2,923.9H863.2l0.8-1.1c5.5-7.7,5.2-18.1-0.8-25.5l0,0h160.1c7.3,0,13.3,5.9,13.3,13.3l0,0
				C1036.5,917.9,1030.6,923.9,1023.2,923.9z"/>
			<g>
				<path class="st8" d="M1047.4,915.3c-0.8,0-1.5-0.7-1.5-1.5c0-0.8,0.7-1.5,1.5-1.5c8.3,0,15-6.7,15-15s-6.7-15-15-15
					c-1.1,0-2.1,0.1-3.1,0.3c-0.8,0.2-1.6-0.3-1.8-1.2c-0.2-0.8,0.3-1.6,1.2-1.8c1.2-0.3,2.5-0.4,3.7-0.4c9.9,0,18,8.1,18,18
					S1057.4,915.3,1047.4,915.3z"/>
			</g>
			<g>
				<path class="st8" d="M1032.2,924.5c-0.8,0-1.5-0.7-1.5-1.5c0-0.8,0.7-1.5,1.5-1.5c8.3,0,15-6.7,15-15s-6.7-15-15-15
					c-1.1,0-2.1,0.1-3.1,0.3c-0.8,0.2-1.6-0.3-1.8-1.2c-0.2-0.8,0.3-1.6,1.2-1.8c1.2-0.3,2.5-0.4,3.7-0.4c9.9,0,18,8.1,18,18
					S1042.1,924.5,1032.2,924.5z"/>
			</g>
			<line class="st9" x1="866.8" y1="902.7" x2="1033.1" y2="902.7"/>
			<line class="st9" x1="866.8" y1="907.9" x2="1035.7" y2="907.9"/>
			<line class="st9" x1="866.8" y1="913.1" x2="1036.2" y2="913.1"/>
			<line class="st9" x1="866.8" y1="918.2" x2="1033.1" y2="918.2"/>
		</g>
		<g>
			<g>
				<path class="st10" d="M1272,513.9c0,0-25.4,2.3-45.2,7.3c-19.8,5.1-55.9,23.2-55.9,23.2l16.4,121.4l9.6,196.5H1503l26.5-185.8
					l2.8-148c0,0-37.3-6.8-61-9.6c-23.7-2.8-37.8-1.7-37.8-1.7L1272,513.9z"/>
				<path class="st11" d="M1400.2,481.2c0,0,5.6,17.5,14.7,26.5c9,9,18.6,9.6,18.6,9.6s-15.8,63.2-87,62.1
					c-62.7-1-74.5-65.5-74.5-65.5s20.3,0.6,26.5-9.6c6.2-10.2,4-22,4-22L1400.2,481.2z"/>
				<path class="st12" d="M1264.1,514.5c0,0,1.1,42.4,41.8,65.5c40.7,23.2,91.8,6.1,107.3-7.9c24.3-22,29.9-55.3,29.9-55.3"/>
				<path class="st5" d="M1298.5,504.3c0,0,18.6,35,32.2,40.7c13.6,5.6,40.7,5.6,50.8-1.1c10.2-6.8,28.2-40.7,28.2-40.7l-9.6-22
					l-97.7,1.1c0,0,1.1,7.3,0,13C1301.4,500.9,1298.5,504.3,1298.5,504.3z"/>
				<line class="st12" x1="1265.8" y1="525.2" x2="1274.3" y2="522.4"/>
				<line class="st12" x1="1269.2" y1="535.4" x2="1277.6" y2="532"/>
				<line class="st12" x1="1274.8" y1="550.1" x2="1285" y2="545.5"/>
				<line class="st12" x1="1286.1" y1="561.9" x2="1292.9" y2="557.4"/>
				<line class="st12" x1="1295.7" y1="573.8" x2="1302.5" y2="567"/>
				<line class="st12" x1="1307.6" y1="580" x2="1314.4" y2="573.2"/>
				<line class="st12" x1="1325.6" y1="587.9" x2="1329.6" y2="578.3"/>
				<line class="st12" x1="1340.3" y1="590.7" x2="1340.9" y2="580"/>
				<line class="st12" x1="1358.4" y1="591.3" x2="1357.3" y2="580.5"/>
				<line class="st12" x1="1373.6" y1="589.6" x2="1369.7" y2="577.7"/>
				<line class="st12" x1="1390.6" y1="585.1" x2="1386.1" y2="572.1"/>
				<line class="st12" x1="1402.4" y1="578.9" x2="1395.7" y2="567.6"/>
				<line class="st12" x1="1413.7" y1="570.9" x2="1405.8" y2="561.9"/>
				<line class="st12" x1="1422.2" y1="561.3" x2="1413.7" y2="554"/>
				<line class="st12" x1="1428.4" y1="553.4" x2="1420.5" y2="546.7"/>
				<line class="st12" x1="1434.6" y1="541" x2="1426.7" y2="535.9"/>
				<line class="st12" x1="1439.7" y1="528" x2="1429.6" y2="526.3"/>
			</g>
			<path class="st10" d="M1532.3,528.6c0,0,37.8,27.1,57,60.4c19.2,33.3,36.1,68.9,36.1,68.9s-35,23.2-57.6,31.1
				c-22.6,7.9-41.8,9-41.8,9s-4.5-50.8-2.8-92C1525,564.7,1532.3,528.6,1532.3,528.6z"/>
			<g>
				<path class="st10" d="M1170.9,544.4c0,0,18.6,36.7,25.4,72.3c6.8,35.6-7.9,65.5-7.9,65.5l-36.1,66.6c0,0-12.4-22-33.9-35
					c-21.5-13-48.6-14.7-48.6-14.7s22.6-62.1,42.9-97.1C1133.1,567,1170.9,544.4,1170.9,544.4z"/>
				<path class="st11" d="M1152.3,748.8c0,0-26.5,47.4-45.7,68.3c-19.2,20.9-43.5,32.2-43.5,32.2s14.1-18.6,5.6-45.7
					c-8.5-27.1-31.1-36.7-31.1-36.7l32.2-67.8c0,0,31.6,2.8,48.6,14.7C1135.3,725.7,1152.3,748.8,1152.3,748.8z"/>
				<path class="st11" d="M965.4,854.2c0,0,33.9,6.4,59.5,3.8c25.6-2.6,38.2-8.7,38.2-8.7s13.2-23.2,5.6-45.7
					c-9.2-27.7-31.1-36.7-31.1-36.7s-15.1,1.1-26.7,9c-11.7,7.9-39.2,17.3-50.4,16.9c-11.3-0.4-18.1-3-18.1-3s-4.5,28.6,3.4,42.2
					C953.7,845.6,965.4,854.2,965.4,854.2z"/>
				<path class="st11" d="M964.6,800c0,0,17.3-6.4,23.7-4.5c6.4,1.9,9.8,13.2,10.9,19.6c1.1,6.4,9.8,22.6,7.5,24.8
					s-7.9,1.5-13.2-1.5c-5.3-3-10.2-15.1-10.2-15.1L964.6,800z"/>
				<path class="st13" d="M901.6,737.7l99.1,130.1l15.4,7.5l-4.9-15.1l-99.1-130.7c-2.1-2.8-5.9-3.5-8.9-1.6v0
					C900.1,730.1,899.3,734.6,901.6,737.7z"/>
				<path class="st12" d="M1074.4,692.4c0,0,26.5-2.3,48.6,12.4c22,14.7,32.2,35,32.2,35"/>
				<path class="st11" d="M937.9,783.8c0,0-9.8-0.8-13.9,0.8c-4.1,1.5-7.2,7.2-7.2,7.2s-12,6.8-14.7,10.9c-2.6,4.1-3.8,9.4-3.8,9.4
					s-3.8,6.4-3.8,15.1s0.8,16.9,0.8,16.9l6.8,9.4c0,0-3.4,6.4-1.1,13.9s-0.4,8.3,9.8,14.3s30.5,10.5,38.8,10.2
					c8.3-0.4,42.9-10.9,44.4-13.9c1.5-3-1.5-7.9-1.5-7.9s3.4-0.8,3.8-5.3c0.4-4.5-4.5-10.5-4.5-10.5s3.4-3.4,3.4-9
					c0-5.6-9-13.2-9-13.2l-9.8-9L937.9,783.8z"/>
				<path class="st14" d="M991.7,854.2c0,0-50.1-19.6-58-30.9c-7.9-11.3-16.9-31.6-16.9-31.6"/>
				<path class="st14" d="M992.5,870.1c0,0-52.5-10.5-61-16.2c-8.5-5.6-33.1-41.8-33.1-41.8"/>
				<path class="st14" d="M984.6,869.1c0,0-29.4,10.7-42.9,6.8c-13.6-4-39.5-22.4-39.5-22.4"/>
			</g>
			<g>
				<path class="st11" d="M1264.7,358.1c0,0,6.2,80.2,19.8,112.4c13.6,32.2,40.7,60.7,49.1,63.2c8.5,2.5,37.8,3.4,46.3-5.1
					c8.5-8.5,36.7-37.6,46.9-85.8s6.5-95.7,6.5-95.7l-55.1-50.8l-63.5,4.2l-21.2,18.6L1264.7,358.1z"/>
				<path class="st5" d="M1268,392.5c0,0-16.9-39-13-67.8c4-28.8,23.2-57.6,23.2-57.6l0.6,14.1c0,0,23.2-22,49.7-32.2
					c26.5-10.2,54.2-11.9,54.2-11.9l-10.2,13c0,0,24.3,9,41.2,15.2c16.9,6.2,46.3,4,45.2,9c-1.1,5.1-15.2,9-15.2,9
					s8.5,23.2,15.8,31.1c7.3,7.9,5.1,19.8,0.6,18.6c-4.5-1.1-17.5,2.3-17.5,2.3s18.6,14.1,11.3,17.5c-7.3,3.4-79.6,1.1-79.6,1.1
					s14.1,7.9,8.5,9.6c-5.6,1.7-55.9,3.4-74-3.4c-18.1-6.8-29.9-10.2-29.9-10.2L1268,392.5z"/>
				<polygon class="st5" points="1424.5,353.5 1433.5,400.4 1448.2,349.6 				"/>
				<path class="st15" d="M1265.2,364.8c0,0-6.8-2.3-15.8,0c-9,2.3-16.9,9.6-16.9,9.6l11.3,83c0,0,11.9,7.3,20.3,6.2
					c8.5-1.1,16.4-4.5,16.4-4.5L1265.2,364.8z"/>
				
					<rect x="1225.4" y="401" transform="matrix(0.9932 -0.1166 0.1166 0.9932 -40.6105 146.4563)" class="st15" width="13" height="39"/>
				<path class="st15" d="M1439.3,364.8c0,0,6.8-2.3,15.8,0c9,2.3,16.9,9.6,16.9,9.6l-11.3,83c0,0-11.9,7.3-20.3,6.2
					c-8.5-1.1-16.4-4.5-16.4-4.5L1439.3,364.8z"/>
				
					<rect x="1466.2" y="401" transform="matrix(-0.9932 -0.1166 0.1166 -0.9932 2886.2695 1009.688)" class="st15" width="13" height="39"/>
				<path class="st15" d="M1249.4,364.8c2.6,0,5.1,0,7.4,0c3.7-49.4,45-88.4,95.4-88.4c49.9,0,90.9,38.3,95.3,87.1
					c2.5,0,5.2,0.2,7.7,1.2c0.9,0.3,1.7,0.7,2.5,1c-2.4-56.2-48.7-101-105.5-101c-56.5,0-102.7,44.4-105.5,100.3
					C1247.6,365,1248.5,364.8,1249.4,364.8z"/>
				<polyline class="st12" points="1356.9,450.3 1364,474 1345.6,471.4 				"/>
				<path class="st12" d="M1316.2,477.8c0,0,3.4,9.4,10.5,15.1c7.2,5.6,15.1,6,15.1,6"/>
				<path class="st5" d="M1288,415.7c0,0,12.8-9.4,24.5-7.9c8.2,1.1,14.4,4.9,17.3,7.1c1.1,0.9,1.7,2.3,1.3,3.7l0,0
					c-0.6,2.3-3.2,3.3-5.2,2.1c-2.9-1.8-7.4-4-13.4-5C1301.2,413.8,1288,415.7,1288,415.7z"/>
				<path class="st13" d="M1292.1,433.7c0,0,10.9-5.3,19.6-4.1c13.9,1.9,19.6,10.2,19.6,10.2s-8.3,4.9-21.5,1.9
					C1296.7,438.6,1292.1,433.7,1292.1,433.7z"/>
				<path class="st16" d="M1301.9,438.5c0,0,1.3-3.8,5.6-6.2c3.9-2.2,7.6-1.6,7.6-1.6s3,1.8,5.9,4.1c2.9,2.3,5.2,6.1,5.2,6.1
					s-4.8,2-12.7,1C1305.7,441,1301.9,438.5,1301.9,438.5z"/>
				<path class="st5" d="M1416,415.7c0,0-12.8-9.4-24.5-7.9c-8.2,1.1-14.4,4.9-17.3,7.1c-1.1,0.9-1.7,2.3-1.3,3.7l0,0
					c0.6,2.3,3.2,3.3,5.2,2.1c2.9-1.8,7.4-4,13.4-5C1402.8,413.8,1416,415.7,1416,415.7z"/>
				<path class="st13" d="M1411.9,433.7c0,0-10.9-5.3-19.6-4.1c-13.9,1.9-19.6,10.2-19.6,10.2s8.3,4.9,21.5,1.9
					C1407.3,438.6,1411.9,433.7,1411.9,433.7z"/>
				<path class="st16" d="M1402.1,438.9c0,0-1.2-3.8-5.5-6.4c-3.8-2.3-7.6-1.8-7.6-1.8s-3,1.7-6,3.9s-5.4,5.9-5.4,5.9
					s4.8,2.1,12.7,1.4C1398.2,441.2,1402.1,438.9,1402.1,438.9z"/>
				<path class="st17" d="M1326.2,349.6c18.5,5,32.2,5.1,32.2,5.1l-6.8-11.9c0,0,24.3,1.7,44-1.1c19.8-2.8,24.8-7.3,24.8-7.3
					s-23.7,0-45.2-1.1c-21.5-1.1-41.8-8.5-41.8-8.5l7.3,18.1c0,0-13,0.6-25.4-4.5c-12.4-5.1-28.2-14.7-28.2-14.7
					S1296.8,341.7,1326.2,349.6z"/>
			</g>
			<path class="st18" d="M1196.9,862.3l64.4-0.6c0,0,49.7-20.3,38.4-66.6c-11.3-46.3-47.4,3.4-61-36.1
				c-13.6-39.5,21.5-54.2,2.3-75.7s-52.5-1.1-52.5-1.1L1196.9,862.3z"/>
			<path class="st18" d="M1069.8,699.1c0,0,24.6-72.6,47.4-103.9c22.9-31.3,53.6-50.8,53.6-50.8s-2,39.8-18.1,69.5
				c-16.1,29.6-34.7,11-41.5,31.3c-6.8,20.3,16.9,20.3,5.9,38.1C1106.3,701.1,1069.8,699.1,1069.8,699.1z"/>
			<path class="st18" d="M1526.1,698c0,0-4-38.4-3.1-73.1c0.8-34.7,2.5-53.4,2.5-53.4s27.1,23.7,37.3,51.7s-18.6,22.9-11,36.4
				c7.6,13.6,32.2,22.9,32.2,22.9s-10.2,6.8-29.6,11S1526.1,698,1526.1,698z"/>
		</g>
		<g>
			<path class="st19" d="M1743.7,627.4h-383.1c-9.9,0-18,8-18,18v252.3h404l15-251.2C1762.2,636.1,1754,627.4,1743.7,627.4z"/>
			<polygon class="st19" points="1342.6,897.6 1301.4,861.2 1300.2,851 1342,888.3 			"/>
			<polygon class="st20" points="1342,888.3 1300.2,851 1342.6,851 			"/>
			<path class="st21" d="M1639.9,627.4h98.7c11.7,0,20.9,9.9,20.1,21.5l-16.4,248.7c0,0-66.1-24.6-70.3-67.8s54.2-62.7,40.7-107.6
				c-13.6-44.9-53.4,4.2-84.7-25.4C1596.7,667.2,1639.9,627.4,1639.9,627.4z"/>
			<circle class="st22" cx="1554.4" cy="770.6" r="29.6"/>
		</g>
		
			<ellipse transform="matrix(0.9293 -0.3694 0.3694 0.9293 -53.1057 615.639)" class="st14" cx="1581.1" cy="446.5" rx="58.4" ry="58.4"/>
		<circle class="st14" cx="1627.3" cy="309.2" r="44"/>
		<g>
			<rect x="1555.3" y="413.6" class="st14" width="51.7" height="65.8"/>
			<line class="st14" x1="1561.8" y1="430.5" x2="1600.2" y2="430.5"/>
			<line class="st14" x1="1561.8" y1="437.6" x2="1600.2" y2="437.6"/>
			<line class="st14" x1="1561.8" y1="444.7" x2="1600.2" y2="444.7"/>
			<line class="st14" x1="1561.8" y1="451.7" x2="1600.2" y2="451.7"/>
			<line class="st14" x1="1561.8" y1="458.8" x2="1600.2" y2="458.8"/>
			<rect x="1579.3" y="465.6" class="st23" width="21.5" height="8.8"/>
			<rect x="1561.9" y="419.3" class="st23" width="38" height="4.8"/>
		</g>
		<g>
			<polygon class="st24" points="1606.8,283.4 1609.1,288.1 1614.4,288.9 1610.6,292.6 1611.5,297.8 1606.8,295.4 1602.1,297.8 
				1603,292.6 1599.2,288.9 1604.4,288.1 			"/>
			<polygon class="st24" points="1606.8,302 1609.1,306.8 1614.4,307.5 1610.6,311.2 1611.5,316.5 1606.8,314 1602.1,316.5 
				1603,311.2 1599.2,307.5 1604.4,306.8 			"/>
			<polygon class="st24" points="1606.8,320.6 1609.1,325.4 1614.4,326.2 1610.6,329.9 1611.5,335.1 1606.8,332.6 1602.1,335.1 
				1603,329.9 1599.2,326.2 1604.4,325.4 			"/>
			<line class="st14" x1="1620.9" y1="292.2" x2="1655.4" y2="292.2"/>
			<line class="st14" x1="1620.9" y1="311.4" x2="1655.4" y2="311.4"/>
			<line class="st14" x1="1620.9" y1="330.6" x2="1655.4" y2="330.6"/>
		</g>
		<circle class="st25" cx="1033.4" cy="497.8" r="26.3"/>
		<circle class="st25" cx="997.8" cy="414.8" r="14.4"/>
	</g>
</g>
<g id="TEXTS" class="st2">
</g>
</svg>
