<?xml version="1.0" encoding="utf-8"?>
<!-- Generator: Adobe Illustrator 25.1.0, SVG Export Plug-In . SVG Version: 6.00 Build 0)  -->
<svg version="1.1" id="Layer_1" xmlns="http://www.w3.org/2000/svg" xmlns:xlink="http://www.w3.org/1999/xlink" x="0px" y="0px"
	 viewBox="0 0 477 490" style="enable-background:new 0 0 477 490;" xml:space="preserve">
<style type="text/css">
	.st0{display:none;}
	.st1{fill:#B8C4FF;}
	.st2{fill:#979CF7;}
	.st3{fill:#5C55B5;}
	.st4{fill:#5C62B7;}
	.st5{fill:#FFD731;}
	.st6{fill:#ED6E18;}
	.st7{fill:#FF9517;}
	.st8{fill:#FFFFFF;}
	.st9{fill:#33434F;}
	.st10{fill:#EDE4E6;}
	.st11{fill:#F4CFA2;}
	.st12{fill:#EFAC8E;}
	.st13{fill:#CA4456;}
	.st14{fill:#384F5E;}
	.st15{fill:#42221B;}
	.st16{fill:#CE6F5F;}
	.st17{fill:#A03242;}
	.st18{fill:#CC505C;}
	.st19{fill:#7F8C8D;}
	.st20{fill:#7F2437;}
	.st21{fill:#E5617E;}
	.st22{fill:#37425B;}
	.st23{fill:#4E617F;}
	.st24{fill:#3F506D;}
	.st25{fill:#242F3F;}
	.st26{fill:#2F3A4C;}
	.st27{fill:#A97C50;}
	.st28{fill:#4B4AA3;}
	.st29{fill:#3D4B66;}
	.st30{fill:#3D62AE;}
	.st31{font-family:'ArialMT';}
	.st32{font-size:40px;}
</style>
<g id="Background" class="st0">
</g>
<g id="Objects">
	<g>
		<g>
			<path class="st1" d="M401.3,260.8c36-24.3,52-66.1,35.9-102.8c-19.3-44-77.5-63.9-130-44.3c-5.3,2-10.3,4.2-15,6.8
				c-0.1-1.2-0.3-2.3-0.5-3.5C283.3,67.6,231,34.2,175,42.3c-49.7,7.2-85.7,44.6-87.4,87.3c-42,12.8-69,52-61.9,93.5
				c2.9,17.2,11.3,32.4,23.3,44.3c-35.3,39.8-46.3,91.7-23.6,135.8c33.3,64.6,136.5,81.8,218,46.1c3.9-1.7,7.7-3.5,11.4-5.4
				c83.9,32.6,172.6,15.6,201.8-40.2C479.4,360.2,452.6,303,401.3,260.8"/>
			<path class="st2" d="M395.4,416.6c22.4-39.1-3.9-90.2-54.2-128.1c35.4-21.8,51-59.2,35.2-92.1c-18.9-39.5-76-57.2-127.5-39.7
				c-5.2,1.8-10.1,3.8-14.7,6.1c-0.1-1-0.3-2.1-0.5-3.1c-8.2-44.2-59.5-74.2-114.5-66.9c-8.5,1.1-16.5,3.1-24,5.7
				c-4.5,9.8-7.2,20.3-7.6,31.1c-42,12.8-69,52-61.9,93.5c2.9,17.2,11.3,32.4,23.3,44.3c-35.3,39.8-46.3,91.7-23.6,135.8
				c21.6,42,72.9,64,128.5,64.4c11.1-2.6,21.9-6,32.5-10.2c3.8-1.5,7.5-3.1,11.1-4.8c6.6,2.3,13.2,4.4,19.8,6.2
				c8.9-2.6,17.6-5.7,26.1-9.4c3.9-1.7,7.7-3.5,11.4-5.4c26.5,10.3,53.4,15.6,78.8,16.4C361.3,452.3,383.4,437.5,395.4,416.6z"/>
		</g>
		<g>
			<path class="st3" d="M426.3,160.4h-1.9c-0.3,0-0.5-0.2-0.6-0.5c-0.2-0.8-0.4-1.6-0.6-2.3c-0.1-0.3,0-0.5,0.3-0.7l1.7-0.9
				c0.3-0.2,0.4-0.5,0.2-0.8l-2.9-4.8c-0.2-0.3-0.5-0.4-0.8-0.2l-1.6,0.9c-0.2,0.1-0.5,0.1-0.7-0.1c-0.5-0.5-1-1.1-1.6-1.5
				c-0.2-0.2-0.3-0.5-0.1-0.7l1-1.6c0.2-0.3,0.1-0.6-0.2-0.8l-4.9-2.8c-0.3-0.2-0.6-0.1-0.8,0.2l-1,1.6c-0.1,0.2-0.4,0.3-0.7,0.2
				c-0.8-0.3-1.7-0.5-2.6-0.7c-0.3-0.1-0.5-0.3-0.5-0.6v-1.8c0-0.3-0.3-0.6-0.6-0.6h-5.7c-0.3,0-0.6,0.3-0.6,0.6v1.8
				c0,0.3-0.2,0.5-0.5,0.6c-0.7,0.1-1.4,0.3-2.1,0.5c-0.3,0.1-0.6,0-0.7-0.3l-0.9-1.6c-0.2-0.3-0.5-0.4-0.8-0.2l-5,2.7
				c-0.3,0.2-0.4,0.5-0.2,0.8l0.9,1.6c0.1,0.2,0.1,0.5-0.1,0.7c-0.6,0.5-1.3,1.1-1.8,1.7c-0.2,0.2-0.5,0.3-0.7,0.1l-1.6-0.9
				c-0.3-0.2-0.6-0.1-0.8,0.2l-2.9,4.8c-0.2,0.3-0.1,0.6,0.2,0.8l1.6,0.9c0.2,0.1,0.3,0.4,0.3,0.7c-0.3,0.8-0.5,1.7-0.7,2.5
				c-0.1,0.3-0.3,0.5-0.6,0.5h-1.9c-0.3,0-0.6,0.3-0.6,0.6v5.6c0,0.3,0.3,0.6,0.6,0.6h1.9c0.3,0,0.5,0.2,0.6,0.5
				c0.2,0.8,0.4,1.6,0.6,2.3c0.1,0.3,0,0.5-0.3,0.7l-1.7,0.9c-0.3,0.2-0.4,0.5-0.2,0.8l2.9,4.8c0.2,0.3,0.5,0.4,0.8,0.2l1.6-0.9
				c0.2-0.1,0.5-0.1,0.7,0.1c0.5,0.5,1,1.1,1.6,1.5c0.2,0.2,0.3,0.5,0.1,0.7l-1,1.6c-0.2,0.3-0.1,0.6,0.2,0.8l4.9,2.8
				c0.3,0.2,0.6,0.1,0.8-0.2l1-1.6c0.1-0.2,0.4-0.3,0.7-0.2c0.8,0.3,1.7,0.5,2.6,0.7c0.3,0.1,0.5,0.3,0.5,0.6v1.8
				c0,0.3,0.3,0.6,0.6,0.6h5.7c0.3,0,0.6-0.3,0.6-0.6v-1.8c0-0.3,0.2-0.5,0.5-0.6c0.7-0.1,1.4-0.3,2.1-0.5c0.3-0.1,0.6,0,0.7,0.3
				l0.9,1.6c0.2,0.3,0.5,0.4,0.8,0.2l5-2.7c0.3-0.2,0.4-0.5,0.2-0.8l-0.9-1.6c-0.1-0.2-0.1-0.5,0.1-0.7c0.7-0.5,1.3-1.1,1.8-1.7
				c0.2-0.2,0.5-0.3,0.7-0.1l1.6,0.9c0.3,0.2,0.6,0.1,0.8-0.2l2.9-4.8c0.2-0.3,0.1-0.6-0.2-0.8l-1.6-0.9c-0.2-0.1-0.3-0.4-0.3-0.7
				c0.3-0.8,0.5-1.7,0.7-2.5c0.1-0.3,0.3-0.5,0.6-0.5h1.9c0.3,0,0.6-0.3,0.6-0.6V161C426.9,160.6,426.7,160.4,426.3,160.4
				 M404.4,174c-5.8,0-10.6-4.6-10.6-10.2c0-5.6,4.7-10.2,10.6-10.2s10.6,4.6,10.6,10.2C414.9,169.4,410.2,174,404.4,174"/>
		</g>
		<g>
			<path class="st4" d="M84.9,90.3c0-15.5,13-28.1,29.1-28.1s29.1,12.6,29.1,28.1s-13,28.1-29.1,28.1
				C97.9,118.4,84.9,105.9,84.9,90.3"/>
			<rect x="94.4" y="79.1" class="st5" width="38.8" height="24.2"/>
			<polyline class="st6" points="94.4,103.3 114,87.6 133.2,103.3 			"/>
			<polygon class="st7" points="113.6,94.9 94.4,79.1 133.2,79.1 			"/>
		</g>
		<g>
			<path class="st3" d="M40,115.7c0-8.9,7.5-16.2,16.7-16.2s16.7,7.2,16.7,16.2c0,8.9-7.5,16.2-16.7,16.2
				C47.5,131.8,40,124.6,40,115.7"/>
			<g>
				<path class="st8" d="M67.6,110.8c-3-3-6.8-4.6-10.9-4.6c-4,0-7.9,1.6-10.9,4.6c-0.5,0.5-0.5,1.4,0,1.9c0.6,0.5,1.5,0.5,2,0
					c2.4-2.4,5.6-3.8,8.8-3.8c3.2,0,6.4,1.3,8.8,3.8c0.3,0.3,0.6,0.4,1,0.4s0.7-0.1,1-0.4C68.2,112.2,68.2,111.4,67.6,110.8"/>
				<path class="st8" d="M56.8,111.2c-2.8,0-5.6,1.2-7.6,3.3c-0.5,0.6-0.5,1.4,0.1,1.9s1.5,0.5,2-0.1c1.5-1.6,3.5-2.5,5.6-2.5
					s4,0.9,5.6,2.5c0.3,0.3,0.7,0.4,1,0.4s0.7-0.1,1-0.4c0.6-0.5,0.6-1.4,0.1-1.9C62.3,112.4,59.6,111.2,56.8,111.2"/>
				<path class="st8" d="M56.8,116.6c-1.8,0-3.5,0.8-4.7,2.2c-0.5,0.6-0.4,1.4,0.2,1.9c0.3,0.2,0.6,0.3,0.9,0.3
					c0.4,0,0.8-0.2,1.1-0.5c1.4-1.6,3.7-1.6,5.1,0c0.5,0.6,1.4,0.6,2,0.2c0.6-0.5,0.7-1.4,0.2-1.9C60.2,117.4,58.6,116.6,56.8,116.6
					"/>
				<path class="st8" d="M56.8,122.3c-0.9,0-1.7,0.7-1.7,1.6c0,0.9,0.7,1.6,1.7,1.6c0.9,0,1.7-0.7,1.7-1.6
					C58.4,123,57.7,122.3,56.8,122.3"/>
			</g>
		</g>
		<g>
			<path class="st3" d="M70.2,165.2c0-15.6,13.1-28.3,29.3-28.3s29.3,12.7,29.3,28.3s-13.1,28.3-29.3,28.3
				C83.3,193.6,70.2,180.9,70.2,165.2"/>
			<path class="st5" d="M110.4,182.5l-3.7-9.7c-0.2-0.6-0.8-0.8-1.4-0.6l-3.2,1.1c-0.6,0.2-1.2-0.1-1.4-0.6L95.1,158
				c-0.2-0.6,0.1-1.2,0.7-1.4l3.4-1.2c0.6-0.2,0.9-0.8,0.7-1.4l-3.3-8.8c-0.2-0.6-0.8-0.8-1.4-0.6l-6.3,2.2c-3.3,1.2-5,4.7-3.8,8
				l8.2,21.7l2.2,5.9c1.2,3.2,4.9,4.9,8.2,3.7l6.1-2.2C110.3,183.6,110.6,183,110.4,182.5"/>
		</g>
		<g>
			<path class="st9" d="M199.4,107.8c5.8,0.7,21-0.2,35.3,15.9c14.3,16.2,5.3,33.8-0.3,39.3c-5.7,5.5,6,20.5,5.7,41.8
				S207,235,181.2,233c-25.9-2-43.8-11.3-42.9-32.8c0.9-21.5,7.6-19.8,8.1-49.2C146.8,121.7,167.6,104.2,199.4,107.8"/>
			<path class="st8" d="M231.8,228.3c-0.5-6.3-3-8.9-15.1-11.3c-10.4-2-11.6-2.9-25.5-3c-8.5-0.1-19.9,0.1-33.7,3.5
				c-13.8,3.3-12.1,9.3-12.2,18c-0.2,8.7,0.5,146.5,0.5,146.5h88.1C233.8,382,232.3,234.7,231.8,228.3"/>
			<path class="st10" d="M228.8,377.9c-9.7-3.2-19.6-8.5-24.9-17.6l0,0c-4.4-5.7-7.5-12.4-9.9-19.2c-5.1-14.4-6.3-29.5-6.7-44.7
				c-0.4-15.7,0.3-31.7-3.3-47.1c-1.6-7.2-4-14.2-7.2-20.9c-1.6-3.4-3.4-6.7-5.2-10c-0.6-1-1.1-2.1-1.7-3.1c-3.9,0.5-8,1.3-12.4,2.3
				c-13.8,3.3-12.1,9.3-12.2,18c-0.2,8.7,0.5,146.5,0.5,146.5h88.1c0,0,0-0.9,0-2.7C232.1,378.9,230.5,378.4,228.8,377.9z"/>
			<path class="st11" d="M214.1,216.3c-4.9-1-6.8-1.1-9.9-1.6l0.1-12.5l-25.4-5.7l-0.4,17.8c-4.1,0.3-8.6,0.7-13.5,1.6
				c7.7,20.1,32.6,28.2,36,28.2s13.3-15,13.8-21.3C214.9,220.3,214.5,218,214.1,216.3"/>
			<path class="st12" d="M204.4,214.7c-0.1,0-0.2,0-0.2,0l0.1-12.5l-25.4-5.7l-0.3,12.4C184.5,215,196,216.3,204.4,214.7z"/>
			<path class="st13" d="M239.4,173.6c-0.8,7.4-5.4,12.6-10.8,12.1c-5.3-0.6-9-7.2-8.2-14.6c0.8-7.4,5.5-12.4,10.8-11.9
				C236.6,159.7,240.3,166.2,239.4,173.6"/>
			<path class="st11" d="M219.4,128.5l-35-0.9c-6.5-0.2-12,4.8-12.1,11.1l-1.1,41.2c-0.6,15.5,10.4,28.4,29.9,29.4
				c14.3,0.7,28.3-8.3,28.6-26.4l1.2-42.6C231,133.9,225.9,128.6,219.4,128.5"/>
			<path class="st12" d="M177,153.4c2,0.1,4.1,0.1,6.2-0.1c4.4-0.4,8.8-1.5,12.9-3.1c3.6-1.4,7.5-2.9,10.4-5.5
				c2-1.8,3.5-4.8,6.2-5.8c2.5-0.9,5.3-0.5,7.8,0.4c4.6,1.7,8.2,4.6,10.2,8.9l0.2-8c0.2-6.3-5-11.6-11.5-11.7l-35-0.9
				c-6.5-0.2-12,4.8-12.1,11.1l-0.4,13.9C173.5,153.3,175.6,153.3,177,153.4z"/>
			<g>
				<path class="st9" d="M169,165.5c0,0,7.6-3.4,7.6-15.9c0,0,28.1,2.6,33.2-18.1c0,0,19.3,1.8,20.9,20.9c0.3,3.1,8.3-8.4,2.3-20.9
					c-5.9-12.5-37.1-16.8-51.4-9.6C173.7,125.9,168.2,130.3,169,165.5"/>
				<path class="st14" d="M170.9,136c1.3,0.8,3.3,0.6,4.8,0.3c4-0.7,6.5-3,9.9-5.1c0.4-0.2,0.9,0.1,0.7,0.6
					c-0.3,0.9-1.6,4.4,0.1,4.8c1.1,0.3,2.3-0.2,3.3-0.7c2.3-1.1,4.4-2.5,6.3-4.1c0.4-0.3,0.9,0,0.8,0.5c-0.5,3.5,3.2,1.2,4.7,0.1
					c1.6-1.1,3.4-2.5,4.4-4.2c0.2-0.3,0.6-0.3,0.8-0.1c1.8,2,7.6,3.9,6.2-0.8c-0.2-0.5,0.5-0.8,0.8-0.5c2.9,2.3,6.6,4.4,10.3,5.1
					c2,0.4,5.3,0.6,6.8-1.3c0.5-0.6,0.6-1.2,0.6-1.8c-8.8-10.4-36.4-13.6-49.7-6.9C176.9,124.3,173,126.8,170.9,136z"/>
			</g>
			<g>
				<g>
					<path class="st15" d="M184.8,159.5c-0.1,0,0.1-0.3,0.3-0.8s0.7-1,1.3-1.7c0.6-0.6,1.4-1.2,2.4-1.6c0.9-0.4,2-0.4,2.9-0.2
						c1.7,0.5,2.4,1.2,2.7,1.5c0.3,0.4,0.2,0.5,0.1,0.6c-0.1,0.1-0.2,0.2-0.6,0c-0.4-0.2-1-0.7-2.4-1.1c-0.7-0.2-1.5-0.1-2.3,0.1
						c-0.8,0.2-1.5,0.7-2.1,1.2C185.7,158.7,184.9,159.6,184.8,159.5"/>
					<path class="st15" d="M188.6,168.6c0-2.7,1-4.8,2.3-4.8s2.3,2.2,2.3,4.8s-1,4.8-2.3,4.8C189.6,173.4,188.6,171.3,188.6,168.6"
						/>
				</g>
				<g>
					<path class="st15" d="M225.5,157.4c-0.1,0.1-0.9-0.6-2.1-1c-1.2-0.5-2.8-0.3-3.9,0.4c-1.1,0.6-1.6,1-1.9,1.2
						c-0.3,0.2-0.4,0.1-0.6,0c-0.1-0.1-0.2-0.2,0-0.6c0.2-0.3,0.7-0.9,1.9-1.6c0.6-0.3,1.5-0.6,2.3-0.6c0.9,0,1.7,0.2,2.4,0.5
						C225,156.4,225.6,157.4,225.5,157.4"/>
					<path class="st15" d="M218.9,168.6c0-2.7,1-4.8,2.3-4.8s2.3,2.2,2.3,4.8s-1,4.8-2.3,4.8C220,173.4,218.9,171.3,218.9,168.6"/>
				</g>
				<path class="st15" d="M212.2,179.9c-0.1-0.2-0.2-0.4-0.4-0.6c-0.5-0.7-1-1.4-1.5-1.9c-0.2-0.3-0.5-0.6-0.6-0.8s-0.2-0.5-0.3-0.8
					c-0.3-1-0.4-1.7-0.5-1.7s-0.3,0.7-0.2,1.9c0,0.3,0.1,0.6,0.2,1c0.2,0.4,0.4,0.7,0.6,1c0.4,0.6,0.9,1.2,1.4,1.9
					c0.1,0.2,0.2,0.3,0.3,0.5c0,0.1,0.1,0.2,0.1,0.2l0,0c0,0-0.2,0.2-0.3,0.3s-0.2,0.3-0.4,0.4c-0.5,0.5-0.9,1-1.3,1.4
					c-0.8,0.8-1.2,1.4-1.1,1.5c0.1,0.1,0.7-0.3,1.6-1c0.4-0.4,1-0.8,1.5-1.3c0.1-0.1,0.3-0.3,0.4-0.4c0.1-0.2,0.3-0.3,0.4-0.6
					c0.1-0.2,0.1-0.4,0-0.6C212.3,180.1,212.2,180,212.2,179.9"/>
				<g>
					<path class="st16" d="M186,176.9c-0.2-0.2-0.4-0.2-0.9,0.4c-0.6,0.6-1.4,1.8-1.2,1.9c0.2,0.2,1.2-0.7,1.8-1.4
						C186.3,177.2,186.2,177.1,186,176.9"/>
					<path class="st16" d="M188.7,176.9c-0.2-0.2-0.4-0.2-0.9,0.4c-0.6,0.6-1.4,1.8-1.2,1.9c0.2,0.2,1.3-0.7,1.8-1.4
						C189,177.2,188.8,177.1,188.7,176.9"/>
				</g>
				<g>
					<path class="st16" d="M224.3,176c-0.2-0.2-0.4-0.2-0.9,0.4c-0.6,0.6-1.4,1.8-1.2,1.9c0.2,0.2,1.2-0.7,1.8-1.4
						C224.5,176.3,224.4,176.2,224.3,176"/>
					<path class="st16" d="M226.9,176c-0.2-0.2-0.4-0.2-0.9,0.4c-0.6,0.6-1.4,1.8-1.2,1.9c0.2,0.2,1.3-0.7,1.8-1.4
						C227.2,176.3,227.1,176.2,226.9,176"/>
				</g>
				<g>
					<path class="st17" d="M213.9,189.5h-17.4c-1,0-1.9,0.8-1.9,1.8c0,5,4.2,9.1,9.4,9.1h2.5c5.1,0,9.3-4,9.3-9v-0.1
						C215.8,190.3,215,189.5,213.9,189.5"/>
					<path class="st18" d="M205,194.2l-2.4-0.2c-2.5-0.2-4.8,0.7-6.5,2.2c1.7,2.5,4.6,4.2,7.9,4.2h2.5c2.1,0,4.1-0.7,5.7-1.9
						C210.7,196.1,208.1,194.4,205,194.2"/>
					<path class="st8" d="M207.3,193.1c3.1,0,6-0.2,8.4-0.6c0-0.3,0.1-0.7,0.1-1v-0.1c0-1-0.8-1.8-1.9-1.8h-17.4
						c-1,0-1.9,0.8-1.9,1.8c0,0.4,0,0.8,0.1,1.1c2.4,0.4,5.4,0.6,8.6,0.6H207.3z"/>
				</g>
			</g>
			<path class="st19" d="M191.8,198.8c0.5-2.9,3.7-4.7,7.2-4.1c3.4,0.6,5.8,3.4,5.3,6.2c-0.5,2.9-3.7,4.7-7.2,4.1
				C193.6,204.5,191.3,201.7,191.8,198.8"/>
			<path class="st19" d="M198.1,201.1H198c-20.6-1.4-28.2-15.9-28.5-16.5c-0.4-0.7-0.1-1.6,0.7-2s1.7-0.1,2.1,0.7
				c0.3,0.6,7.2,13.6,25.9,14.8c0.9,0.1,1.5,0.8,1.4,1.6C199.6,200.5,199,201.1,198.1,201.1"/>
			<path class="st17" d="M226.8,219.2c0,0,6.1,1,12.7,10.8c6.6,9.8,33.3,70,41.6,82c8.3,12,61.5,66.7,61.5,66.7h-39
				c0,0-25.5-23.2-41.2-42.3c-15.7-19.2-32.6-53-32.6-53L226.8,219.2z"/>
			<g>
				<path class="st20" d="M167.8,166c0,0-0.4-11.5-0.4-23.7c0-17,8.1-31.8,32-34.6c0,0-12.8-4.9-26.5,7c-10,9.7-10.3,18.7-10.6,26.8
					c-0.3,8.1,0,24.5,0,24.5H167.8z"/>
				<g>
					<g>
						<path class="st8" d="M162.2,166.1l5.6-0.1c0,0-0.1-3.8-0.3-9.3H162C162.1,161.9,162.2,166.1,162.2,166.1"/>
						<path class="st5" d="M162.1,153.7h5.4c0-1,0-2.1,0-3.1h-5.4C162.1,151.6,162.1,152.6,162.1,153.7"/>
						<path class="st7" d="M162.1,153.7c0,1,0,2.1,0,3h5.5c0-1,0-2-0.1-3H162.1z"/>
					</g>
					<g>
						<path class="st20" d="M153.3,176.6c-1.1-8.1,3.7-15.3,10.7-16.2s13.2,3.1,14.7,12.6c1.3,8,0.4,14.8-10,16.9
							C161.8,191.2,154.4,184.6,153.3,176.6"/>
						<path class="st13" d="M153.2,175.9c-1-7.1,2.7-13.1,8.6-13.8c5.9-0.8,11.6,4.5,12.6,11.6s-2.8,12.9-8.7,13.7
							C159.8,188.1,154.2,183,153.2,175.9"/>
						<path class="st21" d="M165.1,171.4c-1.6-2.2-1.8-4.7-0.5-5.7s3.6-0.1,5.2,2.2c1.6,2.2,1.8,4.6,0.5,5.7
							C169,174.6,166.7,173.6,165.1,171.4"/>
					</g>
				</g>
			</g>
			<path class="st13" d="M209.2,215.4c0,0,9.3,28.1,10,51.1s0.5,115.5,0.5,115.5h21.9c0,0-1.2-83.7-0.7-86.2s9.1-10.8,4-29.7
				c-5.2-18.8-8.3-22.2-9.3-27.5s0.3-16.9-8.1-19.3C217.2,216.4,209.2,215.4,209.2,215.4"/>
			<path class="st13" d="M172.4,214.4c0,0-21.4,0.8-30.4,11.6c-9,10.9,2.6,39.6,2.3,53.5S140,381.6,140,381.6h44.1
				c0,0,1.6-87.6,1.4-107.2C185.5,254.8,172.4,214.4,172.4,214.4"/>
			<path class="st20" d="M183.3,341.2c-5.1-0.7-10.4-3.2-14.9-5.8c-5.5-3.1-10.4-6.9-13.9-12.2c-3.3-4.9-5.9-11-6.7-16.9
				c-0.8-6.5-0.5-13.2,0-19.6c0.2-3,0.6-6.3,0.1-9.3c-0.3-1.4-0.8-3.8-2.3-4.6c-0.6-0.4-1.2,0-1.7,0.7c0.3,2.2,0.4,4.2,0.4,6
				c-0.3,13.9-4.3,102.1-4.3,102.1h44.1c0,0,0.3-18.4,0.7-40.3C184.3,341.3,183.8,341.3,183.3,341.2z"/>
			<path class="st13" d="M152.2,265.7c0,0-33.2,47.8-33.2,48.2s74.3,22.4,74.3,22.4l-7.2,20.5c0,0-80.5-14.9-95.3-21.5
				s-8.5-18.9-0.1-33.5s28.4-46.5,39.2-62.2c10.7-15.8,18.2-19.5,27-21.6C165.7,215.8,149.5,219.7,152.2,265.7"/>
			<path class="st17" d="M160.1,343.6c-11.6,0.9-23.5,0.5-35-1.1c-11.9-1.7-26.5-5.3-34.6-15c-3.6-4.3-5.1-9.2-4.5-14.8
				c0.1-1.2,0.4-2.4,0.7-3.6c-5.9,11.4-8.1,20.7,4.1,26.2c14.7,6.6,95.3,21.5,95.3,21.5l7.2-20.5c0,0-1.1-0.3-3.1-0.9
				C181.2,340.7,170.5,342.9,160.1,343.6z"/>
			<path class="st18" d="M112.1,318.9c5.3,3,11.9,2.9,17.8,3.9c7.6,1.3,15,3.5,22.6,4.9c6.5,1.2,12.9,2.2,19.4,3.8
				c4.1,1,8.5,2.1,12.8,2.2c-19.6-5.8-65.6-19.4-65.6-19.8s18.3-26.7,27.7-40.3c-4.9,5.7-10.4,10.9-15,16.8
				c-6.5,8.3-11.7,17.7-20,24.4c0.8,0.3,1.4,0.8,2.2,1.1c0.3,0.1,0.3,0.6,0.1,0.8C113.3,317.3,112.8,318.2,112.1,318.9z"/>
			<path class="st11" d="M180.9,345.9c2.7-12.5,12.2-13.1,23.4-14.2c11.1-1.1,14.2,0.4,20.3,3.2c6.1,2.8,10.5,5.2,10,7.4
				c-0.5,2.2-1.7,4-4.8,3s-11.3,3.6-10.9,6.4c0.4,2.8,6.4,6,4.7,9s-6.4,2.5-10.3,0.2c-3.9-2.2-5.6-3.1-7.4-2.1
				c-1.8,1-11.2,2-17.7-0.2C181.8,356.4,179.4,352.6,180.9,345.9"/>
			<path class="st12" d="M214.3,357.9c-1.9-1.3-3.4-3.3-5.7-3.9c-2.5-0.7-5-0.2-7.6-0.1c-3.2,0.1-6.6-0.1-9.6-1.5
				c-5.2-2.4-8.3-7.2-6.6-13c0.2-0.8,0.6-1.7,1-2.5c-2.3,2-4,4.8-4.9,9c-1.5,6.7,0.9,10.5,7.3,12.8c6.5,2.2,15.9,1.2,17.7,0.2
				s3.5-0.2,7.4,2.1c3.6,2.1,7.8,2.7,9.8,0.4C220.1,361.4,216.1,359.2,214.3,357.9z"/>
			<path class="st11" d="M218.2,338.5c0,0,9.8,4.7,13.9,6.9c4,2.2,5.9,4.6,4,7.4s-11.2-0.8-19-4.7"/>
			<path class="st11" d="M215.5,345.6c0,0,8.6,3.8,13.4,6.2c4.8,2.4,3.8,4.8,2.7,6.4c-1.1,1.7-3.8,1.8-9.7-0.8
				c-5.9-2.6-10.3-4.7-10.3-4.7"/>
		</g>
		<g>
			<polygon class="st22" points="84.8,364 79.2,362.3 96.6,306.8 102.2,308.4 			"/>
			<polygon class="st23" points="102,309.2 96.4,307.6 96.6,306.8 102.2,308.4 			"/>
			<polygon class="st22" points="99.4,307.6 96.6,306.8 98.8,304.7 101,302.6 101.6,305.5 102.2,308.4 			"/>
			<polygon class="st23" points="90.5,361.3 84.8,362.6 71.7,305.9 77.4,304.7 			"/>
			<polygon class="st24" points="77.6,305.5 71.9,306.8 71.7,305.9 77.4,304.7 			"/>
			<polygon class="st22" points="74.6,305.3 71.7,305.9 72.6,303 73.4,300.2 75.4,302.4 77.4,304.7 			"/>
			<path class="st6" d="M88.3,307.6c-0.4,0-0.7,0.4-0.6,0.7l3.8,41.5l0,0l1,1.1l1,1.1l0.8-1.2l0.8-1.2l0,0l-3.8-41.5
				c0-0.4-0.4-0.6-0.8-0.6L88.3,307.6z"/>
			<path class="st7" d="M90.7,307.4l-2.4,0.2c-0.4,0-0.7,0.3-0.6,0.6l1.1,11.9l3.8-0.3l-1.1-11.9C91.4,307.6,91.1,307.4,90.7,307.4"
				/>
			<path class="st25" d="M66.5,320.3c-0.1-0.2-0.3-0.3-0.5-0.2l-0.8,0.3c-0.2,0.1-0.3,0.3-0.2,0.5c0.1,0.2,0.3,0.3,0.5,0.2l0.8-0.3
				C66.5,320.7,66.6,320.5,66.5,320.3"/>
			<polygon class="st25" points="61.3,310 65.3,308.7 65,307.8 61,309.1 			"/>
			<path class="st26" d="M66.2,320.9l-4.1-12c-0.1-0.3-0.4-0.4-0.7-0.3l-0.5,0.1c-0.3,0.1-0.4,0.4-0.3,0.7l4.1,12
				c0.1,0.3,0.4,0.4,0.7,0.3l0.5-0.1C66.1,321.5,66.3,321.2,66.2,320.9"/>
			<path class="st5" d="M62.1,302.1c-0.5,0.2-0.7,0.7-0.6,1.1l18.6,54.7l0,0L82,359l1.8,1.1l0.8-1.9l0.8-1.9l0,0l-18.6-54.7
				c-0.2-0.5-0.7-0.7-1.2-0.6L62.1,302.1z"/>
			<path class="st27" d="M80.2,357.9L80.2,357.9L80.2,357.9z"/>
			<path class="st27" d="M85.3,356.2L85.3,356.2L85.3,356.2z"/>
			<path class="st18" d="M66.7,301.4c-0.1-0.4-0.6-0.6-1-0.5l-3.7,1.2c-0.4,0.1-0.6,0.6-0.5,1l1.1,3.2l5.2-1.6L66.7,301.4z"/>
			<polygon class="st27" points="80.2,357.9 80.2,357.9 85.3,356.2 85.3,356.2 82.7,357 			"/>
			<polygon class="st26" points="67.8,304.6 62.6,306.2 62.9,307.2 68.1,305.6 			"/>
			<polygon class="st25" points="63.7,309.3 68.8,307.7 68.5,306.7 63.3,308.3 			"/>
			<path class="st5" d="M84.3,302.1c-1,0-1.7,0.8-1.7,1.7v56.8l0,0l1.3,1.6l1.3,1.6l1.3-1.6l1.3-1.6l0,0v-56.8
				c0-0.9-0.8-1.7-1.7-1.7H84.3z"/>
			<path class="st18" d="M86.8,302.1h-3.1c-0.6,0-1.1,0.5-1.1,1v3h5.2v-3C87.8,302.6,87.4,302.1,86.8,302.1"/>
			<rect x="82.6" y="306.2" class="st25" width="5.2" height="1.1"/>
			<rect x="82.6" y="308.4" class="st25" width="5.2" height="1.1"/>
			<path class="st28" d="M96.4,324.9H68.2c-0.7,0-1.3,0.6-1.3,1.3V364c0,0.7,0.6,1.3,1.3,1.3h28.2c0.7,0,1.3-0.6,1.3-1.3v-37.8
				C97.7,325.4,97.1,324.9,96.4,324.9"/>
			<path class="st4" d="M96.4,324.9H68.2c-0.7,0-1.3,0.6-1.3,1.3v5.5h30.8v-5.5C97.7,325.4,97.1,324.9,96.4,324.9"/>
		</g>
		<g>
			<g>
				<g>
					<path class="st26" d="M430.8,318.7l-153.4,0.9c-3.2,0-5.8-2.6-5.7-5.7l4.7-108.3c0.1-2.9,2.6-5.2,5.7-5.2h155.3
						c3.3,0,5.8,2.7,5.6,5.8l-6.6,107.3C436.2,316.4,433.8,318.7,430.8,318.7"/>
					<path class="st25" d="M291.6,255c-0.3-11-1.5-22-4.4-32.6c-1.8-6.8-4-15.1-9.2-20.4c-1,0.9-1.7,2.2-1.7,3.7L271.6,314
						c-0.1,3.1,2.5,5.7,5.7,5.7l8.6-0.1C289.3,298.2,292.3,276.6,291.6,255z"/>
					<path class="st22" d="M443,205.7H289.2c-3.1,0-5.7,2.4-5.8,5.3l-4.7,108.6l152.1-0.9c3,0,5.4-2.3,5.6-5.1l6.6-107.3
						C443,206,443,205.8,443,205.7"/>
					<path class="st29" d="M422.7,212.1c-1.8-0.4-3.5-0.5-4.9-0.6c-2.5-0.1-5.5,0-7.7,1.6c-1.2,0.9-2.5,2.8-2,4.4
						c0.6,1.7,2.2,2.4,3.4,3.4c4.1,3.1,5.2,8.5,5.2,13.7c0,7.1-1,14.2,3.1,20.4c2.1,3.2,5.1,5.3,8.1,2c2.7-3,4.2-7.2,5.4-11
						c2.5-8.3,4.7-18.7-0.2-26.5C430.5,215.5,426.8,213.3,422.7,212.1z"/>
					<path class="st26" d="M394.2,292.9c-18.4,2.4-37.5,3.2-55.8-0.3c-16.4-3.1-32.6-9.9-43.8-22.6c-5.7-6.5-10-14.1-12.8-22.3
						l-3.1,71.9l152.1-0.9c3,0,5.4-2.3,5.6-5.1l1.8-29.3C423.7,287.9,409,291,394.2,292.9z"/>
					<path class="st23" d="M344.3,252.9c0-8.6,7.2-15.5,16-15.5c8.9,0,16,6.9,16,15.5s-7.2,15.5-16,15.5S344.3,261.5,344.3,252.9"/>
					<g>
						<path class="st23" d="M428.9,230.6c-0.9,0-1.5-0.7-1.5-1.6l0.3-7.7c0-0.8,0.7-1.5,1.6-1.4c0.9,0,1.5,0.7,1.5,1.6l-0.3,7.7
							C430.4,230,429.7,230.6,428.9,230.6"/>
						<path class="st23" d="M428.2,247.3c-0.9,0-1.5-0.7-1.5-1.6l0.5-12.9c0-0.8,0.7-1.5,1.6-1.4c0.9,0,1.5,0.7,1.5,1.6l-0.5,12.9
							C429.8,246.7,429.1,247.4,428.2,247.3"/>
					</g>
				</g>
				<g>
					<polygon class="st26" points="383.6,357.1 351.4,357.1 344.3,288.7 376.5,288.7 					"/>
					<path class="st22" d="M346.8,297.1c0.9,4.3,1.8,8.7,3.1,12.9c2.3,7.5,5.5,15.1,9.9,21.6c4.4,6.6,10.2,12.4,18,14.7
						c1.5,0.5,3.1,0.8,4.7,1.1l-6.1-58.8h-31.5C346.1,291.3,346.3,294.5,346.8,297.1z"/>
					<polygon class="st25" points="344.3,288.7 340.9,292.6 347.9,361 351.4,357.1 					"/>
					<path class="st25" d="M398.3,353.5h-67.5c-2.2,0-4,1.7-4,3.9v12.4h75.5v-12.4C402.3,355.3,400.5,353.5,398.3,353.5"/>
					<path class="st26" d="M399.5,357.9c0,0.8-0.6,1.4-1.4,1.4h-43.3c-0.8,0-1.4-0.6-1.4-1.4l0,0c0-0.8,0.6-1.4,1.4-1.4h43.3
						C398.9,356.5,399.5,357.1,399.5,357.9L399.5,357.9z"/>
				</g>
			</g>
			<path class="st26" d="M313.1,356.3H164.9c-2.2,0-4,1.7-4,3.9v12.4h156.3v-12.4C317.2,358,315.4,356.3,313.1,356.3"/>
		</g>
		<g>
			<rect x="52.2" y="370.7" class="st7" width="384" height="119.3"/>
			<rect x="52.2" y="370.7" class="st6" width="384" height="11.3"/>
			<path class="st5" d="M451.1,364.4H37.4c-2.9,0-5.3,2.4-5.3,5.4v0.8c0,3,2.4,5.4,5.3,5.4h413.7c2.9,0,5.3-2.4,5.3-5.4v-0.8
				C456.4,366.8,454,364.4,451.1,364.4"/>
		</g>
		<g>
			<g>
				<path class="st4" d="M361.8,63h-99.4c-5.9,0-10.8,4.7-10.8,10.4v59.2c0,5.8,4.8,10.4,10.8,10.4h8v18l18.6-18h72.8
					c5.9,0,10.8-4.7,10.8-10.4V73.4C372.6,67.7,367.8,63,361.8,63"/>
				<path class="st8" d="M354,91h-83.4c-1.4,0-2.6-1.1-2.6-2.5s1.2-2.5,2.6-2.5H354c1.4,0,2.6,1.1,2.6,2.5S355.4,91,354,91"/>
				<path class="st8" d="M354,105.8h-83.4c-1.4,0-2.6-1.1-2.6-2.5s1.2-2.5,2.6-2.5H354c1.4,0,2.6,1.1,2.6,2.5
					C356.6,104.7,355.4,105.8,354,105.8"/>
				<path class="st8" d="M308.5,120.7h-37.9c-1.4,0-2.6-1.1-2.6-2.5c0-1.4,1.2-2.5,2.6-2.5h37.9c1.4,0,2.6,1.1,2.6,2.5
					C311.1,119.5,309.9,120.7,308.5,120.7"/>
			</g>
			<g>
				<g>
					<path class="st26" d="M276,59c0-0.9,0-1.4,0-2.3c1-1.2,1.6-1.7,2.6-2.9c6.3-6.8,9.2-10.4,9.2-14.5c0-2.8-1.3-5.4-5.1-5.3
						c-2.3,0-4.2,1.3-5.3,2.4c-0.5-1-0.7-1.6-1.1-2.6c1.7-1.6,4.2-2.9,7.1-2.9c5.5-0.1,7.8,4,7.8,7.9c0,5.1-3.3,9.2-8.5,14.9
						c-0.8,0.8-1.2,1.2-2,2.1v0.1c4.5-0.1,6.8-0.1,11.3-0.1c0,1.2,0,1.9,0,3.1C285.5,58.9,282.4,58.9,276,59z"/>
					<path class="st26" d="M306.2,58.8c0-3,0-4.5,0-7.5c-4.7,0-7,0-11.7,0.1c0-1,0-1.5,0-2.5c4.4-7.1,6.7-10.6,11.2-17.7
						c1.5,0,2.2,0,3.7,0c0,6.9,0,10.3,0,17.1c1.4,0,2.1,0,3.5,0c0,1.2,0,1.8,0,2.9c-1.4,0-2.1,0-3.5,0c0,3,0,4.5,0,7.5
						C308.1,58.8,307.4,58.8,306.2,58.8z M306.1,48.3c0-3.7,0-5.5,0-9.2c0-1.4,0-2.9,0.1-4.3h-0.1c-0.8,1.6-1.4,2.8-2.1,4.1
						c-2.5,3.8-3.7,5.6-6.1,9.4v0.1C301.2,48.3,302.9,48.3,306.1,48.3z"/>
					<path class="st26" d="M313.7,60.5c3.6-10.3,7.2-20.5,10.9-30.7c1.1,0,1.6,0,2.7,0c-3.7,10.2-7.4,20.5-11,30.7
						C315.2,60.5,314.7,60.5,313.7,60.5z"/>
					<path class="st26" d="M345.3,31.4c0,1,0,1.5,0,2.5c-4.6,10-6.8,15-11.3,25c-1.4,0-2.1,0-3.5,0c4.4-9.7,6.7-14.6,11.2-24.3v-0.1
						c-4.9-0.1-7.4-0.1-12.4-0.1c0-1.2,0-1.9,0-3.1C335.7,31.3,338.9,31.3,345.3,31.4z"/>
				</g>
			</g>
		</g>
	</g>
	<text transform="matrix(1 0 0 1 95.3081 447.8696)" class="st30 st31 st32">WEBB SCHOOL</text>
</g>
</svg>
