<svg width="400" height="332" viewBox="0 0 400 332" fill="none" xmlns="http://www.w3.org/2000/svg">
<path d="M58.64 238.014L106.24 44.7559L95.22 0H0L58.64 238.014Z" fill="url(#paint0_linear_3_8)"/>
<path d="M163.68 0H258.9L177.11 332H81.89L163.68 0Z" fill="url(#paint1_linear_3_8)"/>
<path d="M304.78 0H400L318.21 332H222.99L304.78 0Z" fill="url(#paint2_linear_3_8)"/>
<path d="M71.21 186.973L106.24 44.7559L95.22 0H81.89L71.21 186.973Z" fill="url(#paint3_linear_3_8)"/>
<path d="M93.47 96.6289L58.64 238.014L0 0L93.47 96.6289Z" fill="url(#paint4_linear_3_8)"/>
<path d="M199.17 0H258.9L177.11 332H140.75L199.17 0Z" fill="url(#paint5_linear_3_8)"/>
<path d="M224.63 139.109L140.75 332H81.89L224.63 139.109Z" fill="url(#paint6_linear_3_8)"/>
<path d="M400 0L318.21 332H271.15L400 0Z" fill="url(#paint7_linear_3_8)"/>
<path d="M400 0L352.39 193.258L304.78 0H400Z" fill="url(#paint8_linear_3_8)"/>
<defs>
<linearGradient id="paint0_linear_3_8" x1="106.245" y1="119.006" x2="0" y2="119.006" gradientUnits="userSpaceOnUse">
<stop stop-color="#FF5800"/>
<stop offset="1" stop-color="#FFD600"/>
</linearGradient>
<linearGradient id="paint1_linear_3_8" x1="258.901" y1="166" x2="81.892" y2="166" gradientUnits="userSpaceOnUse">
<stop stop-color="#FF3F76"/>
<stop offset="1" stop-color="#5C09C2"/>
</linearGradient>
<linearGradient id="paint2_linear_3_8" x1="400" y1="166" x2="222.99" y2="166" gradientUnits="userSpaceOnUse">
<stop stop-color="#0058FF"/>
<stop offset="1" stop-color="#570057"/>
</linearGradient>
<linearGradient id="paint3_linear_3_8" x1="106.245" y1="93.4858" x2="71.2094" y2="93.4858" gradientUnits="userSpaceOnUse">
<stop stop-color="#FF5800"/>
<stop offset="1" stop-color="#FFD600"/>
</linearGradient>
<linearGradient id="paint4_linear_3_8" x1="93.4666" y1="119.006" x2="0" y2="119.006" gradientUnits="userSpaceOnUse">
<stop stop-color="#FF5800"/>
<stop offset="1" stop-color="#FFD600"/>
</linearGradient>
<linearGradient id="paint5_linear_3_8" x1="258.901" y1="166" x2="140.755" y2="166" gradientUnits="userSpaceOnUse">
<stop stop-color="#FF3F76"/>
<stop offset="1" stop-color="#5C09C2"/>
</linearGradient>
<linearGradient id="paint6_linear_3_8" x1="224.63" y1="235.557" x2="81.892" y2="235.557" gradientUnits="userSpaceOnUse">
<stop stop-color="#FF3F76"/>
<stop offset="1" stop-color="#5C09C2"/>
</linearGradient>
<linearGradient id="paint7_linear_3_8" x1="400" y1="166" x2="271.15" y2="166" gradientUnits="userSpaceOnUse">
<stop stop-color="#0058FF"/>
<stop offset="1" stop-color="#570057"/>
</linearGradient>
<linearGradient id="paint8_linear_3_8" x1="400" y1="96.6271" x2="304.781" y2="96.6271" gradientUnits="userSpaceOnUse">
<stop stop-color="#0058FF"/>
<stop offset="1" stop-color="#570057"/>
</linearGradient>
</defs>
</svg>
